<svg xmlns="http://www.w3.org/2000/svg" width="44.134" height="60.639" viewBox="0 0 44.134 60.639">
  <g id="_11_Clipboard" data-name="11 Clipboard" transform="translate(-73.32 -5)">
    <path id="Path_24621" data-name="Path 24621" d="M113.965,101.265H76.809a3.493,3.493,0,0,1-3.489-3.489V68.88a.725.725,0,1,1,1.45,0v28.9a2.041,2.041,0,0,0,2.039,2.039h37.157A2.041,2.041,0,0,0,116,97.776V49.013a2.041,2.041,0,0,0-2.039-2.04h-5.929a2,2,0,0,1,.075.541v3h2.012a2.337,2.337,0,0,1,2.335,2.334V93.939a2.337,2.337,0,0,1-2.335,2.335H80.65a2.337,2.337,0,0,1-2.335-2.335V52.85a2.337,2.337,0,0,1,2.335-2.334h2.016V47.511a2,2,0,0,1,.075-.541H76.809a2.041,2.041,0,0,0-2.039,2.044V63.226a.725.725,0,0,1-1.45,0V49.013a3.493,3.493,0,0,1,3.489-3.49h7.844a.725.725,0,1,1,0,1.45.542.542,0,0,0-.541.538v3.73a.725.725,0,0,1-.725.725H80.65a.885.885,0,0,0-.885.884V93.939a.887.887,0,0,0,.885.885h29.474a.887.887,0,0,0,.885-.885V52.85a.885.885,0,0,0-.885-.884h-2.737a.725.725,0,0,1-.725-.725v-3.73a.542.542,0,0,0-.541-.541.725.725,0,0,1,0-1.45h7.844a3.493,3.493,0,0,1,3.489,3.49V97.776A3.493,3.493,0,0,1,113.965,101.265Z" transform="translate(0 -35.625)" fill="#d20005"/>
    <path id="Path_24622" data-name="Path 24622" d="M74.045,207.537a.725.725,0,0,1-.725-.725v-1.087a.725.725,0,0,1,1.45,0v1.087A.725.725,0,0,1,74.045,207.537Z" transform="translate(0 -175.841)" fill="#d20005"/>
    <path id="Path_24623" data-name="Path 24623" d="M146.479,132.637H117a2.337,2.337,0,0,1-2.335-2.335V89.214A2.337,2.337,0,0,1,117,86.88h2.741a.725.725,0,0,1,.725.725v.256a.542.542,0,0,0,.541.542h21.464a.542.542,0,0,0,.541-.542V87.6a.725.725,0,0,1,.725-.725h2.737a2.337,2.337,0,0,1,2.335,2.334V130.3A2.337,2.337,0,0,1,146.479,132.637ZM117,88.33a.885.885,0,0,0-.885.884V130.3a.887.887,0,0,0,.885.885h29.474a.887.887,0,0,0,.885-.885V89.214a.885.885,0,0,0-.885-.884h-2.068a1.993,1.993,0,0,1-1.933,1.526h-21.47a1.993,1.993,0,0,1-1.933-1.526Z" transform="translate(-36.355 -71.989)" fill="#d20005"/>
    <path id="Path_24624" data-name="Path 24624" d="M174.119,17.865H152.651a1.992,1.992,0,0,1-1.991-1.993V11.885a1.992,1.992,0,0,1,1.991-1.991h.07a5.064,5.064,0,0,0,4.035-2.054,9.147,9.147,0,0,1,13.259.007A5.065,5.065,0,0,0,174.048,9.9h.07a1.992,1.992,0,0,1,1.991,1.983v3.986A1.992,1.992,0,0,1,174.119,17.865Zm-21.468-6.517a.542.542,0,0,0-.541.538v3.986a.542.542,0,0,0,.541.541h21.468a.542.542,0,0,0,.541-.541V11.885a.542.542,0,0,0-.541-.541h-.07a6.5,6.5,0,0,1-5.187-2.62,7.727,7.727,0,0,0-10.954,0,6.5,6.5,0,0,1-5.187,2.62Zm10.734-.5a2.1,2.1,0,1,1,2.1-2.1A2.1,2.1,0,0,1,163.385,10.849Zm0-2.746a.649.649,0,1,0,.647.647A.649.649,0,0,0,163.385,8.1Z" transform="translate(-67.998)" fill="#d20005"/>
    <path id="Path_24625" data-name="Path 24625" d="M179.419,271.8H163.58a3.7,3.7,0,0,1-3.69-3.69V253.69a3.7,3.7,0,0,1,3.69-3.69h15.839a3.7,3.7,0,0,1,3.69,3.69v14.416A3.7,3.7,0,0,1,179.419,271.8ZM163.58,251.45a2.243,2.243,0,0,0-2.241,2.241v14.416a2.243,2.243,0,0,0,2.241,2.241h15.839a2.243,2.243,0,0,0,2.241-2.241V253.69a2.243,2.243,0,0,0-2.241-2.241Z" transform="translate(-76.113 -215.405)" fill="#d20005"/>
    <path id="Path_24626" data-name="Path 24626" d="M214.251,258.181a2.143,2.143,0,0,1-1.111-.314l-2.68-1.627a.69.69,0,0,0-.725,0l-2.683,1.627a2.144,2.144,0,0,1-3.261-1.834v-5.309a.725.725,0,0,1,.725-.725h11.149a.725.725,0,0,1,.725.725v5.315a2.12,2.12,0,0,1-1.087,1.869A2.151,2.151,0,0,1,214.251,258.181Zm-4.154-3.493a2.133,2.133,0,0,1,1.113.313l2.681,1.627a.7.7,0,0,0,1.056-.594V251.45h-9.7v4.59a.7.7,0,0,0,1.056.594l2.682-1.627A2.137,2.137,0,0,1,210.1,254.688Z" transform="translate(-114.71 -215.405)" fill="#d20005"/>
    <path id="Path_24627" data-name="Path 24627" d="M211.827,354.266H201.438a1.591,1.591,0,0,1-1.588-1.588v-2.256a1.591,1.591,0,0,1,1.588-1.591h10.388a1.591,1.591,0,0,1,1.587,1.591v2.259A1.591,1.591,0,0,1,211.827,354.266Zm-10.388-3.986a.138.138,0,0,0-.139.139v2.259a.139.139,0,0,0,.139.139h10.388a.139.139,0,0,0,.139-.139v-2.256a.138.138,0,0,0-.139-.139Z" transform="translate(-111.246 -302.297)" fill="#d20005"/>
    <path id="Path_24628" data-name="Path 24628" d="M182.013,194.37H160.125a.725.725,0,0,1,0-1.45h21.888a.725.725,0,1,1,0,1.45Z" transform="translate(-75.682 -165.22)" fill="#d20005"/>
    <path id="Path_24629" data-name="Path 24629" d="M212.7,144.37H200.585a.725.725,0,1,1,0-1.45H212.7a.725.725,0,1,1,0,1.45Z" transform="translate(-111.255 -121.26)" fill="#d20005"/>
  </g>
</svg>
