<svg xmlns="http://www.w3.org/2000/svg" width="60.003" height="59.982" viewBox="0 0 60.003 59.982">
  <g id="Hats-Graduation-Global-Online_learning-World" data-name="Hats-Graduation-Global-Online learning-World" transform="translate(-1.998 -2.002)">
    <path id="Path_24620" data-name="Path 24620" d="M59,34.76V24.93l2.63-2.16a.968.968,0,0,0,.37-.82,1.044,1.044,0,0,0-.45-.79l-29-19a1.039,1.039,0,0,0-1.1,0l-29,19a1.044,1.044,0,0,0-.45.79.968.968,0,0,0,.37.82L13,31.47v.57a21,21,0,1,0,38,0v-.57l6-4.91v8.2l-2.45,4.9A3,3,0,0,0,57.24,44h1.52a3,3,0,0,0,2.69-4.34ZM24.02,40a35.092,35.092,0,0,1,2.12-11.72A57.724,57.724,0,0,1,32,28a57.723,57.723,0,0,1,5.86.28A35.092,35.092,0,0,1,39.98,40Zm15.96,2a37.772,37.772,0,0,1-1.25,9.13,20.606,20.606,0,0,0-13.46,0A37.772,37.772,0,0,1,24.02,42ZM32,26c-6.84,0-13.71,1.09-17,3.18V23c0-1.36,6-4,17-4s17,2.64,17,4v6.18C45.71,27.09,38.84,26,32,26Zm-8.1,2.55A38.382,38.382,0,0,0,22.02,40H13.03a18.727,18.727,0,0,1,1.87-7.29.976.976,0,0,0,.1-.44V32C15,31.03,18.1,29.4,23.9,28.55ZM13.05,42h8.97a39.669,39.669,0,0,0,1.39,9.86,21.125,21.125,0,0,0-4.57,2.81A18.894,18.894,0,0,1,13.05,42Zm7.33,14a18.9,18.9,0,0,1,3.64-2.23,17.916,17.916,0,0,0,3.04,5.55A18.871,18.871,0,0,1,20.38,56ZM32,60c-2.24,0-4.57-2.58-6.13-6.96a18.586,18.586,0,0,1,12.26,0C36.57,57.42,34.24,60,32,60Zm4.94-.68a17.916,17.916,0,0,0,3.04-5.55A18.9,18.9,0,0,1,43.62,56a18.871,18.871,0,0,1-6.68,3.32Zm8.22-4.65a21.125,21.125,0,0,0-4.57-2.81A39.669,39.669,0,0,0,41.98,42h8.97A18.894,18.894,0,0,1,45.16,54.67ZM41.98,40A38.382,38.382,0,0,0,40.1,28.55C45.9,29.4,49,31.03,49,32v.27a.976.976,0,0,0,.1.44A18.727,18.727,0,0,1,50.97,40ZM51,28.89V23c0-3.94-9.56-6-19-6s-19,2.06-19,6v5.89l-8.31-6.8L32,4.2,59.31,22.09Zm8.61,12.64a.966.966,0,0,1-.85.47H57.24a.966.966,0,0,1-.85-.47,1.008,1.008,0,0,1-.05-.98L58,37.24l1.66,3.31a1.008,1.008,0,0,1-.05.98Z" fill="#d20005"/>
  </g>
</svg>
