<svg xmlns="http://www.w3.org/2000/svg" width="68.05" height="61.882" viewBox="0 0 68.05 61.882">
  <path id="internship" d="M57.725,57.044c-.365,0-.727.013-1.087.035V54.592a6.018,6.018,0,0,0,2.168-4.578V41.336A2.909,2.909,0,0,0,55.9,38.43H43.981V35.7a4.9,4.9,0,0,0-4.891-4.891H27.717A4.9,4.9,0,0,0,22.826,35.7V38.43H10.905A2.909,2.909,0,0,0,8,41.336v8.678a6.018,6.018,0,0,0,2.168,4.578V67.637a13.691,13.691,0,1,0,25.218,7.387c0-.094,0-.187,0-.28H40.4a17.325,17.325,0,1,0,17.32-17.7ZM21.784,40.593H45.022v4.85a1.207,1.207,0,0,1-1.206,1.206H22.989a1.207,1.207,0,0,1-1.205-1.206v-4.85ZM38.445,38.43H28.361V36.346H38.445ZM24.989,35.7a2.731,2.731,0,0,1,2.728-2.728H39.09A2.731,2.731,0,0,1,41.818,35.7V38.43h-1.21V35.7a1.52,1.52,0,0,0-1.518-1.518H27.717A1.52,1.52,0,0,0,26.2,35.7V38.43h-1.21V35.7ZM10.163,41.336a.743.743,0,0,1,.743-.743h8.716v4.85a3.372,3.372,0,0,0,3.368,3.368H43.817a3.372,3.372,0,0,0,3.368-3.368v-4.85H55.9a.743.743,0,0,1,.743.743v8.678c0,1.509-.881,2.77-2.773,3.967-2.539,1.606-8.185,2.783-15.206,3.184a5.563,5.563,0,0,0-10.524,0c-7.012-.4-12.657-1.575-15.2-3.187-1.892-1.2-2.773-2.458-2.773-3.967ZM36.8,58.972a3.4,3.4,0,1,1-3.4-3.4A3.405,3.405,0,0,1,36.8,58.972ZM21.693,86.554a11.53,11.53,0,1,1,11.53-11.53,11.543,11.543,0,0,1-11.53,11.53Zm0-25.223a13.643,13.643,0,0,0-9.362,3.71V56.13c3.021,1.64,8.579,2.782,15.52,3.187a5.563,5.563,0,0,0,11.105,0c6.947-.409,12.505-1.55,15.519-3.184v1.22A17.363,17.363,0,0,0,40.491,72.58H35.167a13.715,13.715,0,0,0-13.474-11.25Zm36.032,28.2A15.162,15.162,0,1,1,72.887,74.368,15.179,15.179,0,0,1,57.725,89.531ZM70.279,76.259l-.765-.442V70.576a1.081,1.081,0,0,0-.8-1.045L57.349,66.514a1.083,1.083,0,0,0-.555,0L45.433,69.531a1.081,1.081,0,0,0,0,2.09l2.789.741v5.374a1.081,1.081,0,0,0,.887,1.064c1.32.241,2.409.452,3.284.621a25.4,25.4,0,0,0,4.679.666,25.4,25.4,0,0,0,4.679-.666c.875-.169,1.964-.38,3.284-.621a1.081,1.081,0,0,0,.887-1.064V72.362l1.43-.38v3.834l-.765.442a1.081,1.081,0,0,0-.541.937v3.983a1.081,1.081,0,0,0,1.731.864l.656-.493.656.493a1.081,1.081,0,0,0,1.731-.864V77.2A1.081,1.081,0,0,0,70.279,76.259ZM57.072,68.678l7.148,1.9-7.148,1.9-7.148-1.9Zm6.687,8.159c-.939.175-1.742.331-2.418.461-4.268.825-4.268.825-8.537,0-.676-.131-1.479-.286-2.418-.461v-3.9l6.409,1.7a1.083,1.083,0,0,0,.555,0l6.409-1.7Zm4.9,2.3a1.083,1.083,0,0,0-.449,0V77.82l.224-.13.225.13ZM25.839,77.147a2.912,2.912,0,0,1-.685,2.318,4.188,4.188,0,0,1-2.38,1.271v.381a1.081,1.081,0,1,1-2.163,0v-.4a3.917,3.917,0,0,1-3.057-2.843,1.081,1.081,0,1,1,2.1-.523,2.007,2.007,0,0,0,2.14,1.322,2.5,2.5,0,0,0,1.725-.624.766.766,0,0,0,.174-.642c-.037-.3-.124-1.017-2.165-1.352-2.936-.482-3.623-2.031-3.682-3.245a3.421,3.421,0,0,1,2.767-3.463V68.93a1.081,1.081,0,0,1,2.163,0v.408a3.907,3.907,0,0,1,2.751,2.342,1.081,1.081,0,1,1-1.994.837A1.962,1.962,0,0,0,21.2,71.43c-.208.047-1.243.33-1.2,1.276.012.251.044.916,1.872,1.216,2.417.4,3.75,1.482,3.962,3.226ZM21.693,64.312A10.712,10.712,0,1,0,32.4,75.024,10.724,10.724,0,0,0,21.693,64.312Zm0,19.26a8.549,8.549,0,1,1,8.549-8.549A8.558,8.558,0,0,1,21.693,83.572Z" transform="translate(-7.5 -30.311)" fill="#d20005" stroke="#fff" stroke-width="1"/>
</svg>
