<svg xmlns="http://www.w3.org/2000/svg" width="60.981" height="60.981" viewBox="0 0 60.981 60.981">
  <g id="operator" transform="translate(0 1)">
    <g id="Group_5365" data-name="Group 5365" transform="translate(0 -1)">
      <path id="Path_24619" data-name="Path 24619" d="M57.932,49.614C51.866,46.4,47.213,44.594,43.071,43.9l.429-.589a.791.791,0,0,0,.2-.813l-.952-3.81q.518-.732.976-1.511c3.788-1.289,5.7-3.468,6.025-6.676a3.351,3.351,0,0,0,3.1-3.248V19.632a3.278,3.278,0,0,0-3.067-3.247C49.56,10.514,46.971-1,30.491-1S11.421,10.514,11.2,16.386a3.276,3.276,0,0,0-3.067,3.246v7.623a3.365,3.365,0,0,0,3.354,3.252h1.525a3.1,3.1,0,0,0,1.568-.437,22.226,22.226,0,0,0,3.653,8.62l-.952,3.81a1.366,1.366,0,0,0,.2.813l.429.589c-4.142.692-8.795,2.5-14.861,5.712A5.405,5.405,0,0,0,0,54.594v4.37a.96.96,0,0,0,1.016,1.016H59.965a.96.96,0,0,0,1.016-1.016v-4.37A5.827,5.827,0,0,0,57.932,49.614ZM30.5,47.29l2.434,5.577H28.017ZM27.279,54.9H33.7l.595,3.049H26.669ZM41.162,40.671l.407,1.829-1.038,1.426a.907.907,0,0,0-.181.2L36.122,49.98,34.78,51.822l-2.74-6.165a14.748,14.748,0,0,0,8.7-4.551C40.885,40.963,41.025,40.819,41.162,40.671Zm3.969-6.322a22,22,0,0,0,1.279-4.306,3.194,3.194,0,0,0,1.3.444A4.961,4.961,0,0,1,45.131,34.348ZM50.716,19.53v7.623a1.236,1.236,0,0,1-1.22,1.22H47.972a1.236,1.236,0,0,1-1.22-1.22V19.53a1.236,1.236,0,0,1,1.22-1.22H49.5A1.236,1.236,0,0,1,50.716,19.53ZM30.491,1.033c6.265,0,16.808,2.045,17.261,15.363a3.232,3.232,0,0,0-1.2.372,16.261,16.261,0,0,0-32.116,0,3.191,3.191,0,0,0-1.2-.369C13.683,3.078,24.226,1.033,30.491,1.033ZM14.127,27.153a1.236,1.236,0,0,1-1.22,1.22H11.383a1.236,1.236,0,0,1-1.22-1.22V19.53a1.236,1.236,0,0,1,1.22-1.22h1.525a1.236,1.236,0,0,1,1.22,1.22Zm2.134-7.826a14.229,14.229,0,1,1,28.458,0v7.114a18.81,18.81,0,0,1-2.295,9.038,40.639,40.639,0,0,1-10.918,1.125,1.016,1.016,0,1,0,0,2.033,51.133,51.133,0,0,0,9.232-.695l-.187.187a17.039,17.039,0,0,1-1.615,1.864,12.993,12.993,0,0,1-8,3.714,1.145,1.145,0,0,0-.449-.089.973.973,0,0,0-.423.091,11.491,11.491,0,0,1-5.04-1.524,16.512,16.512,0,0,1-4.6-4.055l-.3-.3-.059-.02a18.726,18.726,0,0,1-3.8-11.363V19.327ZM28.941,45.657,26.2,51.822,24.859,49.98l-4.228-5.854c-.032-.032-.068-.064-.105-.1L19.412,42.5l.406-1.829c.138.148.277.293.418.435A14.75,14.75,0,0,0,28.941,45.657ZM2.033,54.594a3.489,3.489,0,0,1,1.931-3.151c6.478-3.442,11.142-5.169,15.3-5.685L25.325,54.1l-.77,3.85H2.033Zm56.916,3.354H36.426l-.77-3.85,6.131-8.43c4.14.625,8.887,2.351,15.231,5.674a3.76,3.76,0,0,1,1.931,3.252v3.354Z" transform="translate(0 1)" fill="#d20005"/>
    </g>
  </g>
</svg>
