<svg xmlns="http://www.w3.org/2000/svg" width="60" height="59.954" viewBox="0 0 60 59.954">
  <g id="Page-1" transform="translate(0 -0.046)">
    <g id="_002---Launch" data-name="002---Launch">
      <path id="Shape" d="M3,60H8a3,3,0,0,0,2.827-2.035L33,57c1.21,0,5.019-.346,6.424-1.125,4.512-2.5,18.556-9.338,18.78-9.451a3.743,3.743,0,0,0-3.179-6.731L36.8,46.812a2.992,2.992,0,0,1-.948.153h-.579a4.577,4.577,0,0,0-.607-1.9l-.089-.148A6.019,6.019,0,0,0,29.43,42H24.2a8.188,8.188,0,0,1-5.077-1.782A10.2,10.2,0,0,0,12.8,38H10.816A3,3,0,0,0,8,36H3a3,3,0,0,0-3,3V57a3,3,0,0,0,3,3ZM17.877,41.782A10.2,10.2,0,0,0,24.2,44h5.23a4.009,4.009,0,0,1,3.432,1.944l.089.147a2.592,2.592,0,0,1,.323.874H26.965a9.972,9.972,0,0,0-5.548,1.68l-.732.488A1,1,0,0,0,21.8,50.8l.732-.488a7.977,7.977,0,0,1,4.438-1.344h8.889a5.012,5.012,0,0,0,1.628-.274l18.224-7.118a1.741,1.741,0,0,1,1.946.612,1.718,1.718,0,0,1,.316,1.374,1.7,1.7,0,0,1-.721,1.111c-.58.282-14.234,6.927-18.792,9.455a18.866,18.866,0,0,1-5.5.876L11,55.956V40h1.8a8.188,8.188,0,0,1,5.077,1.782ZM2,39a1,1,0,0,1,1-1H8a1,1,0,0,1,1,1V57a1,1,0,0,1-1,1H3a1,1,0,0,1-1-1Z" fill="#d20005"/>
      <path id="Shape-2" data-name="Shape" d="M37,22a4,4,0,1,0-4-4A4,4,0,0,0,37,22Zm0-6a2,2,0,1,1-2,2A2,2,0,0,1,37,16Z" fill="#d20005"/>
      <path id="Shape-3" data-name="Shape" d="M23.615,35.25a2.006,2.006,0,0,0,1.366,1.574,2.041,2.041,0,0,0,.62.1,2.013,2.013,0,0,0,1.413-.581l2.223-2.2a1.021,1.021,0,0,1,.517-.276l1.9-.375c.1.2.2.373.285.516a2.013,2.013,0,0,0,1.735,1H34v1a2,2,0,0,0,2,2h2a2,2,0,0,0,2-2V35h.33a2.014,2.014,0,0,0,1.737-1c.082-.143.178-.318.283-.512l1.889.373a1.029,1.029,0,0,1,.527.282l2.223,2.2a2.006,2.006,0,0,0,1.41.578,2.041,2.041,0,0,0,.62-.1,2.009,2.009,0,0,0,1.367-1.579l.56-3.35a3.957,3.957,0,0,0-.158-1.922L49.3,25.513A4.051,4.051,0,0,0,48,23.666l-2.2-1.739a34.486,34.486,0,0,0-.008-7.557C45.145,8.573,41.36,3.505,39.163,1a2.929,2.929,0,0,0-4.325,0c-2.2,2.505-5.983,7.573-6.622,13.369a34.43,34.43,0,0,0-.007,7.558l-2.2,1.742a4.061,4.061,0,0,0-1.3,1.853l-1.488,4.445a3.964,3.964,0,0,0-.16,1.928ZM36,36V27a1,1,0,0,1,2,0v9ZM46.745,25.231a2.054,2.054,0,0,1,.657.926l1.492,4.456a1.943,1.943,0,0,1,.08.952l-.58,3.354-2.217-2.2a3.021,3.021,0,0,0-1.543-.824l-1.386-.274a33.013,33.013,0,0,0,2.218-7.406ZM36.343,2.318a.856.856,0,0,1,1.316,0,30.874,30.874,0,0,1,3.878,5.516,9.417,9.417,0,0,1-9.074,0,30.88,30.88,0,0,1,3.88-5.518ZM30.2,14.589a17.215,17.215,0,0,1,1.379-4.952A10.668,10.668,0,0,0,37,11a10.668,10.668,0,0,0,5.417-1.363A17.228,17.228,0,0,1,43.8,14.591,31,31,0,0,1,40.33,33H40V27a3,3,0,0,0-6,0v6h-.333A31.043,31.043,0,0,1,30.2,14.589ZM25.1,30.607l1.487-4.44a2.061,2.061,0,0,1,.655-.933l1.284-1.015a32.994,32.994,0,0,0,2.218,7.406l-1.393.275a3.016,3.016,0,0,0-1.533.82l-2.24,2.2-.56-3.35a1.95,1.95,0,0,1,.09-.963Z" fill="#d20005"/>
      <path id="Shape-4" data-name="Shape" d="M38,40a1,1,0,0,0-2,0v1a1,1,0,0,0,2,0Z" fill="#d20005"/>
      <circle id="Oval" cx="1" cy="1" r="1" transform="translate(36 43)" fill="#d20005"/>
      <path id="Shape-5" data-name="Shape" d="M31,35a1,1,0,0,0-1,1v3a1,1,0,0,0,2,0V36A1,1,0,0,0,31,35Z" fill="#d20005"/>
      <path id="Shape-6" data-name="Shape" d="M42,36v3a1,1,0,0,0,2,0V36a1,1,0,0,0-2,0Z" fill="#d20005"/>
    </g>
  </g>
</svg>
