<svg xmlns="http://www.w3.org/2000/svg" width="125" height="105" viewBox="0 0 125 105">
  <g id="Group_5336" data-name="Group 5336" transform="translate(-668 -14858)">
    <path id="Path_23995" data-name="Path 23995" d="M52.5,0A52.5,52.5,0,1,1,0,52.5,52.5,52.5,0,0,1,52.5,0Z" transform="translate(668 14858)" fill="rgba(182,44,44,0.15)"/>
    <g id="Group_5237" data-name="Group 5237" transform="translate(6427 4169)">
      <rect id="Rectangle_7419" data-name="Rectangle 7419" width="95" height="95" transform="translate(-5729 10699)" fill="none"/>
      <g id="books_3_" data-name="books (3)" transform="translate(-5721.297 10669.586)">
        <path id="Path_23975" data-name="Path 23975" d="M75.707,102.106h-.724a6.4,6.4,0,0,1,0-9.337h.724a3.886,3.886,0,1,0,0-7.773H72.135A11.593,11.593,0,0,0,73.3,83.98a11.348,11.348,0,0,0,3.346-8.118A11.512,11.512,0,0,0,66.177,64.526,3.646,3.646,0,0,0,62.8,59.52h-.617a5.719,5.719,0,0,1,0-8.287H62.8a3.642,3.642,0,0,0,0-7.283H19.478A11.523,11.523,0,0,0,7.9,55.339a11.348,11.348,0,0,0,3.346,8.118,11.593,11.593,0,0,0,1.165,1.016H7.637a3.642,3.642,0,1,0,0,7.283h.616a5.719,5.719,0,0,1,0,8.289H7.637A3.643,3.643,0,0,0,5.922,86.9a12.41,12.41,0,0,0,6.52,22.978H75.707a3.886,3.886,0,1,0,0-7.773Zm1.555-13.223a1.557,1.557,0,0,1-1.555,1.555H66.384V87.328h9.323A1.556,1.556,0,0,1,77.262,88.882ZM12.894,61.807a9.032,9.032,0,0,1-2.664-6.461,9.188,9.188,0,0,1,9.248-9.065H62.8a1.31,1.31,0,1,1,0,2.619H25.532a1.166,1.166,0,1,0,0,2.332H59.22a8.061,8.061,0,0,0,0,8.287H19.326a4.15,4.15,0,0,1-4.143-4.245,4.221,4.221,0,0,1,4.243-4.042h1.443a1.166,1.166,0,0,0,0-2.332H19.426a6.567,6.567,0,0,0-6.574,6.318,6.482,6.482,0,0,0,6.475,6.633H62.8a1.311,1.311,0,0,1,0,2.621H19.326a9.037,9.037,0,0,1-6.432-2.665ZM6.71,69.039A1.31,1.31,0,0,1,7.637,66.8H65.065a9.19,9.19,0,0,1,9.25,9.065,9.094,9.094,0,0,1-7.931,9.05V82.27a6.485,6.485,0,0,0,5.308-6.528,6.564,6.564,0,0,0-6.572-6.318H7.637a1.3,1.3,0,0,1-.928-.384Zm4.506,2.716h53.9A4.218,4.218,0,0,1,69.36,75.8a4.157,4.157,0,0,1-2.976,4.08V77.439a1.166,1.166,0,0,0-1.166-1.166H42.157a1.166,1.166,0,1,0,0,2.332h7.87v1.44H11.216a8.061,8.061,0,0,0,0-8.289Zm41.142,6.849H64.052v16.53l-5.311-2.751a1.166,1.166,0,0,0-1.073,0l-5.311,2.751V78.605ZM7.637,82.376H50.026V85H7.637a1.31,1.31,0,1,1,0-2.619Zm69.168,24.714a1.544,1.544,0,0,1-1.1.456H12.441A10.111,10.111,0,0,1,2.332,97.4,10.213,10.213,0,0,1,12.609,87.328H50.026v3.109H12.55a7.1,7.1,0,0,0-7.107,6.83,7.008,7.008,0,0,0,7,7.171h42.5a1.166,1.166,0,0,0,0-2.332h-42.5a4.676,4.676,0,0,1-4.667-4.784,4.753,4.753,0,0,1,4.776-4.553H50.026v4.283a1.166,1.166,0,0,0,1.7,1.035l6.477-3.355,6.477,3.355a1.166,1.166,0,0,0,1.7-1.035V92.769h5.6a8.734,8.734,0,0,0,0,9.337H59.6a1.166,1.166,0,0,0,0,2.332h16.1a1.554,1.554,0,0,1,1.1,2.653Z" transform="translate(0 0)" fill="#d20005" stroke="#d20005" stroke-width="0.5"/>
      </g>
    </g>
  </g>
</svg>
