<svg xmlns="http://www.w3.org/2000/svg" width="125" height="105" viewBox="0 0 125 105">
  <g id="Group_5335" data-name="Group 5335" transform="translate(-1295 -14858)">
    <circle id="Ellipse_16" data-name="Ellipse 16" cx="52.5" cy="52.5" r="52.5" transform="translate(1295 14858)" fill="rgba(182,44,44,0.15)"/>
    <g id="Group_5241" data-name="Group 5241" transform="translate(6655 4169)">
      <rect id="Rectangle_7421" data-name="Rectangle 7421" width="95" height="95" transform="translate(-5330 10699)" fill="none"/>
      <g id="Teacher" transform="translate(-5318.534 10710.259)">
        <path id="Path_23977" data-name="Path 23977" d="M13.659,29.442a9.722,9.722,0,1,1,9.722-9.718,9.722,9.722,0,0,1-9.722,9.718Zm0-15.646a5.929,5.929,0,1,0,5.929,5.929A5.929,5.929,0,0,0,13.659,13.8Z" transform="translate(2.617 16.756)" fill="#d20005"/>
        <path id="Path_23978" data-name="Path 23978" d="M27.655,34.965a1.9,1.9,0,0,1-1.9-1.9V29.276a9.483,9.483,0,1,0-18.965,0v3.793a1.9,1.9,0,0,1-3.793,0V29.276a13.276,13.276,0,1,1,26.552,0v3.793A1.9,1.9,0,0,1,27.655,34.965Z" transform="translate(0 33.517)" fill="#d20005"/>
        <path id="Path_23979" data-name="Path 23979" d="M10.9,46.468a1.9,1.9,0,0,1-1.453-3.114l26.552-31.71A1.9,1.9,0,0,1,38.9,14.079L12.348,45.789a1.9,1.9,0,0,1-1.453.679Z" transform="translate(16.759 19.587)" fill="#d20005"/>
        <path id="Path_23980" data-name="Path 23980" d="M6.9,22.965a1.9,1.9,0,0,1-1.9-1.9V5.9a1.9,1.9,0,0,1,3.793,0V21.069A1.9,1.9,0,0,1,6.9,22.965Z" transform="translate(5.586)" fill="#d20005"/>
        <path id="Path_23981" data-name="Path 23981" d="M70.379,7.793H5.9A1.9,1.9,0,0,1,5.9,4H70.379a1.9,1.9,0,1,1,0,3.793Z" transform="translate(2.793)" fill="#d20005"/>
        <path id="Path_23982" data-name="Path 23982" d="M21.9,49.517a1.9,1.9,0,0,1-1.9-1.9V5.9a1.9,1.9,0,1,1,3.793,0V47.62A1.9,1.9,0,0,1,21.9,49.517Z" transform="translate(47.482)" fill="#d20005"/>
        <path id="Path_23983" data-name="Path 23983" d="M39.655,18.793H16.9A1.9,1.9,0,0,1,16.9,15H39.655a1.9,1.9,0,0,1,0,3.793Z" transform="translate(33.517 30.724)" fill="#d20005"/>
        <path id="Path_23984" data-name="Path 23984" d="M35.655,10.793H12.9A1.9,1.9,0,1,1,12.9,7H35.655a1.9,1.9,0,0,1,0,3.793Z" transform="translate(22.345 8.379)" fill="#d20005"/>
        <path id="Path_23985" data-name="Path 23985" d="M41.241,12.793H10.9A1.9,1.9,0,0,1,10.9,9H41.241a1.9,1.9,0,0,1,0,3.793Z" transform="translate(16.759 13.965)" fill="#d20005"/>
      </g>
    </g>
  </g>
</svg>
