<svg xmlns="http://www.w3.org/2000/svg" width="125" height="105" viewBox="0 0 125 105">
  <g id="Group_5334" data-name="Group 5334" transform="translate(-1626 -14858)">
    <path id="Path_23993" data-name="Path 23993" d="M52.5,0A52.5,52.5,0,1,1,0,52.5,52.5,52.5,0,0,1,52.5,0Z" transform="translate(1626 14858)" fill="rgba(182,44,44,0.15)"/>
    <g id="Group_5240" data-name="Group 5240" transform="translate(6731 4169)">
      <rect id="Rectangle_7422" data-name="Rectangle 7422" width="95" height="95" transform="translate(-5075 10699)" fill="none"/>
      <g id="International-Global-Worldwide-Economy-Business" transform="translate(-5064.695 10709.296)">
        <path id="Path_23976" data-name="Path 23976" d="M64.672,43.13a28.007,28.007,0,0,0,0-11.87c8.083-12.492,10.2-22.643,5.657-27.2C66.3.043,57.857,1.212,47.151,7.266L48.3,9.3C57.881,3.889,65.5,2.544,68.673,5.713,72.08,9.13,70.161,17.823,63.827,28.2A28.092,28.092,0,0,0,31.261,9.711C18.768,1.637,8.611-.49,4.056,4.059.027,8.1,1.218,16.577,7.322,27.332L9.36,26.174C3.9,16.552,2.533,8.9,5.712,5.715,9.133,2.306,17.826,4.227,28.2,10.56a28.105,28.105,0,0,0,0,53.268C17.816,70.162,9.122,72.082,5.712,68.675,2.549,65.5,3.885,57.887,9.3,48.314L7.259,47.162c-6.048,10.7-7.216,19.144-3.2,23.17A9.052,9.052,0,0,0,10.7,72.688c5.252,0,12.408-2.747,20.555-8.016A28.091,28.091,0,0,0,63.827,46.179c6.334,10.386,8.253,19.079,4.847,22.492-3.257,3.25-11.1,1.778-20.969-3.934l-1.171,2.027c6.774,3.926,12.666,5.925,17.155,5.925a9.052,9.052,0,0,0,6.642-2.358C74.876,65.777,72.753,55.622,64.672,43.13ZM56.64,44.375l-.951-1.265q1.728-1.991,3.318-4,1.68,2.244,3.163,4.468a25.637,25.637,0,0,1-3.4,7.683L57.108,49.6V45.781a2.38,2.38,0,0,0-.469-1.406Zm-3.046-4.053V36.538a2.391,2.391,0,0,0-.686-1.662l-1.482-1.47a2.35,2.35,0,0,0-2.389-.594l-2.523.82-3.674-.889-.877-3.532,1.721-2.56h3.7l2.293,1.523c2.826,2.938,5.473,5.974,7.866,9.02q-1.577,2.006-3.293,4ZM57.994,22a25.8,25.8,0,0,1,2.317,3.817L56.9,27.763l-5.193-1.045-.534-.351c-.515-.533-1.031-1.068-1.558-1.594-.993-.995-2.006-1.962-3.023-2.916a2.226,2.226,0,0,0,.757-.052l3.763-.937L54.8,22.707a2.343,2.343,0,0,0,2.343-.143Zm3.261,5.974a25.548,25.548,0,0,1,.909,2.836Q60.689,33.032,59,35.279c-1.511-1.9-3.114-3.8-4.8-5.667l2.274.456a2.413,2.413,0,0,0,1.592-.278Zm-.764,9.218c.787-1.038,1.555-2.076,2.28-3.109a24.96,24.96,0,0,1,0,6.219C62.046,39.27,61.278,38.232,60.491,37.194ZM56.522,20.169l-.667.444-3.668-1.829a2.292,2.292,0,0,0-1.64-.194l-3.763.937-2.109-1.4,1.35-2.023H50.9a2.316,2.316,0,0,0,.836-.177,26.02,26.02,0,0,1,4.787,4.238Zm-8.612-6.4H46.026a2.359,2.359,0,0,0-1.957,1.048l-1.355,2.025a2.343,2.343,0,0,0-.374,1.205Q41.117,17,39.887,16.006a2.337,2.337,0,0,0-1.949-2.517l-1.64-.278q-1.106-.82-2.208-1.594a25.94,25.94,0,0,1,3.1-.194A25.618,25.618,0,0,1,47.91,13.765ZM30.37,12.346l.829,1.469a2.277,2.277,0,0,0,1.666,1.2l2.472.414c.544.408,1.088.82,1.632,1.243l-.5.75-3.866.966a2.318,2.318,0,0,0-1.275.861l-3.1,4.142-4.3,2.148-4.764.947a2.343,2.343,0,0,0-1.884,2.3V30.7a2.362,2.362,0,0,0,1.054,1.959l2.46,1.649v2.164L15.7,33.921l-3.195-4.1A25.868,25.868,0,0,1,30.37,12.346ZM11.422,37.194a25.849,25.849,0,0,1,.391-4.444l2.022,2.592a2.355,2.355,0,0,0,.811.672l5.1,2.56a2.38,2.38,0,0,0,1.045.245h.032a2.179,2.179,0,0,0-.03.234v3.524a2.36,2.36,0,0,0,.686,1.646l1.865,1.865a2.343,2.343,0,0,0,.609.439l1.523.763v3.786a2.292,2.292,0,0,0,.117.74l2.091,6.27a2.357,2.357,0,0,0,1.491,1.483l1.424.469a2.343,2.343,0,0,0,3.079-2.226V54.318l3.39-1.7a2.328,2.328,0,0,0,1.3-2.079l.013-1.956,2.038-.677a2.334,2.334,0,0,0,1.535-1.656l.656-2.633a2.343,2.343,0,0,0-2.273-2.91H38.967l-1.619-2.46a2.335,2.335,0,0,0-1.957-1.054H31.825l-2.519-2.548a2.343,2.343,0,0,0-2.885-.351l-3.285,2V34.306a2.362,2.362,0,0,0-1.054-1.959L19.622,30.7V28.783l4.8-.955a2.39,2.39,0,0,0,.554-.2l4.3-2.15a2.182,2.182,0,0,0,.82-.7l3.1-4.135,3.831-.958a2.232,2.232,0,0,0,1.393-.969l.391-.586c2.359,1.925,4.7,3.983,6.99,6.166H43.687a2.362,2.362,0,0,0-1.957,1.047L40,27.939a2.363,2.363,0,0,0-.3,1.837l.867,3.535a2.36,2.36,0,0,0,1.727,1.706l3.626.88a2.26,2.26,0,0,0,1.324-.037l2.515-.809,1.492,1.488v3.784a2.38,2.38,0,0,0,.469,1.406l.947,1.259c-1.51,1.685-3.076,3.35-4.7,4.976a113.812,113.812,0,0,1-17.152,14.2A25.815,25.815,0,0,1,11.422,37.194Zm15.112,8-1.523-.763-1.874-1.865V39.042l4.505-2.748,2.523,2.547a2.356,2.356,0,0,0,1.66.7h3.566L37.011,42a2.343,2.343,0,0,0,1.957,1.054h1.365l-.656,2.635-2.036.675a2.343,2.343,0,0,0-1.606,2.208l-.013,1.956-3.39,1.7a2.328,2.328,0,0,0-1.3,2.1v3.493l-1.423-.469-2.091-6.267V47.289a2.329,2.329,0,0,0-1.289-2.1Zm10.66,17.772a25.957,25.957,0,0,1-3.11-.194A118.894,118.894,0,0,0,49.619,49.619c1.545-1.544,3.04-3.124,4.482-4.722l.664.883V49.6a2.35,2.35,0,0,0,.683,1.652l1.935,1.935a25.733,25.733,0,0,1-20.19,9.779Z" transform="translate(0 0)" fill="#d20005" stroke="#d20005" stroke-width="0.5"/>
      </g>
    </g>
  </g>
</svg>
