<svg xmlns="http://www.w3.org/2000/svg" xmlns:xlink="http://www.w3.org/1999/xlink" width="124" height="105" viewBox="0 0 124 105">
  <defs>
    <clipPath id="clip-path">
      <path id="path644" d="M0-682.665H79.326v80.326H0Z" transform="translate(0 682.665)" fill="none"/>
    </clipPath>
  </defs>
  <g id="Group_5337" data-name="Group 5337" transform="translate(-972 -14858)">
    <path id="Path_23994" data-name="Path 23994" d="M52.5,0A52.5,52.5,0,1,1,0,52.5,52.5,52.5,0,0,1,52.5,0Z" transform="translate(972 14858)" fill="rgba(182,44,44,0.15)"/>
    <g id="Group_5239" data-name="Group 5239" transform="translate(6522 4169)">
      <rect id="Rectangle_7420" data-name="Rectangle 7420" width="94" height="95" transform="translate(-5520 10699)" fill="none"/>
      <g id="g618" transform="translate(-5512.663 10706.336)">
        <g id="g620" transform="translate(25.717 25.9)">
          <path id="path622" d="M-104.579,0l-13.946,5.23,13.946,5.23,13.946-5.23Z" transform="translate(118.525)" fill="none" stroke="#d20005" stroke-linecap="round" stroke-linejoin="round" stroke-width="3"/>
        </g>
        <g id="g624" transform="translate(53.436 31.13)">
          <path id="path626" d="M0-63.72v-8.5" transform="translate(0 72.217)" fill="none" stroke="#d20005" stroke-linecap="round" stroke-linejoin="round" stroke-width="3"/>
        </g>
        <g id="g628" transform="translate(39.558 36.36)">
          <path id="path630" d="M0,0V18.067l13.946-5.23V8.752" fill="none" stroke="#d20005" stroke-linecap="round" stroke-linejoin="round" stroke-width="3"/>
        </g>
        <g id="g632" transform="translate(25.89 31.13)">
          <path id="path634" d="M0-28.328v-3.778" transform="translate(0 32.105)" fill="none" stroke="#d20005" stroke-linecap="round" stroke-linejoin="round" stroke-width="3"/>
        </g>
        <g id="g636" transform="translate(25.822 40.411)">
          <path id="path638" d="M-104.579-105.093l-13.946-5.23v-8.785" transform="translate(118.525 119.108)" fill="none" stroke="#d20005" stroke-linecap="round" stroke-linejoin="round" stroke-width="3"/>
        </g>
        <g id="g640">
          <g id="g642" clip-path="url(#clip-path)">
            <g id="g648" transform="translate(34.968 1.177)">
              <path id="path650" d="M-71.423-35.652a4.725,4.725,0,0,1-4.7,4.754,4.725,4.725,0,0,1-4.7-4.754,4.725,4.725,0,0,1,4.7-4.754A4.725,4.725,0,0,1-71.423-35.652Z" transform="translate(80.813 40.407)" fill="none" stroke="#d20005" stroke-linecap="round" stroke-linejoin="round" stroke-width="3"/>
            </g>
            <g id="g652" transform="translate(10.422 55.827)">
              <path id="path654" d="M-104.752-52.289a6.93,6.93,0,0,1-6.886,6.973,6.93,6.93,0,0,1-6.886-6.973,6.93,6.93,0,0,1,6.886-6.973A6.93,6.93,0,0,1-104.752-52.289Z" transform="translate(118.525 59.263)" fill="none" stroke="#d20005" stroke-linecap="round" stroke-linejoin="round" stroke-width="3"/>
            </g>
            <g id="g656" transform="translate(55.132 55.827)">
              <path id="path658" d="M-52.376,0A6.93,6.93,0,0,1-45.49,6.973a6.93,6.93,0,0,1-6.886,6.973,6.93,6.93,0,0,1-6.886-6.973A6.93,6.93,0,0,1-52.376,0Z" transform="translate(59.263)" fill="none" stroke="#d20005" stroke-linecap="round" stroke-linejoin="round" stroke-width="3"/>
            </g>
            <g id="g660" transform="translate(10.422 10.553)">
              <path id="path662" d="M-104.752-52.289a6.93,6.93,0,0,1-6.886,6.973,6.93,6.93,0,0,1-6.886-6.973,6.93,6.93,0,0,1,6.886-6.973A6.93,6.93,0,0,1-104.752-52.289Z" transform="translate(118.525 59.263)" fill="none" stroke="#d20005" stroke-linecap="round" stroke-linejoin="round" stroke-width="3"/>
            </g>
            <g id="g664" transform="translate(55.132 10.553)">
              <path id="path666" d="M-52.376,0A6.93,6.93,0,0,1-45.49,6.973a6.93,6.93,0,0,1-6.886,6.973,6.93,6.93,0,0,1-6.886-6.973A6.93,6.93,0,0,1-52.376,0Z" transform="translate(59.263)" fill="none" stroke="#d20005" stroke-linecap="round" stroke-linejoin="round" stroke-width="3"/>
            </g>
            <g id="g668" transform="translate(34.968 69.641)">
              <path id="path670" d="M-71.423-35.652a4.725,4.725,0,0,1-4.7,4.754,4.725,4.725,0,0,1-4.7-4.754,4.725,4.725,0,0,1,4.7-4.754A4.725,4.725,0,0,1-71.423-35.652Z" transform="translate(80.813 40.407)" fill="none" stroke="#d20005" stroke-linecap="round" stroke-linejoin="round" stroke-width="3"/>
            </g>
            <g id="g672" transform="translate(68.774 35.409)">
              <path id="path674" d="M-35.711-71.3a4.725,4.725,0,0,1-4.7-4.754,4.725,4.725,0,0,1,4.7-4.754,4.725,4.725,0,0,1,4.7,4.754A4.725,4.725,0,0,1-35.711-71.3Z" transform="translate(40.407 80.813)" fill="none" stroke="#d20005" stroke-linecap="round" stroke-linejoin="round" stroke-width="3"/>
            </g>
            <g id="g676" transform="translate(1.162 35.409)">
              <path id="path678" d="M-35.711-71.3a4.725,4.725,0,0,1-4.7-4.754,4.725,4.725,0,0,1,4.7-4.754,4.725,4.725,0,0,1,4.7,4.754A4.725,4.725,0,0,1-35.711-71.3Z" transform="translate(40.407 80.813)" fill="none" stroke="#d20005" stroke-linecap="round" stroke-linejoin="round" stroke-width="3"/>
            </g>
            <g id="g680" transform="translate(39.663 10.686)">
              <path id="path682" d="M0,0V9.509" fill="none" stroke="#d20005" stroke-linecap="round" stroke-linejoin="round" stroke-width="3"/>
            </g>
            <g id="g684" transform="translate(53.607 22.572)">
              <path id="path686" d="M-26.074,0-29.5,3.471" transform="translate(29.503)" fill="none" stroke="#d20005" stroke-linecap="round" stroke-linejoin="round" stroke-width="3"/>
            </g>
            <g id="g688" transform="translate(22.291 22.572)">
              <path id="path690" d="M0,0,3.428,3.471" fill="none" stroke="#d20005" stroke-linecap="round" stroke-linejoin="round" stroke-width="3"/>
            </g>
            <g id="g692" transform="translate(53.607 54.283)">
              <path id="path694" d="M-26.074-26.031-29.5-29.5" transform="translate(29.503 29.503)" fill="none" stroke="#d20005" stroke-linecap="round" stroke-linejoin="round" stroke-width="3"/>
            </g>
            <g id="g696" transform="translate(22.291 54.283)">
              <path id="path698" d="M0-26.031,3.428-29.5" transform="translate(0 29.503)" fill="none" stroke="#d20005" stroke-linecap="round" stroke-linejoin="round" stroke-width="3"/>
            </g>
            <g id="g700" transform="translate(59.383 40.163)">
              <path id="path702" d="M-71.423,0h-9.391" transform="translate(80.813)" fill="none" stroke="#d20005" stroke-linecap="round" stroke-linejoin="round" stroke-width="3"/>
            </g>
            <g id="g704" transform="translate(39.663 60.132)">
              <path id="path706" d="M0-71.3v-9.509" transform="translate(0 80.813)" fill="none" stroke="#d20005" stroke-linecap="round" stroke-linejoin="round" stroke-width="3"/>
            </g>
            <g id="g708" transform="translate(10.553 40.163)">
              <path id="path710" d="M0,0H9.391" fill="none" stroke="#d20005" stroke-linecap="round" stroke-linejoin="round" stroke-width="3"/>
            </g>
          </g>
        </g>
      </g>
    </g>
  </g>
</svg>
