<svg id="_02-Medical_appointment" data-name="02-Medical appointment" xmlns="http://www.w3.org/2000/svg" width="50" height="50" viewBox="0 0 53.922 59.5">
  <path id="Path_23731" data-name="Path 23731" d="M31.369,42.453a.93.93,0,0,1-.906-.723L23.025,9.192l1.813-.415,6.531,28.574L37.9,8.777l1.813.415L32.275,41.731a.93.93,0,0,1-.906.722Z" transform="translate(-4.408 -0.617)"/>
  <path id="Path_23732" data-name="Path 23732" d="M36.449,17.165l-4.921-4.921-4.921,4.921-1.315-1.315,5.578-5.578a.93.93,0,0,1,1.315,0l5.578,5.578Z" transform="translate(-4.567 -0.703)"/>
  <path id="Path_23733" data-name="Path 23733" d="M32.656,18.617H30.8a.93.93,0,0,1-.832-.514L28.1,14.384l1.664-.831,1.6,3.2h.71l1.6-3.2,1.664.831L33.483,18.1A.93.93,0,0,1,32.656,18.617Z" transform="translate(-4.765 -0.953)"/>
  <path id="Path_23734" data-name="Path 23734" d="M0,0H1.859V11.311H0Z" transform="translate(26.955 16.893) rotate(-9.443)"/>
  <path id="Path_23735" data-name="Path 23735" d="M0,0H11.311V1.859H0Z" transform="translate(23.255 27.756) rotate(-80.5)"/>
  <path id="Path_23736" data-name="Path 23736" d="M31.016,45.251a.93.93,0,0,1-.813-.478l-9.3-16.734a.93.93,0,0,1,.039-.968l3.2-4.8-4.8-3.2a.93.93,0,0,1-.409-.681L18,9.086,19.86,8.9l.886,8.86,5.213,3.475a.93.93,0,0,1,.258,1.289L22.807,27.63l8.209,14.776L39.225,27.63l-3.4-5.106a.93.93,0,0,1,.258-1.289l5.213-3.475.886-8.86,1.855.186-.93,9.3a.93.93,0,0,1-.409.681l-4.8,3.2,3.2,4.8a.93.93,0,0,1,.039.968l-9.3,16.734A.93.93,0,0,1,31.016,45.251Z" transform="translate(-4.055 -0.626)"/>
  <path id="Path_23737" data-name="Path 23737" d="M49.719,51.437a3.719,3.719,0,1,1,3.719-3.719A3.719,3.719,0,0,1,49.719,51.437Zm0-5.578a1.859,1.859,0,1,0,1.859,1.859A1.859,1.859,0,0,0,49.719,45.859Z" transform="translate(-6.023 -3.094)"/>
  <path id="Path_23738" data-name="Path 23738" d="M52.578,45.648H50.719V42.859H48.859v2.789H47V42.859A1.859,1.859,0,0,1,48.859,41h1.859a1.859,1.859,0,0,1,1.859,1.859Z" transform="translate(-6.094 -2.883)"/>
  <path id="Path_23739" data-name="Path 23739" d="M18.367,48.172c-6.618,0-8.367-7.9-8.367-12.086V29.578C10,26.189,11.824,24,14.648,24S19.3,26.189,19.3,29.578v6.508c0,.218-.028,5.392-2.438,8.894l-1.531-1.054c2.078-3.021,2.109-7.793,2.109-7.84V29.578c0-1.116-.271-3.719-2.789-3.719s-2.789,2.6-2.789,3.719v6.508c0,.1.093,10.227,6.508,10.227Z" transform="translate(-3.492 -1.687)"/>
  <path id="Path_23740" data-name="Path 23740" d="M11,49.842V47.983a5.5,5.5,0,0,0,1.59-.223l.539,1.779A7.325,7.325,0,0,1,11,49.842Z" transform="translate(-3.562 -3.358)"/>
  <path id="Path_23741" data-name="Path 23741" d="M21.254,51.648H18.93a.93.93,0,0,1-.93-.93V47.93a.93.93,0,0,1,.93-.93h2.324a2.324,2.324,0,0,1,0,4.648Zm-1.395-1.859h1.395a.465.465,0,1,0,0-.93H19.859Z" transform="translate(-4.055 -3.305)"/>
  <path id="Path_23742" data-name="Path 23742" d="M10.648,51.648H8.324a2.324,2.324,0,0,1,0-4.648h2.324a.93.93,0,0,1,.93.93v2.789A.93.93,0,0,1,10.648,51.648ZM8.324,48.859a.465.465,0,0,0,0,.93H9.719v-.93Z" transform="translate(-3.211 -3.305)"/>
  <path id="Path_23743" data-name="Path 23743" d="M3,14H4.859v1.859H3Z" transform="translate(-3 -0.984)"/>
  <path id="Path_23744" data-name="Path 23744" d="M54.133,60.063H5.789A2.789,2.789,0,0,1,3,57.273V17.3H4.859V57.273a.93.93,0,0,0,.93.93H54.133a.93.93,0,0,0,.93-.93V9.859H4.859v1.859H3V8.93A.93.93,0,0,1,3.93,8H55.992a.93.93,0,0,1,.93.93V57.273A2.789,2.789,0,0,1,54.133,60.063Z" transform="translate(-3 -0.562)"/>
  <path id="Path_23745" data-name="Path 23745" d="M56.922,8.367H55.062V2.789a.93.93,0,0,0-.93-.93H5.789a.93.93,0,0,0-.93.93V8.367H3V2.789A2.789,2.789,0,0,1,5.789,0H54.133a2.789,2.789,0,0,1,2.789,2.789Z" transform="translate(-3 0)"/>
  <path id="Path_23746" data-name="Path 23746" d="M7,4H8.859V5.859H7Z" transform="translate(-3.281 -0.281)"/>
  <path id="Path_23747" data-name="Path 23747" d="M11,4h1.859V5.859H11Z" transform="translate(-3.562 -0.281)"/>
  <path id="Path_23748" data-name="Path 23748" d="M15,4h1.859V5.859H15Z" transform="translate(-3.844 -0.281)"/>
  <path id="Path_23749" data-name="Path 23749" d="M54,4h1.859V5.859H54Z" transform="translate(-6.586 -0.281)"/>
  <path id="Path_23750" data-name="Path 23750" d="M42,4h9.3V5.859H42Z" transform="translate(-5.742 -0.281)"/>
  <path id="Path_23751" data-name="Path 23751" d="M50.606,39.623H48.747V16.381A8.307,8.307,0,0,0,45.4,9.688L46.516,8.2a10.148,10.148,0,0,1,4.091,8.181Z" transform="translate(-5.981 -0.577)"/>
  <path id="Path_23752" data-name="Path 23752" d="M15.859,24.748H14V16.381A10.149,10.149,0,0,1,18.091,8.2l1.116,1.488a8.3,8.3,0,0,0-3.347,6.694Z" transform="translate(-3.773 -0.577)"/>
  <path id="Path_23753" data-name="Path 23753" d="M31,47h1.859V61.875H31Z" transform="translate(-4.969 -3.305)"/>
  <path id="Path_23754" data-name="Path 23754" d="M56.648,26.578H52V24.719h3.719V22.859H52V21h4.648a.93.93,0,0,1,.93.93v3.719A.93.93,0,0,1,56.648,26.578Z" transform="translate(-6.445 -1.477)"/>
  <path id="Path_23755" data-name="Path 23755" d="M47.578,26.578H42.93a.93.93,0,0,1-.93-.93V21.93a.93.93,0,0,1,.93-.93h4.648v1.859H43.859v1.859h3.719Z" transform="translate(-5.742 -1.477)"/>
</svg>
