<svg id="art_1_" data-name="art (1)" xmlns="http://www.w3.org/2000/svg" width="50" height="50" viewBox="0 0 53.574 60">
  <path id="Path_23761" data-name="Path 23761" d="M85.184,166a4.688,4.688,0,1,0,4.688,4.688A4.693,4.693,0,0,0,85.184,166Zm0,7.031a2.344,2.344,0,1,1,2.344-2.344A2.347,2.347,0,0,1,85.184,173.031Zm0,0" transform="translate(-71.121 -146.547)"/>
  <path id="Path_23762" data-name="Path 23762" d="M199.871,120.688a4.688,4.688,0,1,0-4.688,4.688A4.693,4.693,0,0,0,199.871,120.688Zm-7.031,0a2.344,2.344,0,1,1,2.344,2.344A2.347,2.347,0,0,1,192.84,120.688Zm0,0" transform="translate(-168.23 -102.406)"/>
  <path id="Path_23763" data-name="Path 23763" d="M50.5,290.687A4.688,4.688,0,1,0,55.184,286,4.693,4.693,0,0,0,50.5,290.687Zm4.688-2.344a2.344,2.344,0,1,1-2.344,2.344A2.346,2.346,0,0,1,55.184,288.344Zm0,0" transform="translate(-44.637 -252.484)"/>
  <path id="Path_23764" data-name="Path 23764" d="M140.5,370.688A4.688,4.688,0,1,0,145.184,366,4.693,4.693,0,0,0,140.5,370.688Zm7.031,0a2.344,2.344,0,1,1-2.344-2.344A2.346,2.346,0,0,1,147.527,370.688Zm0,0" transform="translate(-124.09 -323.109)"/>
  <path id="Path_23765" data-name="Path 23765" d="M49.772,11.145c0-2.788-4.057-9.32-4.87-10.6a1.172,1.172,0,0,0-1.978,0c-.711,1.119-3.9,6.246-4.691,9.383a26.492,26.492,0,0,0-21.784.27A26.035,26.035,0,0,0,2.425,27.43a1.172,1.172,0,1,0,2.276.557A23.8,23.8,0,0,1,17.457,12.312C23.85,9.265,31.2,9.325,38.2,12.466A5.874,5.874,0,0,0,41,16.229a59.411,59.411,0,0,0-1.533,10.916c-.124,1.865-.208,3.845-.249,5.895a13.985,13.985,0,0,0-7.013,13.215c.139,2.193.349,5.506-3.1,8.516a9.535,9.535,0,0,1-9.472,1.543A23.563,23.563,0,0,1,4.186,36.9a1.172,1.172,0,1,0-2.329.265,25.8,25.8,0,0,0,16.99,21.361,11.878,11.878,0,0,0,11.8-1.985c4.324-3.77,4.049-8.1,3.9-10.431a11.646,11.646,0,0,1,4.647-10.251v0c0,5.55.425,16.427,2.214,21.5.255.722.932,2.642,2.473,2.642s2.219-1.919,2.474-2.642c1.778-5.04,2.214-15.837,2.214-21.5,0-.8-.007-1.6-.02-2.368q.542-.008,1.1,0a5.3,5.3,0,0,0,5.021-3.364c2.154-5.61-1.849-11.2-6.571-14.88a5.856,5.856,0,0,0,1.677-4.1ZM43.913,3.419c1.691,2.862,3.516,6.437,3.516,7.726a3.516,3.516,0,1,1-7.031,0C40.4,9.855,42.222,6.281,43.913,3.419Zm0,13.586a5.873,5.873,0,0,0,.617-.033,55.325,55.325,0,0,1,1.345,9.281,15.5,15.5,0,0,1-3.992-.009,55.179,55.179,0,0,1,1.347-9.279,5.845,5.845,0,0,0,.683.04Zm-.034,40.22c-1.893-4.05-2.344-16.248-2.344-21.365,0-.655.015-2.1.016-2.1.027-1.785.087-3.518.179-5.172a17.7,17.7,0,0,0,4.3.008c.068,1.248.119,2.531.15,3.828.028,1.1.043,2.255.043,3.436,0,5.277-.477,17.372-2.344,21.365Zm8.6-27.937a2.943,2.943,0,0,1-2.8,1.861c-.4-.006-.8-.006-1.195,0-.045-1.359-.111-2.7-.2-3.99,0-.008,0-.016,0-.023a67.316,67.316,0,0,0-1.24-9.728c4.743,3.839,6.812,8.283,5.43,11.881Zm0,0" transform="translate(-1.691 0)"/>
  <path id="Path_23766" data-name="Path 23766" d="M2.84,267.172A1.172,1.172,0,1,1,1.668,266,1.172,1.172,0,0,1,2.84,267.172Zm0,0" transform="translate(-0.496 -234.828)"/>
</svg>
