<svg id="balance" xmlns="http://www.w3.org/2000/svg" width="50" height="50" viewBox="0 0 59.531 60">
  <g id="Group_1786" data-name="Group 1786" transform="translate(0)">
    <path id="Path_23709" data-name="Path 23709" d="M61.356,35.826a1.171,1.171,0,0,0-1-.562h-.209L51.673,16.606h1.983a2.41,2.41,0,1,0,0-4.82H34.374V8.612a4.7,4.7,0,1,0-5.216,0v3.173H9.876a2.41,2.41,0,1,0,0,4.82h1.983L3.389,35.264H3.18a1.179,1.179,0,0,0-1.051,1.713L3.66,39.989a3.442,3.442,0,0,0,3.082,1.891H20.285a3.441,3.441,0,0,0,3.082-1.891L24.9,36.977a1.179,1.179,0,0,0-1.051-1.713h-.209L15.169,16.606H29.158V49.5H22.8a2.834,2.834,0,0,0-2.831,2.831v1.539H18.559A2.834,2.834,0,0,0,15.728,56.7v2.421a.882.882,0,0,0,.882.882H46.922a.882.882,0,0,0,.882-.882V56.7a2.834,2.834,0,0,0-2.831-2.831H43.564V52.327A2.834,2.834,0,0,0,40.733,49.5H34.374V24.027a.882.882,0,1,0-1.764,0V49.5H30.921V15.724a.882.882,0,0,0-.882-.882H9.876a.646.646,0,1,1,0-1.293H30.039a.882.882,0,0,0,.882-.882V9.329l.1.016.05.008c.057.008.114.015.171.022l.063.007c.054.005.108.009.161.012l.071,0c.067,0,.134,0,.2.005h.052c.067,0,.135,0,.2-.005l.071,0c.054,0,.108-.007.161-.012l.064-.007c.057-.006.114-.013.171-.022l.05-.008.1-.016v3.339a.882.882,0,0,0,.882.882H53.655a.646.646,0,1,1,0,1.293H33.492a.882.882,0,0,0-.882.882v4.122a.882.882,0,1,0,1.764,0V16.606H48.363L39.894,35.264h-.209a1.179,1.179,0,0,0-1.051,1.713l1.531,3.013a3.442,3.442,0,0,0,3.082,1.891H56.789a3.441,3.441,0,0,0,3.082-1.891L61.4,36.977A1.171,1.171,0,0,0,61.356,35.826ZM40.733,51.259A1.069,1.069,0,0,1,41.8,52.327v1.539H28.306a.882.882,0,0,0,0,1.764H44.972A1.069,1.069,0,0,1,46.04,56.7v1.539H17.491V56.7a1.069,1.069,0,0,1,1.067-1.067h5.654a.882.882,0,0,0,0-1.764H21.731V52.327A1.069,1.069,0,0,1,22.8,51.259ZM21.795,39.191a1.686,1.686,0,0,1-1.51.926H6.742a1.686,1.686,0,0,1-1.51-.926l-1.1-2.163h18.76Zm-.083-3.927H5.316l8.2-18.06ZM33.069,7.335l-.1.046-.05.022c-.037.016-.074.03-.111.045l-.087.031-.092.031-.085.024-.065.018-.089.021-.065.014L32.24,7.6l-.073.011-.082.01-.092.008-.066.005c-.054,0-.107,0-.162,0s-.108,0-.162,0l-.066-.005-.092-.008-.082-.01L31.292,7.6,31.2,7.586l-.065-.014-.089-.021-.065-.018L30.9,7.51l-.092-.031-.087-.031c-.037-.014-.074-.029-.111-.045l-.05-.022-.1-.046a2.938,2.938,0,1,1,2.606,0ZM50.018,17.2l8.2,18.06H41.82ZM58.3,39.191a1.686,1.686,0,0,1-1.51.926H43.246a1.686,1.686,0,0,1-1.51-.926l-1.1-2.163H59.4Z" transform="translate(-2)"/>
  </g>
</svg>
