<svg id="calendar_1_" data-name="calendar (1)" xmlns="http://www.w3.org/2000/svg" width="50" height="50" viewBox="0 0 59.124 59.124">
  <path id="Path_23787" data-name="Path 23787" d="M48.61,33.709a.985.985,0,1,0-.351,1.939,10.837,10.837,0,1,1-5.226.332.988.988,0,0,0,.686-.817c.013-.1.009.016.009-1.29a3.946,3.946,0,0,0-3.942-3.942H16.629a3.916,3.916,0,0,0-1.971.53v-5.95A2.96,2.96,0,0,0,11.7,21.556H10.347a2.96,2.96,0,0,0-2.956,2.956V44.959a2.96,2.96,0,0,0,2.956,2.956H11.7a2.96,2.96,0,0,0,2.956-2.956V42.5H30.4a.985.985,0,0,0,0-1.971H13.672a.985.985,0,0,0-.985.985v3.449a.987.987,0,0,1-.985.985H10.347a.987.987,0,0,1-.985-.985V24.512a.987.987,0,0,1,.985-.985H11.7a.987.987,0,0,1,.985.985V35.967a.985.985,0,0,0,.985.985H34.215a.985.985,0,1,0,0-1.971H14.658V33.873A1.973,1.973,0,0,1,16.629,31.9H39.786a1.973,1.973,0,0,1,1.971,1.971v.467a12.811,12.811,0,0,0-6.8,17.886H3.942a1.973,1.973,0,0,1-1.971-1.971V9.238A1.973,1.973,0,0,1,3.942,7.267h6.606a6.292,6.292,0,0,0,6.2,5.3.985.985,0,1,0,0-1.971,4.311,4.311,0,1,1,4.2-5.3H17.384a.985.985,0,1,0,0,1.971H31.241a6.292,6.292,0,0,0,6.2,5.3.985.985,0,1,0,0-1.971,4.311,4.311,0,1,1,4.2-5.3H38.315a.985.985,0,0,0,0,1.971h11.94a1.973,1.973,0,0,1,1.971,1.971v6.036H6.8a.985.985,0,1,0,0,1.971H52.226v14a.985.985,0,1,0,1.971,0v-22A3.946,3.946,0,0,0,50.255,5.3H43.649a6.282,6.282,0,0,0-12.408,0H22.956a6.282,6.282,0,0,0-12.408,0H3.942A3.946,3.946,0,0,0,0,9.238V50.255A3.946,3.946,0,0,0,3.942,54.2H36.223A12.808,12.808,0,1,0,48.61,33.709Z" transform="translate(0 0)"/>
  <path id="Path_23788" data-name="Path 23788" d="M340.3,357.864a.986.986,0,0,0-.033,1.393l2.523,2.646a.986.986,0,0,0,1.41.017l5.237-5.237a.985.985,0,0,0-1.393-1.393l-4.523,4.523L341.7,357.9A.985.985,0,0,0,340.3,357.864Z" transform="translate(-298.12 -311.274)"/>
</svg>
