<svg id="chemistry" xmlns="http://www.w3.org/2000/svg" width="50" height="50" viewBox="0 0 57.5 60">
  <g id="Group_1811" data-name="Group 1811" transform="translate(0)">
    <g id="Group_1810" data-name="Group 1810">
      <path id="Path_23760" data-name="Path 23760" d="M62.769,47.449V38.8l3.522-3.493-1.228-1.243-3.324,3.3-6.47-3.224V24.77L46.92,20.58l-7.485,3.75-7.493-3.75-7.526,3.75L17.769,21.02V12.731L24.39,9.42l6.621,3.311v5.081h1.758V11.644l-7.5-3.75V0H23.512V7.894l-6.418,3.224L11.931,5.941,10.666,7.184l5.346,5.368V21.2l-3.463,3.493,1.258,1.243,3.28-3.3,6.426,3.224V35.23L31.92,39.42l7.515-3.75,7.507,3.75,7.474-3.75,6.6,3.311v8.289L54.391,50.58l-6.621-3.311V42.187H46.012v6.168l7.5,3.75V60h1.758V52.106l6.477-3.224,5.206,5.177,1.214-1.243Zm-24.258-13.3L31.89,37.455l-6.621-3.311V25.856l6.621-3.311,6.621,3.311Zm15,0L46.89,37.455l-6.621-3.311V25.856l6.621-3.311,6.621,3.311Z" transform="translate(-10.666)"/>
    </g>
  </g>
  <g id="Group_1813" data-name="Group 1813" transform="translate(10.033 18.867)">
    <g id="Group_1812" data-name="Group 1812">
      <rect id="Rectangle_6364" data-name="Rectangle 6364" width="1.875" height="1.758"/>
    </g>
  </g>
  <g id="Group_1815" data-name="Group 1815" transform="translate(40.033 45.117)">
    <g id="Group_1814" data-name="Group 1814">
      <rect id="Rectangle_6365" data-name="Rectangle 6365" width="1.875" height="1.758"/>
    </g>
  </g>
  <g id="Group_1817" data-name="Group 1817" transform="translate(46.595 39.375)">
    <g id="Group_1816" data-name="Group 1816">
      <rect id="Rectangle_6366" data-name="Rectangle 6366" width="1.758" height="7.5"/>
    </g>
  </g>
  <g id="Group_1819" data-name="Group 1819" transform="translate(16.595 26.25)">
    <g id="Group_1818" data-name="Group 1818">
      <rect id="Rectangle_6367" data-name="Rectangle 6367" width="1.758" height="7.5"/>
    </g>
  </g>
</svg>
