<svg id="chiropractic_1_" data-name="chiropractic (1)" xmlns="http://www.w3.org/2000/svg" width="50" height="50" viewBox="0 0 59.022 59.023">
  <g id="Group_1831" data-name="Group 1831" transform="translate(10.215)">
    <g id="Group_1830" data-name="Group 1830">
      <path id="Path_23776" data-name="Path 23776" d="M122.666,34.051a4.54,4.54,0,1,0,0-9.08H120.4V15.134h2.27a4.54,4.54,0,1,0,0-9.08H120.4V1.135A1.135,1.135,0,0,0,119.261,0H96.56a1.135,1.135,0,0,0-1.135,1.135V6.053h-2.27a4.54,4.54,0,1,0,0,9.08h2.27v9.837h-2.27a4.54,4.54,0,1,0,0,9.08h2.27v9.837h-2.27a4.54,4.54,0,1,0,0,9.08h2.27v4.919a1.135,1.135,0,0,0,1.135,1.135h22.7a1.135,1.135,0,0,0,1.135-1.135V52.969h2.27a4.54,4.54,0,0,0,0-9.081H120.4V34.051h2.27ZM93.155,12.864a2.27,2.27,0,1,1,0-4.54H96.56A1.135,1.135,0,0,0,97.7,7.189V2.27h20.431V6.053h-3.405a1.135,1.135,0,0,0,0,2.27h7.945a2.27,2.27,0,1,1,0,4.54h-3.405A1.135,1.135,0,0,0,118.126,14v4.918H97.7V14a1.135,1.135,0,0,0-1.135-1.135H93.155Zm29.511,33.295a2.27,2.27,0,1,1,0,4.54h-3.405a1.135,1.135,0,0,0-1.135,1.135v4.919H97.7V51.834A1.135,1.135,0,0,0,96.56,50.7H93.155a2.27,2.27,0,1,1,0-4.54H96.56A1.135,1.135,0,0,0,97.7,45.024V40.105h20.431v4.918a1.135,1.135,0,0,0,1.135,1.135h3.405Zm-3.405-14.377a1.135,1.135,0,0,0-1.135,1.135v4.918H97.7V32.916a1.135,1.135,0,0,0-1.135-1.135H93.155a2.27,2.27,0,1,1,0-4.54H96.56A1.135,1.135,0,0,0,97.7,26.106V21.188h20.431v4.919a1.135,1.135,0,0,0,1.135,1.135h3.405a2.27,2.27,0,1,1,0,4.54h-3.405Z" transform="translate(-88.615)"/>
    </g>
  </g>
  <g id="Group_1833" data-name="Group 1833" transform="translate(21.566 6.054)">
    <g id="Group_1832" data-name="Group 1832">
      <path id="Path_23777" data-name="Path 23777" d="M192.752,59.323h-1.135a2.27,2.27,0,1,1,0-4.54h1.135a1.135,1.135,0,0,0,0-2.27h-1.135a4.54,4.54,0,1,0,0,9.08h1.135a1.135,1.135,0,0,0,0-2.27Z" transform="translate(-187.077 -52.513)"/>
    </g>
  </g>
  <g id="Group_1835" data-name="Group 1835" transform="translate(21.566 24.971)">
    <g id="Group_1834" data-name="Group 1834">
      <path id="Path_23778" data-name="Path 23778" d="M192.752,223.426h-1.135a2.27,2.27,0,1,1,0-4.54h1.135a1.135,1.135,0,0,0,0-2.27h-1.135a4.54,4.54,0,1,0,0,9.08h1.135a1.135,1.135,0,0,0,0-2.27Z" transform="translate(-187.077 -216.616)"/>
    </g>
  </g>
  <g id="Group_1837" data-name="Group 1837" transform="translate(21.566 43.889)">
    <g id="Group_1836" data-name="Group 1836">
      <path id="Path_23779" data-name="Path 23779" d="M192.752,387.529h-1.135a2.27,2.27,0,0,1,0-4.54h1.135a1.135,1.135,0,1,0,0-2.27h-1.135a4.54,4.54,0,1,0,0,9.08h1.135a1.135,1.135,0,0,0,0-2.27Z" transform="translate(-187.077 -380.719)"/>
    </g>
  </g>
  <g id="Group_1839" data-name="Group 1839" transform="translate(51.077 28.376)">
    <g id="Group_1838" data-name="Group 1838">
      <path id="Path_23780" data-name="Path 23780" d="M449.887,246.154h-5.675a1.135,1.135,0,1,0,0,2.27h5.675a1.135,1.135,0,0,0,0-2.27Z" transform="translate(-443.077 -246.154)"/>
    </g>
  </g>
  <g id="Group_1841" data-name="Group 1841" transform="translate(51.077 18.199)">
    <g id="Group_1840" data-name="Group 1840">
      <path id="Path_23781" data-name="Path 23781" d="M448.382,158.2a1.135,1.135,0,0,0-1.605,0l-3.367,3.367a1.135,1.135,0,1,0,1.605,1.605l3.367-3.367A1.135,1.135,0,0,0,448.382,158.2Z" transform="translate(-443.077 -157.866)"/>
    </g>
  </g>
  <g id="Group_1843" data-name="Group 1843" transform="translate(51.077 35.187)">
    <g id="Group_1842" data-name="Group 1842">
      <path id="Path_23782" data-name="Path 23782" d="M448.382,308.931l-3.367-3.367a1.135,1.135,0,1,0-1.605,1.605l3.367,3.367a1.135,1.135,0,0,0,1.605-1.605Z" transform="translate(-443.077 -305.231)"/>
    </g>
  </g>
  <g id="Group_1845" data-name="Group 1845" transform="translate(0 28.376)">
    <g id="Group_1844" data-name="Group 1844">
      <path id="Path_23783" data-name="Path 23783" d="M6.81,246.154H1.135a1.135,1.135,0,0,0,0,2.27H6.81a1.135,1.135,0,0,0,0-2.27Z" transform="translate(0 -246.154)"/>
    </g>
  </g>
  <g id="Group_1847" data-name="Group 1847" transform="translate(2.308 18.199)">
    <g id="Group_1846" data-name="Group 1846">
      <path id="Path_23784" data-name="Path 23784" d="M25.326,161.567,21.958,158.2a1.135,1.135,0,0,0-1.605,1.605l3.367,3.367a1.135,1.135,0,0,0,1.605-1.605Z" transform="translate(-20.021 -157.868)"/>
    </g>
  </g>
  <g id="Group_1849" data-name="Group 1849" transform="translate(2.308 35.187)">
    <g id="Group_1848" data-name="Group 1848">
      <path id="Path_23785" data-name="Path 23785" d="M25.325,305.564a1.135,1.135,0,0,0-1.605,0l-3.367,3.367a1.135,1.135,0,1,0,1.605,1.605l3.367-3.367A1.135,1.135,0,0,0,25.325,305.564Z" transform="translate(-20.02 -305.231)"/>
    </g>
  </g>
  <g id="Group_1851" data-name="Group 1851" transform="translate(31.781 6.053)">
    <g id="Group_1850" data-name="Group 1850">
      <path id="Path_23786" data-name="Path 23786" d="M277.63,52.842a1.134,1.134,0,1,0,.333.8A1.144,1.144,0,0,0,277.63,52.842Z" transform="translate(-275.693 -52.509)"/>
    </g>
  </g>
</svg>
