<svg xmlns="http://www.w3.org/2000/svg" xmlns:xlink="http://www.w3.org/1999/xlink" width="62" height="62" viewBox="0 0 62 62">
  <defs>
    <clipPath id="clip-path">
      <path id="path99" d="M0-682.665H62v62H0Z" transform="translate(0 682.665)"/>
    </clipPath>
  </defs>
  <g id="g93" transform="translate(0 682.665)">
    <g id="g95" transform="translate(0 -682.665)">
      <g id="g97" clip-path="url(#clip-path)">
        <g id="g103" transform="translate(34.924 31.641)">
          <path id="path105" d="M-172.594-.851a18.343,18.343,0,0,1-8.033,1.84,18.342,18.342,0,0,1-8.033-1.84A.814.814,0,0,0-189.722.285a10.513,10.513,0,0,0,9.1,5.233,10.513,10.513,0,0,0,9.1-5.233A.814.814,0,0,0-172.594-.851Z" transform="translate(189.835 0.936)" fill="none" stroke="#000" stroke-linecap="round" stroke-linejoin="round" stroke-width="2"/>
        </g>
        <g id="g107" transform="translate(47.52 20.906)">
          <path id="path109" d="M0-37.313A3.727,3.727,0,0,1,3.727-41.04a3.727,3.727,0,0,1,3.727,3.727" transform="translate(0 41.04)" fill="none" stroke="#000" stroke-linecap="round" stroke-linejoin="round" stroke-width="2"/>
        </g>
        <g id="g111" transform="translate(33.289 20.906)">
          <path id="path113" d="M0-37.313A3.727,3.727,0,0,1,3.727-41.04a3.727,3.727,0,0,1,3.727,3.727" transform="translate(0 41.04)" fill="none" stroke="#000" stroke-linecap="round" stroke-linejoin="round" stroke-width="2"/>
        </g>
        <g id="g115" transform="translate(9.058 29.439)">
          <path id="path117" d="M0-34.948A3.727,3.727,0,0,0,5.039-33.4a3.727,3.727,0,0,0,1.548-5.039" transform="translate(0 38.439)" fill="none" stroke="#000" stroke-linecap="round" stroke-linejoin="round" stroke-width="2"/>
        </g>
        <g id="g119" transform="translate(17.009 34.091)">
          <path id="path121" d="M-127.773-2.464a10.474,10.474,0,0,0-7.177.98A10.513,10.513,0,0,0-140.536,7.4a.814.814,0,0,0,1.471.505,18.344,18.344,0,0,1,6.236-5.387A18.368,18.368,0,0,1-126.366.5Q-127.138-.944-127.773-2.464Z" transform="translate(140.537 2.71)" fill="none" stroke="#000" stroke-linecap="round" stroke-linejoin="round" stroke-width="2"/>
        </g>
        <g id="g123" transform="translate(21.632 26.265)">
          <path id="path125" d="M0,0A3.727,3.727,0,0,0,5.039,1.548a3.721,3.721,0,0,0,.989-.76" fill="none" stroke="#000" stroke-linecap="round" stroke-linejoin="round" stroke-width="2"/>
        </g>
        <g id="g127" transform="translate(27.172 8.956)">
          <path id="path129" d="M-190.994-389.277a10.123,10.123,0,0,0,5.171-2.835,33.807,33.807,0,0,0,9.669-23.715,34,34,0,0,0-.871-7.668,3.177,3.177,0,0,0-2.042-2.272,42.124,42.124,0,0,0-14.047-2.4,42.123,42.123,0,0,0-14.047,2.4A3.177,3.177,0,0,0-209.2-423.5a33.994,33.994,0,0,0-.872,7.668,33.806,33.806,0,0,0,9.67,23.715,10.123,10.123,0,0,0,5.171,2.835" transform="translate(210.073 428.163)" fill="none" stroke="#000" stroke-linecap="round" stroke-linejoin="round" stroke-width="2"/>
        </g>
        <g id="g131" transform="translate(0.908 12.798)">
          <path id="path133" d="M-107.329-52.871a42.065,42.065,0,0,0-9.876,7.91,3.177,3.177,0,0,0-.74,2.964,34,34,0,0,0,2.821,7.183,33.807,33.807,0,0,0,19.65,16.426,10.219,10.219,0,0,0,12.883-6.828c.093-.314.179-.631.263-.948a33.8,33.8,0,0,1-9.458-23.494,34,34,0,0,1,.871-7.668,3.124,3.124,0,0,1,.2-.593,3.2,3.2,0,0,0-1.67-.2,42.031,42.031,0,0,0-11.177,3.3" transform="translate(118.051 58.152)" fill="none" stroke="#000" stroke-linecap="round" stroke-linejoin="round" stroke-width="2"/>
        </g>
      </g>
    </g>
  </g>
</svg>
