<svg id="fine-arts" xmlns="http://www.w3.org/2000/svg" width="50" height="50" viewBox="0 0 48.996 59.658">
  <path id="Path_23756" data-name="Path 23756" d="M144.914,63.252a7.29,7.29,0,0,1-.266-6.735.993.993,0,0,0-1.639-1.093c-2.452,2.851-6.779,3.043-6.824,3.043a1,1,0,0,0-.916.709l-2.334,8.094L132.3,66.8a.959.959,0,0,0-.768-.177.986.986,0,0,0-.665.443l-12.613,19.91-4.5-9.925c-.015-.015-.015-.03-.03-.044a11.453,11.453,0,0,0-.96-9.172c-.783-1.3-2.88-3.249-8.463-5.125-2.762-.931-6.484-1.817-7.4-1.61a1.034,1.034,0,0,0-.827.916,1.217,1.217,0,0,0,.9,1.2c1.477.635,1.285,2.215.384,6.233-.34,1.521-.724,3.249-.975,5.155a7.367,7.367,0,0,0,2.762,6.957,9.954,9.954,0,0,0,4.195,1.891c.015.015.015.03.03.044l2.688,3.619a.2.2,0,0,1,.044.059L112.73,96.1l-9.143,14.858a.993.993,0,0,0,.177,1.255l2.452,2.26a1.021,1.021,0,0,0,.665.266h.089a.974.974,0,0,0,.694-.384l9.408-12.377,4.948,6.661a1.029,1.029,0,0,0,.724.4h.074a.937.937,0,0,0,.694-.3l2.659-2.659a1,1,0,0,0,.207-1.108l-4.372-9.659L138.74,72.926a1,1,0,0,0-.192-1.388l-.827-.62,6.986-6.41A.962.962,0,0,0,144.914,63.252ZM105.951,83.59a7.47,7.47,0,0,0,2.023-.428,9.264,9.264,0,0,0,4.653-3.8l.812,1.8c-1.019,1.639-4.106,3.53-6.144,4.239Zm-7.592-8.759c.236-1.8.606-3.486.945-4.963.546-2.481,1.063-4.741.5-6.381a41.3,41.3,0,0,1,4.121,1.182c3.781,1.3,6.307,2.777,7.149,4.18a9.505,9.505,0,0,1,.679,7.828,7.368,7.368,0,0,1-4.46,4.638A7.736,7.736,0,0,1,100.4,80,5.443,5.443,0,0,1,98.359,74.832Zm8.434,37.427-1.049-.975,8.3-13.5,1.861,2.511Zm16.173-5.745-14.43-19.452a17.148,17.148,0,0,0,5.834-3.87l9.955,21.963ZM121.1,93.25l-1.861-4.121,12.732-20.1,4.638,3.5ZM136.14,69.706l-1.507-1.137,2.348-8.168a13.511,13.511,0,0,0,5.007-1.61,9.741,9.741,0,0,0,.857,4.771Z" transform="translate(-96.064 -55.082)"/>
  <path id="Path_23757" data-name="Path 23757" d="M377.619,90.7a.994.994,0,0,0-1.388.222L374.1,93.894a.994.994,0,0,0,.222,1.388.963.963,0,0,0,.576.192,1.029,1.029,0,0,0,.812-.414l2.127-2.969A.994.994,0,0,0,377.619,90.7Z" transform="translate(-332.876 -85.28)"/>
</svg>
