<svg id="g4428" xmlns="http://www.w3.org/2000/svg" xmlns:xlink="http://www.w3.org/1999/xlink" width="50" height="50" viewBox="0 0 59.022 59.022">
  <defs>
    <clipPath id="clip-path">
      <path id="path4434" d="M0-682.665H59.022v59.022H0Z" transform="translate(0 682.665)" fill="none"/>
    </clipPath>
  </defs>
  <g id="g4430" transform="translate(0 0)">
    <g id="g4432" clip-path="url(#clip-path)">
      <g id="g4438" transform="translate(26.433 38.063)">
        <path id="path4440" d="M-65.348-32.674a3.092,3.092,0,0,1-3.092,3.092,3.092,3.092,0,0,1-3.092-3.092,3.092,3.092,0,0,1,3.092-3.092A3.092,3.092,0,0,1-65.348-32.674Z" transform="translate(71.533 35.767)" fill="none" stroke="#000" stroke-linecap="round" stroke-linejoin="round" stroke-width="2"/>
      </g>
      <g id="g4442" transform="translate(14.326 43.412)">
        <path id="path4444" d="M0,0V7.437" fill="none" stroke="#000" stroke-linecap="round" stroke-linejoin="round" stroke-width="2"/>
      </g>
      <g id="g4446" transform="translate(14.326 31.271)">
        <path id="path4448" d="M-321.2-206.861v-16.832a2.745,2.745,0,0,0-2.746-2.745h-24.908a2.746,2.746,0,0,0-2.746,2.745v5.306" transform="translate(351.6 226.438)" fill="none" stroke="#000" stroke-linecap="round" stroke-linejoin="round" stroke-width="2"/>
      </g>
      <g id="g4450" transform="translate(10.716 50.848)">
        <path id="path4452" d="M-387.524-34.694a3.4,3.4,0,0,0,.943-2.356.928.928,0,0,0-.928-.928h-35.764a.927.927,0,0,0-.927.928,3.4,3.4,0,0,0,.943,2.356" transform="translate(424.2 37.977)" fill="none" stroke="#000" stroke-linecap="round" stroke-linejoin="round" stroke-width="2"/>
      </g>
      <g id="g4454" transform="translate(0.913 54.132)">
        <path id="path4456" d="M-583.078,0h-53.17a2.013,2.013,0,0,0-2.013,2.013,2.013,2.013,0,0,0,2.013,2.013h53.17a2.013,2.013,0,0,0,2.013-2.013A2.013,2.013,0,0,0-583.078,0Z" transform="translate(638.261)" fill="none" stroke="#000" stroke-linecap="round" stroke-linejoin="round" stroke-width="2"/>
      </g>
      <g id="g4458" transform="translate(18.47 0.865)">
        <path id="path4460" d="M-233.611-61.555s0,0,0-.6a5.228,5.228,0,0,0-5.229-5.227h-9.718a2.208,2.208,0,0,0-1.953,1.179v.024a1.183,1.183,0,0,1-1.431,1.2,3.255,3.255,0,0,0-3.777,3.212v7.236a1.745,1.745,0,0,1,.283-.023h1.224a1.761,1.761,0,0,0,1.774-1.626c.006-.1,0-1.858,0-1.847a1.863,1.863,0,0,1,1.863-1.863h.4c1.779,0,2.647.965,5.6.965a11.38,11.38,0,0,0,2.592-.3h0a11,11,0,0,1,3.007-.664h.217a1.863,1.863,0,0,1,1.863,1.863c0,1.876,0,1.77,0,1.863a1.76,1.76,0,0,0,1.773,1.609h1.225a1.759,1.759,0,0,1,.283.023s0,0,0-2.9" transform="translate(255.721 67.381)" fill="none" stroke="#000" stroke-linecap="round" stroke-linejoin="round" stroke-width="2"/>
      </g>
      <g id="g4462" transform="translate(19.927 13.691)">
        <path id="path4464" d="M-.532,0h-.05l0,5.4A9.817,9.817,0,0,0,5.9,14.217h0a8.381,8.381,0,0,0,3.118.647c3.923-.044,9.47-3.556,9.6-9.464l0-5.4h-.051" transform="translate(0.583)" fill="none" stroke="#000" stroke-linecap="round" stroke-linejoin="round" stroke-width="2"/>
      </g>
      <g id="g4466" transform="translate(17.015 13.691)">
        <path id="path4468" d="M-18.357,0a1.737,1.737,0,0,0-1.737,1.737V3.663A1.737,1.737,0,0,0-18.357,5.4h1.175" transform="translate(20.095)" fill="none" stroke="#000" stroke-linecap="round" stroke-linejoin="round" stroke-width="2"/>
      </g>
      <g id="g4470" transform="translate(39.123 13.691)">
        <path id="path4472" d="M0-57.06H1.176A1.738,1.738,0,0,0,2.913-58.8v-1.925A1.738,1.738,0,0,0,1.176-62.46" transform="translate(0 62.46)" fill="none" stroke="#000" stroke-linecap="round" stroke-linejoin="round" stroke-width="2"/>
      </g>
      <g id="g4474" transform="translate(44.244 32.462)">
        <path id="path4476" d="M-73.07-228.966l2.407-2.317a4.068,4.068,0,0,0,1.072-4.111l-2.977-9.817a7.425,7.425,0,0,0-5.891-5.171l-1.527-.254" transform="translate(79.985 250.635)" fill="none" stroke="#000" stroke-linecap="round" stroke-linejoin="round" stroke-width="2"/>
      </g>
      <g id="g4478" transform="translate(4.238 32.462)">
        <path id="path4480" d="M-111.685,0l-1.527.253A7.426,7.426,0,0,0-119.1,5.425l-2.976,9.817a4.068,4.068,0,0,0,1.072,4.111l2.407,2.317" transform="translate(122.255)" fill="none" stroke="#000" stroke-linecap="round" stroke-linejoin="round" stroke-width="2"/>
      </g>
      <g id="g4482" transform="translate(34.833 26.725)">
        <path id="path4484" d="M-23.737-48.035a2.6,2.6,0,0,1-2.04-2.3l-.207-2.246" transform="translate(25.984 52.581)" fill="none" stroke="#000" stroke-linecap="round" stroke-linejoin="round" stroke-width="2"/>
      </g>
      <g id="g4486" transform="translate(21.972 26.731)">
        <path id="path4488" d="M-23.731,0l-.206,2.24a2.6,2.6,0,0,1-2.04,2.3" transform="translate(25.977)" fill="none" stroke="#000" stroke-linecap="round" stroke-linejoin="round" stroke-width="2"/>
      </g>
    </g>
  </g>
</svg>
