<svg id="layer1" xmlns="http://www.w3.org/2000/svg" width="50" height="50" viewBox="0 0 55.952 59.95">
  <path id="path8950" d="M9.053,280.6a3.01,3.01,0,0,0-3,3v4a3.016,3.016,0,0,0,3,3v2.057a9.007,9.007,0,0,0-8,8.932v2a1,1,0,0,0,1,1H37.03V323.56a1,1,0,1,0,2,0V301.58a8.978,8.978,0,0,0-8-8.932v-2.057a3.022,3.022,0,0,0,3-3v-4a3.015,3.015,0,0,0-3-3Zm0,2h21.98a.976.976,0,0,1,1,1v4a.982.982,0,0,1-1,1H9.053a.976.976,0,0,1-1-1v-4a.969.969,0,0,1,1-1Zm2,8H29.033v2.994a1,1,0,0,0,1,1,6.962,6.962,0,0,1,6.994,7v1H3.056v-1a6.967,6.967,0,0,1,7-7,1,1,0,0,0,1-1ZM2.045,306.559a1,1,0,0,0-.987,1.019V337.5a3.041,3.041,0,0,0,3,3.046h21.98a1,1,0,0,0,0-2H4.059a1,1,0,0,1-1-1.048v-6.947H24.041a1,1,0,1,0,0-2H3.056V307.578a1,1,0,0,0-1.011-1.019Zm16,2.014a1,1,0,0,0-1,1v4h-4a1,1,0,0,0-1,1v4a1,1,0,0,0,1,1h4v4a1,1,0,0,0,1,1h4a1,1,0,0,0,1-1v-4h3.989a1,1,0,0,0,1-1v-4a1,1,0,0,0-1-1H23.046v-4a1,1,0,0,0-1-1Zm1,2h2v4a1,1,0,0,0,1,1h4v2h-4a1,1,0,0,0-1,1v4h-2v-4a1,1,0,0,0-1-1h-4v-2h4a1,1,0,0,0,1-1Zm14.988,15.983a7,7,0,1,0,0,13.992H50.017a7,7,0,0,0,0-13.992Zm0,2h6.992v9.994H34.035a5,5,0,1,1,0-9.994Zm8.991,0h6.992a5,5,0,1,1,0,9.994H43.025Z" transform="translate(-1.058 -280.596)"/>
</svg>
