<svg id="maintenance" xmlns="http://www.w3.org/2000/svg" width="50" height="50" viewBox="0 0 60 59.124">
  <g id="Group_1821" data-name="Group 1821" transform="translate(0 0)">
    <g id="Group_1820" data-name="Group 1820" transform="translate(0 0)">
      <path id="Path_23767" data-name="Path 23767" d="M59.983,31.636,58.848,25.2A1.172,1.172,0,0,0,57.8,24.24l-5.353-.474a24.478,24.478,0,0,0-2.7-4.67l2.268-4.878a1.172,1.172,0,0,0-.309-1.392l-5-4.2a1.172,1.172,0,0,0-1.424-.063l-4.406,3.078a24.339,24.339,0,0,0-5.072-1.847l-1.4-5.19a1.172,1.172,0,0,0-1.132-.867H26.734a1.172,1.172,0,0,0-1.132.867l-1.4,5.19a24.346,24.346,0,0,0-5.072,1.847L14.728,8.563a1.172,1.172,0,0,0-1.424.063l-5,4.2a1.172,1.172,0,0,0-.309,1.392l2.268,4.877a24.468,24.468,0,0,0-2.7,4.671L2.2,24.239a1.172,1.172,0,0,0-1.051.964L.018,31.636A1.172,1.172,0,0,0,.676,32.9L5.55,35.18a24.469,24.469,0,0,0,.933,5.313L2.686,44.3A1.172,1.172,0,0,0,2.5,45.712L5.766,51.37a1.172,1.172,0,0,0,1.317.546l5.2-1.387A24.592,24.592,0,0,0,16.412,54l-.463,5.357a1.172,1.172,0,0,0,.767,1.2l6.139,2.234a1.172,1.172,0,0,0,1.36-.428l3.089-4.4a24.734,24.734,0,0,0,5.394,0l3.09,4.4a1.171,1.171,0,0,0,1.36.428l6.139-2.234a1.172,1.172,0,0,0,.767-1.2L43.589,54a24.6,24.6,0,0,0,4.13-3.468l5.2,1.387a1.172,1.172,0,0,0,1.317-.546L57.5,45.712a1.172,1.172,0,0,0-.185-1.414l-3.8-3.8a24.455,24.455,0,0,0,.933-5.315L59.325,32.9A1.172,1.172,0,0,0,59.983,31.636Zm-7.162,1.719a1.172,1.172,0,0,0-.675,1.022,22.118,22.118,0,0,1-1.068,6.084,1.172,1.172,0,0,0,.285,1.19l3.659,3.667-2.368,4.1-5.012-1.337a1.172,1.172,0,0,0-1.173.348A22.271,22.271,0,0,1,41.74,52.4a1.172,1.172,0,0,0-.546,1.094l.446,5.165-4.451,1.62-2.978-4.244a1.172,1.172,0,0,0-1.121-.487,22.342,22.342,0,0,1-6.18,0,1.173,1.173,0,0,0-1.121.487l-2.978,4.243-4.451-1.62.446-5.164a1.172,1.172,0,0,0-.546-1.094,22.252,22.252,0,0,1-4.729-3.972,1.172,1.172,0,0,0-1.173-.348L7.347,49.42l-2.368-4.1L8.64,41.65a1.172,1.172,0,0,0,.285-1.19,22.125,22.125,0,0,1-1.068-6.082,1.172,1.172,0,0,0-.675-1.021l-4.7-2.2L3.3,26.495l5.16-.457a1.172,1.172,0,0,0,.983-.728,22.125,22.125,0,0,1,3.093-5.347,1.172,1.172,0,0,0,.14-1.217l-2.187-4.7L14.122,11l4.249,2.968a1.172,1.172,0,0,0,1.222.073,22.006,22.006,0,0,1,5.8-2.113,1.172,1.172,0,0,0,.889-.842l1.347-5h4.736l1.346,5a1.172,1.172,0,0,0,.889.842,21.994,21.994,0,0,1,5.8,2.113,1.172,1.172,0,0,0,1.222-.073L45.879,11l3.628,3.044-2.187,4.7a1.172,1.172,0,0,0,.14,1.216,22.127,22.127,0,0,1,3.093,5.346,1.172,1.172,0,0,0,.983.728l5.161.457.822,4.664Z" transform="translate(0 -3.738)"/>
    </g>
  </g>
  <g id="Group_1823" data-name="Group 1823" transform="translate(10.147 9.699)">
    <g id="Group_1822" data-name="Group 1822">
      <path id="Path_23768" data-name="Path 23768" d="M120.484,92.32a19.863,19.863,0,1,0,5.818,14.045A19.733,19.733,0,0,0,120.484,92.32Zm-1.657,26.433a17.519,17.519,0,1,1,5.131-12.388A17.4,17.4,0,0,1,118.826,118.753Z" transform="translate(-86.585 -86.502)"/>
    </g>
  </g>
  <g id="Group_1825" data-name="Group 1825" transform="translate(23.647 13.8)">
    <g id="Group_1824" data-name="Group 1824">
      <path id="Path_23769" data-name="Path 23769" d="M208.4,121.5a15.66,15.66,0,0,0-5.86,1.025,1.172,1.172,0,1,0,.832,2.191,13.356,13.356,0,0,1,4.989-.873,1.172,1.172,0,1,0,.039-2.344Z" transform="translate(-201.789 -121.5)"/>
    </g>
  </g>
  <g id="Group_1827" data-name="Group 1827" transform="translate(32.55 14.283)">
    <g id="Group_1826" data-name="Group 1826">
      <path id="Path_23770" data-name="Path 23770" d="M279.282,125.67l-.038-.01a1.172,1.172,0,1,0-.613,2.262l.069.018a1.172,1.172,0,0,0,.582-2.27Z" transform="translate(-277.765 -125.619)"/>
    </g>
  </g>
  <g id="Group_1829" data-name="Group 1829" transform="translate(17.813 19.19)">
    <g id="Group_1828" data-name="Group 1828">
      <path id="Path_23771" data-name="Path 23771" d="M174.053,168.533a3.573,3.573,0,0,0-2.509-1.036,3.36,3.36,0,0,0-2.483,1.065l-1.477,1.58-1.788,1.853-10.12-3.083a1.172,1.172,0,0,0-1.17.293l-2.16,2.16a1.172,1.172,0,0,0,.223,1.832l7.649,4.616-1.875,1.994-2.677-.193a1.177,1.177,0,0,0-.913.34l-1.818,1.818a1.172,1.172,0,0,0,.315,1.882l3.82,1.862,1.862,3.82a1.172,1.172,0,0,0,1.882.315l1.818-1.818a1.172,1.172,0,0,0,.34-.913l-.193-2.677,1.994-1.875,4.616,7.649a1.172,1.172,0,0,0,1.832.223l2.16-2.16a1.172,1.172,0,0,0,.293-1.168l-3.065-10.126,1.516-1.48,1.9-1.784a3.371,3.371,0,0,0,1.062-2.428A3.563,3.563,0,0,0,174.053,168.533Zm-1.631,3.281-1.908,1.791-.016.016-2.033,1.985a1.172,1.172,0,0,0-.3,1.178l3.068,10.135-.605.6-4.592-7.609a1.172,1.172,0,0,0-1.806-.248l-3.457,3.251a1.172,1.172,0,0,0-.366.938l.194,2.7-.277.277L159,184.126a1.172,1.172,0,0,0-.54-.54l-2.706-1.319.277-.277,2.7.194a1.173,1.173,0,0,0,.938-.366l3.251-3.457a1.172,1.172,0,0,0-.248-1.806l-7.609-4.592.6-.6,10.134,3.088a1.172,1.172,0,0,0,1.185-.307l2.293-2.376.013-.013,1.484-1.587a1.048,1.048,0,0,1,.771-.322,1.194,1.194,0,0,1,1.2,1.218A1.045,1.045,0,0,1,172.422,171.815Z" transform="translate(-152.002 -167.497)"/>
    </g>
  </g>
</svg>
