<svg id="management_2_" data-name="management (2)" xmlns="http://www.w3.org/2000/svg" width="50" height="50" viewBox="0 0 60 60">
  <path id="Path_23710" data-name="Path 23710" d="M81.5,33V31a1,1,0,0,0,1-1V24a1,1,0,0,0-1-1H76.1l-.194-.751a18.48,18.48,0,0,0-2.04-4.886l-.4-.669L77.3,12.853a.991.991,0,0,0,0-1.4L73.053,7.2a1.015,1.015,0,0,0-1.4,0l-3.841,3.841-.669-.4A18.522,18.522,0,0,0,62.251,8.6L61.5,8.4V3a1,1,0,0,0-1-1h-6a1,1,0,0,0-1,1V8.4l-.751.194a18.517,18.517,0,0,0-4.887,2.039l-.669.4L43.353,7.2a1.014,1.014,0,0,0-1.405,0L37.7,11.447a.993.993,0,0,0,0,1.406l3.841,3.841-.4.669a18.478,18.478,0,0,0-2.04,4.886L38.9,23H33.5a1,1,0,0,0-1,1v6a1,1,0,0,0,1,1v2a3,3,0,0,1-3-3V24a3,3,0,0,1,3-3h3.869a20.421,20.421,0,0,1,1.664-3.983l-2.75-2.75a2.99,2.99,0,0,1,0-4.234l4.25-4.25a3.062,3.062,0,0,1,4.235,0l2.749,2.749A20.424,20.424,0,0,1,51.5,6.87V3a3,3,0,0,1,3-3h6a3,3,0,0,1,3,3V6.87a20.428,20.428,0,0,1,3.983,1.663l2.75-2.75a3.063,3.063,0,0,1,4.235,0l4.249,4.249a2.992,2.992,0,0,1,0,4.234l-2.75,2.75A20.5,20.5,0,0,1,77.631,21H81.5a3,3,0,0,1,3,3v6A3,3,0,0,1,81.5,33Zm0,0" transform="translate(-27.5 0)"/>
  <path id="Path_23711" data-name="Path 23711" d="M188.5,144h-2a12,12,0,1,0-24,0h-2a14,14,0,1,1,28,0Zm0,0" transform="translate(-144.5 -117)"/>
  <path id="Path_23712" data-name="Path 23712" d="M246.5,242a6,6,0,1,1,6-6A6,6,0,0,1,246.5,242Zm0-10a4,4,0,1,0,4,4A4,4,0,0,0,246.5,232Zm0,0" transform="translate(-216.5 -207)"/>
  <path id="Path_23713" data-name="Path 23713" d="M416.5,282a6,6,0,1,1,6-6A6,6,0,0,1,416.5,282Zm0-10a4,4,0,1,0,4,4A4,4,0,0,0,416.5,272Zm0,0" transform="translate(-369.5 -243)"/>
  <path id="Path_23714" data-name="Path 23714" d="M76.5,282a6,6,0,1,1,6-6A6,6,0,0,1,76.5,282Zm0-10a4,4,0,1,0,4,4A4,4,0,0,0,76.5,272Zm0,0" transform="translate(-63.5 -243)"/>
  <path id="Path_23715" data-name="Path 23715" d="M56.565,365.565A8.9,8.9,0,0,0,51.5,364h-8a8.951,8.951,0,0,0-1.451.132A8.972,8.972,0,0,0,39.6,361.59a3.886,3.886,0,0,0-.461-.3A8.93,8.93,0,0,0,34.5,360h-8a8.9,8.9,0,0,0-7.546,4.132A8.985,8.985,0,0,0,17.5,364h-8a8.9,8.9,0,0,0-5.063,1.564A9,9,0,0,0,.5,373v4a7.006,7.006,0,0,0,4.072,6.354A6.779,6.779,0,0,0,7.5,384h10v-2h-9V371h-2v10.9a4.691,4.691,0,0,1-1.089-.362A5.008,5.008,0,0,1,2.5,377v-4a7.007,7.007,0,0,1,3.066-5.786A6.916,6.916,0,0,1,9.5,366h8c.176,0,.346.019.518.03A9,9,0,0,0,17.5,369v10a5.006,5.006,0,0,0,5,5h3V368h-2v14h-1a3,3,0,0,1-3-3V369a7,7,0,0,1,7-7h8a6.988,6.988,0,0,1,3.645,1.029,2.5,2.5,0,0,1,.292.187,7.083,7.083,0,0,1,2.242,2.5A6.984,6.984,0,0,1,41.5,369v10a3,3,0,0,1-3,3h-1V368h-2v16h3a5.006,5.006,0,0,0,5-5V369a9.021,9.021,0,0,0-.517-2.97c.172-.012.342-.03.517-.03h8a6.92,6.92,0,0,1,3.937,1.216A7.009,7.009,0,0,1,58.5,373v4a5.007,5.007,0,0,1-2.928,4.546,4.6,4.6,0,0,1-1.072.354V371h-2v11h-9v2h10a6.764,6.764,0,0,0,2.911-.638A7.009,7.009,0,0,0,60.5,377v-4a9,9,0,0,0-3.934-7.434Zm0,0" transform="translate(-0.5 -323.999)"/>
  <path id="Path_23716" data-name="Path 23716" d="M260.5,580h8v2h-8Zm0,0" transform="translate(-234.5 -522)"/>
</svg>
