<svg id="maths" xmlns="http://www.w3.org/2000/svg" width="50" height="50" viewBox="0 0 60 59.658">
  <g id="Group_1788" data-name="Group 1788" transform="translate(0 0)">
    <g id="Group_1787" data-name="Group 1787">
      <path id="Path_23717" data-name="Path 23717" d="M27.3,10.428a.879.879,0,0,0,.879-.879V7.442A5.991,5.991,0,0,0,22.2,1.458H5.984A5.991,5.991,0,0,0,0,7.442V23.653a5.991,5.991,0,0,0,5.984,5.984H22.2a5.991,5.991,0,0,0,5.984-5.984V13.1a.879.879,0,1,0-1.758,0v10.55A4.231,4.231,0,0,1,22.2,27.879H5.984a4.231,4.231,0,0,1-4.226-4.226V7.442A4.231,4.231,0,0,1,5.984,3.216H22.2a4.231,4.231,0,0,1,4.226,4.226V9.549A.879.879,0,0,0,27.3,10.428Z" transform="translate(0 -1.458)"/>
    </g>
  </g>
  <g id="Group_1790" data-name="Group 1790" transform="translate(31.821 0)">
    <g id="Group_1789" data-name="Group 1789">
      <path id="Path_23718" data-name="Path 23718" d="M293.733,1.458H277.522a5.991,5.991,0,0,0-5.984,5.984V23.653a5.991,5.991,0,0,0,5.984,5.984h6.629a.879.879,0,1,0,0-1.758h-6.629a4.231,4.231,0,0,1-4.226-4.226V7.442a4.231,4.231,0,0,1,4.226-4.226h16.211a4.231,4.231,0,0,1,4.226,4.226V23.653a4.231,4.231,0,0,1-4.226,4.226h-6.028a.879.879,0,1,0,0,1.758h6.028a5.991,5.991,0,0,0,5.984-5.984V7.442A5.991,5.991,0,0,0,293.733,1.458Z" transform="translate(-271.538 -1.458)"/>
    </g>
  </g>
  <g id="Group_1792" data-name="Group 1792" transform="translate(0 31.479)">
    <g id="Group_1791" data-name="Group 1791">
      <path id="Path_23719" data-name="Path 23719" d="M22.2,270.078H5.984A5.991,5.991,0,0,0,0,276.062v16.211a5.991,5.991,0,0,0,5.984,5.984h7.746a.879.879,0,0,0,0-1.758H5.984a4.231,4.231,0,0,1-4.226-4.226V276.062a4.231,4.231,0,0,1,4.226-4.226H22.2a4.231,4.231,0,0,1,4.226,4.226v16.211A4.231,4.231,0,0,1,22.2,296.5h-4.91a.879.879,0,0,0,0,1.758H22.2a5.991,5.991,0,0,0,5.984-5.984V276.062A5.991,5.991,0,0,0,22.2,270.078Z" transform="translate(0 -270.078)"/>
    </g>
  </g>
  <g id="Group_1794" data-name="Group 1794" transform="translate(31.821 31.479)">
    <g id="Group_1793" data-name="Group 1793">
      <path id="Path_23720" data-name="Path 23720" d="M293.733,270.078H277.522a5.991,5.991,0,0,0-5.984,5.984v16.211a5.991,5.991,0,0,0,5.984,5.984h16.211a5.991,5.991,0,0,0,5.984-5.984V276.062A5.991,5.991,0,0,0,293.733,270.078Zm4.226,22.2a4.231,4.231,0,0,1-4.226,4.226H277.522a4.231,4.231,0,0,1-4.226-4.226V276.062a4.231,4.231,0,0,1,4.226-4.226h16.211a4.231,4.231,0,0,1,4.226,4.226Z" transform="translate(-271.538 -270.078)"/>
    </g>
  </g>
  <g id="Group_1796" data-name="Group 1796" transform="translate(9.498 9.498)">
    <g id="Group_1795" data-name="Group 1795">
      <path id="Path_23721" data-name="Path 23721" d="M89.353,86.22H86.52V83.386a.879.879,0,0,0-1.758,0V86.22H81.928a.879.879,0,0,0,0,1.758h2.834v2.834a.879.879,0,1,0,1.758,0V87.978h2.834a.879.879,0,0,0,0-1.758Z" transform="translate(-81.049 -82.507)"/>
    </g>
  </g>
  <g id="Group_1798" data-name="Group 1798" transform="translate(41.2 13.211)">
    <g id="Group_1797" data-name="Group 1797">
      <path id="Path_23722" data-name="Path 23722" d="M359.88,114.19h-7.426a.879.879,0,0,0,0,1.758h7.426a.879.879,0,1,0,0-1.758Z" transform="translate(-351.576 -114.19)"/>
    </g>
  </g>
  <g id="Group_1800" data-name="Group 1800" transform="translate(10.585 41.38)">
    <g id="Group_1799" data-name="Group 1799">
      <path id="Path_23723" data-name="Path 23723" d="M95.075,358.075l2-2a.879.879,0,1,0-1.243-1.243l-2,2-2-2a.879.879,0,0,0-1.243,1.243l2,2-2,2a.879.879,0,1,0,1.243,1.243l2-2,2,2a.879.879,0,0,0,1.243-1.243Z" transform="translate(-90.328 -354.571)"/>
    </g>
  </g>
  <g id="Group_1802" data-name="Group 1802" transform="translate(41.2 42.389)">
    <g id="Group_1801" data-name="Group 1801">
      <path id="Path_23724" data-name="Path 23724" d="M359.88,363.18h-7.426a.879.879,0,0,0,0,1.758h7.426a.879.879,0,1,0,0-1.758Z" transform="translate(-351.576 -363.18)"/>
    </g>
  </g>
  <g id="Group_1804" data-name="Group 1804" transform="translate(41.2 45.622)">
    <g id="Group_1803" data-name="Group 1803">
      <path id="Path_23725" data-name="Path 23725" d="M359.88,390.767h-7.426a.879.879,0,0,0,0,1.758h7.426a.879.879,0,1,0,0-1.758Z" transform="translate(-351.576 -390.767)"/>
    </g>
  </g>
</svg>
