<svg id="Network" xmlns="http://www.w3.org/2000/svg" width="50" height="50" viewBox="0 0 59.031 59.023">
  <path id="Path_23772" data-name="Path 23772" d="M54.306,24.8a5.711,5.711,0,0,0-5.628,4.777c-.03,0-.054-.017-.084-.017h-1.9c-.017,0-.031.009-.048.01a16.093,16.093,0,0,0-4.06-9.793c.007-.007.015-.008.021-.014l3.808-3.808a.923.923,0,0,0,.2-.3,3.821,3.821,0,1,0-1.25-1.246.923.923,0,0,0-.3.2l-3.808,3.808c-.007.006-.008.014-.014.021a16.093,16.093,0,0,0-9.789-4.06c0-.016.01-.03.01-.048V10.519a.786.786,0,0,0-.019-.1,4.759,4.759,0,1,0-1.866,0,.786.786,0,0,0-.019.1v3.808c0,.017.009.031.01.048a16.093,16.093,0,0,0-9.793,4.06c-.007-.007-.008-.015-.014-.021L11.192,9.846a.923.923,0,0,0-.3-.2A3.821,3.821,0,1,0,9.65,10.9a.923.923,0,0,0,.2.3l8.567,8.567c.006.007.014.008.021.014a16.093,16.093,0,0,0-4.06,9.789c-.016,0-.03-.01-.048-.01h-1.9c-.03,0-.054.014-.084.017a5.711,5.711,0,1,0,0,1.87c.03,0,.054.017.084.017h1.9c.017,0,.031-.009.048-.01a16.087,16.087,0,0,0,4.007,9.734.885.885,0,0,0,.165.183,16.127,16.127,0,0,0,11.021,5.275c0,.016-.01.03-.01.048V50.5a.786.786,0,0,0,.019.1,4.759,4.759,0,1,0,1.866,0,.786.786,0,0,0,.019-.1V46.691c0-.017-.009-.031-.01-.048a16.093,16.093,0,0,0,9.793-4.06c.007.007.008.015.014.021l3.808,3.808a.923.923,0,0,0,.3.2,3.821,3.821,0,1,0,1.246-1.25.923.923,0,0,0-.2-.3L42.6,41.254h0c.016-.021.022-.048.036-.07a16.087,16.087,0,0,0,4-9.733c.016,0,.03.01.048.01h1.9c.03,0,.054-.014.084-.017A5.711,5.711,0,1,0,54.306,24.8ZM48.594,10.519a1.9,1.9,0,1,1-1.9,1.9A1.9,1.9,0,0,1,48.594,10.519ZM7.663,9.567a1.9,1.9,0,1,1,1.9-1.9A1.9,1.9,0,0,1,7.663,9.567ZM6.711,34.316a3.808,3.808,0,1,1,3.808-3.808A3.808,3.808,0,0,1,6.711,34.316ZM48.594,46.691a1.9,1.9,0,1,1-1.9,1.9A1.9,1.9,0,0,1,48.594,46.691ZM27.653,5.759a2.856,2.856,0,1,1,2.856,2.856A2.856,2.856,0,0,1,27.653,5.759Zm5.711,49.5A2.856,2.856,0,1,1,30.508,52.4,2.856,2.856,0,0,1,33.364,55.258ZM30.508,44.787A14.224,14.224,0,0,1,20.172,40.33a10.494,10.494,0,0,1,7.7-8.9.952.952,0,0,0,.221-1.771,4.123,4.123,0,0,1-2.344-3.915,4.759,4.759,0,1,1,9.519,0,4.123,4.123,0,0,1-2.344,3.915.952.952,0,0,0,.221,1.771,10.494,10.494,0,0,1,7.7,8.9,14.224,14.224,0,0,1-10.337,4.457Zm11.879-6.369a12.454,12.454,0,0,0-6.961-8.227,6.013,6.013,0,0,0,1.746-4.442,6.663,6.663,0,1,0-13.326,0,6.013,6.013,0,0,0,1.746,4.442,12.454,12.454,0,0,0-6.961,8.227,14.278,14.278,0,1,1,23.757,0Zm11.919-4.1a3.808,3.808,0,1,1,3.808-3.808A3.808,3.808,0,0,1,54.306,34.316Z" transform="translate(-0.993 -0.997)"/>
  <path id="Path_23773" data-name="Path 23773" d="M12.8,49.279,8.99,53.086a.923.923,0,0,0-.2.3,3.821,3.821,0,1,0,1.25,1.246.923.923,0,0,0,.3-.2l3.808-3.808A.952.952,0,1,0,12.8,49.279Zm-5.99,9.24a1.9,1.9,0,1,1,1.9-1.9A1.9,1.9,0,0,1,6.808,58.519Z" transform="translate(-1.089 -3.306)"/>
  <path id="Path_23774" data-name="Path 23774" d="M17.183,45.279l-1.9,1.9a.952.952,0,1,0,1.346,1.346l1.9-1.9a.952.952,0,1,0-1.346-1.346Z" transform="translate(-1.667 -3.114)"/>
  <path id="Path_23775" data-name="Path 23775" d="M55.952,8.808a.952.952,0,0,0,.673-.279l1.9-1.9a.952.952,0,1,0-1.346-1.346l-1.9,1.9a.952.952,0,0,0,.673,1.625Z" transform="translate(-3.591 -1.19)"/>
</svg>
