<svg id="nurse" xmlns="http://www.w3.org/2000/svg" width="50" height="50" viewBox="0 0 51.39 60">
  <g id="Group_1807" data-name="Group 1807" transform="translate(23.276 2.23)">
    <g id="Group_1806" data-name="Group 1806">
      <path id="Path_23758" data-name="Path 23758" d="M239.319,20.569h-.667V19.9a.876.876,0,0,0-1.752,0v.667h-.667a.876.876,0,1,0,0,1.752h.667v.667a.876.876,0,1,0,1.752,0v-.667h.667a.876.876,0,0,0,0-1.752Z" transform="translate(-235.357 -19.026)"/>
    </g>
  </g>
  <g id="Group_1809" data-name="Group 1809" transform="translate(0 0)">
    <g id="Group_1808" data-name="Group 1808" transform="translate(0 0)">
      <path id="Path_23759" data-name="Path 23759" d="M88.089,57l-2.56-14.99a4.3,4.3,0,0,0-3.01-3.408L71.024,35.137a1.91,1.91,0,0,0-1.47.152,2.217,2.217,0,0,1-.706-1.562V30.858l.089-.077.139-.122H70.2a5.6,5.6,0,0,0,5.587-5.952l-.312-4.929V19.7a2.64,2.64,0,0,0-.03-.4l-.349-5.52a.876.876,0,1,0-1.749.111l.207,3.266a2.633,2.633,0,0,0-.718-.1h-.049a1.584,1.584,0,0,0-1.187-.706c-9.094-.818-11.713-3.534-13.625-5.518-.4-.412-1.049-.444-1.937-.094a6.773,6.773,0,0,0-4.228,6.085s0,.01,0,.014v.226a2.629,2.629,0,0,0-.506.092l.27-4.269a7.361,7.361,0,0,1,3.111-5.583l.066.173a3.007,3.007,0,0,0,2.793,1.921h10a3.008,3.008,0,0,0,2.793-1.921l.015-.04a7.387,7.387,0,0,1,2.224,2.72.876.876,0,0,0,1.58-.757A9.131,9.131,0,0,0,71,5.756l.6-1.577A2.178,2.178,0,0,0,70,1.266L64.974.245a12.134,12.134,0,0,0-4.858,0L55.088,1.266a2.178,2.178,0,0,0-1.6,2.913l.557,1.456a9.1,9.1,0,0,0-4.217,7.15l-.415,6.558a2.634,2.634,0,0,0-.028.361v.074l-.312,4.929a5.6,5.6,0,0,0,5.587,5.952h1.126l.139.122.089.077v2.869a2.216,2.216,0,0,1-.706,1.562,1.909,1.909,0,0,0-1.47-.152L42.343,38.6a4.3,4.3,0,0,0-3.01,3.408l-.962,5.631a.876.876,0,0,0,1.727.295l.962-5.631a2.553,2.553,0,0,1,1.789-2.026l11.494-3.468a.162.162,0,0,1,.191.082h0l5.488,10.842a2.7,2.7,0,0,0,4.817,0L70.327,36.9a.161.161,0,0,1,.191-.082l11.494,3.468A2.553,2.553,0,0,1,83.8,42.307l2.56,14.99a.813.813,0,0,1-.8.95H80.133L78.7,49.865a.876.876,0,1,0-1.727.295l1.382,8.088H46.506l1.382-8.088a.876.876,0,1,0-1.727-.295l-1.432,8.383H39.3a.813.813,0,0,1-.8-.95l.891-5.218a.876.876,0,0,0-1.727-.295L36.773,57A2.565,2.565,0,0,0,39.3,60H85.561a2.565,2.565,0,0,0,2.528-3ZM55.148,3.2a.421.421,0,0,1,.289-.212l5.028-1.021a10.4,10.4,0,0,1,4.16,0l5.028,1.021h0a.426.426,0,0,1,.313.57L68.7,6.86a1.245,1.245,0,0,1-1.156.8h-10a1.245,1.245,0,0,1-1.156-.8L55.124,3.553A.421.421,0,0,1,55.148,3.2ZM74.041,24.818A3.849,3.849,0,0,1,70.8,28.862a9.746,9.746,0,0,0,2.176-4.567,2.617,2.617,0,0,0,1.017-.264ZM51.855,27.693a3.809,3.809,0,0,1-1.034-2.875l.05-.787a2.619,2.619,0,0,0,1.017.264,9.746,9.746,0,0,0,2.176,4.567A3.8,3.8,0,0,1,51.855,27.693ZM63.386,46.73l-.11.217a1,1,0,0,1-.052.088c-.006.009-.011.019-.017.028s-.024.03-.036.045a.94.94,0,0,1-.139.146c-.011.009-.023.016-.034.024a.949.949,0,0,1-1.412-.332l-3.638-7.189h8.967ZM67.8,38.006H57.06l-.677-1.337a3.955,3.955,0,0,0,1.382-2.942V32.215a8.384,8.384,0,0,0,4.655,1.333h.019A8.385,8.385,0,0,0,67.1,32.215v1.512a3.955,3.955,0,0,0,1.382,2.942Zm-.008-8.552c-1.62,1.4-2.869,2.312-5.363,2.342-2.494-.03-3.743-.947-5.363-2.342-2.151-1.852-3.46-4.114-3.5-6.05a.876.876,0,0,0-.876-.857h-.667a.888.888,0,0,1-.887-.887V19.7a.886.886,0,0,1,.009-.12c0-.013,0-.027.006-.04a.888.888,0,0,1,.872-.727h.664a.876.876,0,0,0,.876-.876V16.855a5.009,5.009,0,0,1,3.376-4.566c2.569,2.621,5.727,5,14.371,5.8a.876.876,0,0,0,.863.725h.664a.888.888,0,0,1,.872.727c0,.014,0,.027.006.04a.886.886,0,0,1,.009.12v1.954a.888.888,0,0,1-.887.887h-.667a.876.876,0,0,0-.876.857C71.254,25.34,69.945,27.6,67.794,29.453Z" transform="translate(-36.736 0)"/>
    </g>
  </g>
</svg>
