<svg id="Outline_43_" xmlns="http://www.w3.org/2000/svg" width="50" height="50" viewBox="0 0 59.5 59.5">
  <g id="Group_1805" data-name="Group 1805" transform="translate(0)">
    <path id="Path_23726" data-name="Path 23726" d="M56.764,0H2.736A2.739,2.739,0,0,0,0,2.736V22.389a.873.873,0,0,0,1.747,0V6.4h46.2a.873.873,0,0,0,0-1.747H1.747V2.736a.991.991,0,0,1,.99-.99H56.764a.991.991,0,0,1,.99.99V4.658H52.187a.873.873,0,1,0,0,1.747h5.566V39.123H1.747V26.41A.873.873,0,0,0,0,26.41V43.723a2.739,2.739,0,0,0,2.736,2.736H23.288v6.084l-4.233,2.54a.873.873,0,0,0-.424.749v2.795a.873.873,0,0,0,.873.873H40a.873.873,0,0,0,.873-.873V55.832a.873.873,0,0,0-.424-.749l-4.233-2.54V46.459H56.764A2.739,2.739,0,0,0,59.5,43.723V2.736A2.739,2.739,0,0,0,56.764,0ZM39.123,57.753H20.377V56.327l3.71-2.226a9.626,9.626,0,0,0,5.663,1.674A9.626,9.626,0,0,0,35.413,54.1l3.71,2.226Zm-4.658-5.121a7.766,7.766,0,0,1-4.716,1.395,7.765,7.765,0,0,1-4.716-1.394V46.459h9.432Zm23.288-8.91a.991.991,0,0,1-.99.99H2.736a.991.991,0,0,1-.99-.99V40.87H57.753Z" transform="translate(0)"/>
    <path id="Path_23727" data-name="Path 23727" d="M138.408,100.76a.873.873,0,0,0,.873-.873V72.873a.873.873,0,0,0-.873-.873H104.873a.873.873,0,0,0-.873.873V99.887a.873.873,0,0,0,.873.873Zm-32.661-1.747V79.336h31.788V99.014Zm0-25.267h31.788v3.842H105.747Z" transform="translate(-91.89 -63.616)"/>
    <circle id="Ellipse_43" data-name="Ellipse 43" cx="0.932" cy="0.932" r="0.932" transform="translate(41.86 11.12)"/>
    <circle id="Ellipse_44" data-name="Ellipse 44" cx="0.932" cy="0.932" r="0.932" transform="translate(38.134 11.12)"/>
    <circle id="Ellipse_45" data-name="Ellipse 45" cx="0.932" cy="0.932" r="0.932" transform="translate(34.408 11.12)"/>
    <path id="Path_23728" data-name="Path 23728" d="M157.217,176.256a.873.873,0,0,0-1.235,0l-3.726,3.726a.873.873,0,0,0,0,1.235l3.726,3.726a.873.873,0,0,0,1.235-1.235l-3.109-3.108,3.109-3.108A.874.874,0,0,0,157.217,176.256Z" transform="translate(-134.302 -155.507)"/>
    <path id="Path_23729" data-name="Path 23729" d="M313.491,176.256a.873.873,0,1,0-1.235,1.235l3.109,3.108-3.109,3.108a.873.873,0,0,0,1.235,1.235l3.726-3.726a.873.873,0,0,0,0-1.235Z" transform="translate(-275.671 -155.507)"/>
    <path id="Path_23730" data-name="Path 23730" d="M223.729,176.256l-7.452,7.452a.873.873,0,0,0,1.235,1.235l7.452-7.452a.873.873,0,0,0-1.235-1.235Z" transform="translate(-190.871 -155.508)"/>
  </g>
</svg>
