<svg id="paramedic" xmlns="http://www.w3.org/2000/svg" width="50" height="50" viewBox="0 0 49.296 60">
  <path id="Path_23707" data-name="Path 23707" d="M.3,24.418v31.1A4.487,4.487,0,0,0,4.782,60H18.909a4.485,4.485,0,0,0,4.413-3.732h3.252A4.485,4.485,0,0,0,30.989,60H45.116A4.487,4.487,0,0,0,49.6,55.517v-31.1a8.035,8.035,0,0,0-1.666-5,16.019,16.019,0,0,1-3.115-9.83,18.088,18.088,0,0,1,.611-4.71,3.877,3.877,0,0,0-.66-3.394A3.773,3.773,0,0,0,41.747,0H37.058a.747.747,0,0,0-.3.058l-.006,0h0c-14.281,5.975-23.4.123-23.491.064A.614.614,0,0,0,13.2.1a.683.683,0,0,0-.132-.054.725.725,0,0,0-.155-.032c-.022,0-.042-.013-.064-.013H8.15A3.774,3.774,0,0,0,5.132,1.486a3.88,3.88,0,0,0-.66,3.395,18.089,18.089,0,0,1,.611,4.71,16.019,16.019,0,0,1-3.115,9.83,8.034,8.034,0,0,0-1.666,5ZM21.891,49.45H1.8V41.256H21.891ZM18.909,58.5H4.782A2.986,2.986,0,0,1,1.8,55.517V50.95H21.891v4.567A2.986,2.986,0,0,1,18.909,58.5ZM48.1,49.45H28.007V41.256H48.1ZM45.116,58.5H30.989a2.986,2.986,0,0,1-2.982-2.982V50.95H48.1v4.567A2.986,2.986,0,0,1,45.116,58.5Zm-3.369-57a2.285,2.285,0,0,1,1.828.9,2.39,2.39,0,0,1,.4,2.091,19.59,19.59,0,0,0-.663,5.1,17.536,17.536,0,0,0,3.441,10.763A6.531,6.531,0,0,1,48.1,24.418V39.756H28.007V17.91a4.329,4.329,0,0,1,2.41-3.941c4.524-2.124,7.346-8.084,7.413-12.469ZM24.124,4.288A33.637,33.637,0,0,0,36.31,1.844c-.207,3.906-2.775,9-6.531,10.767a5.834,5.834,0,0,0-3.272,5.3V54.767H23.391V17.91a5.833,5.833,0,0,0-3.272-5.3c-3.7-1.737-6.248-6.709-6.524-10.59A23.863,23.863,0,0,0,24.124,4.288ZM6.582,9.591a19.59,19.59,0,0,0-.663-5.1,2.389,2.389,0,0,1,.4-2.091A2.284,2.284,0,0,1,8.15,1.5h3.918c.067,4.386,2.888,10.345,7.412,12.469a4.328,4.328,0,0,1,2.41,3.941V39.756H1.8V24.418a6.529,6.529,0,0,1,1.341-4.063A17.536,17.536,0,0,0,6.582,9.591Zm0,0" transform="translate(-0.301 0.001)"/>
  <path id="Path_23708" data-name="Path 23708" d="M212.336,153.13v4.693a.75.75,0,0,0,.75.75h2.845v2.844a.75.75,0,0,0,.75.75h4.694a.75.75,0,0,0,.75-.75v-2.844h2.845a.75.75,0,0,0,.75-.75V153.13a.75.75,0,0,0-.75-.75h-2.845v-2.844a.75.75,0,0,0-.75-.75h-4.694a.75.75,0,0,0-.75.75v2.844h-2.845A.75.75,0,0,0,212.336,153.13Zm1.5.75h2.845a.75.75,0,0,0,.75-.75v-2.845h3.193v2.845a.75.75,0,0,0,.75.75h2.844v3.193h-2.844a.75.75,0,0,0-.75.75v2.845h-3.193v-2.845a.75.75,0,0,0-.75-.75h-2.845Zm0,0" transform="translate(-181.276 -126.99)"/>
</svg>
