<svg id="sketch" xmlns="http://www.w3.org/2000/svg" width="50" height="50" viewBox="0 0 59.124 58.935">
  <g id="Group_1853" data-name="Group 1853" transform="translate(41.631 41.563)">
    <g id="Group_1852" data-name="Group 1852">
      <path id="Path_23789" data-name="Path 23789" d="M371.2,360.815a.868.868,0,0,0-.946.188l-9.484,9.484a.868.868,0,0,0,.614,1.481h9.484a.868.868,0,0,0,.868-.868v-9.484A.868.868,0,0,0,371.2,360.815Zm-7.721,9.418L370,363.712v6.521Z" transform="translate(-360.517 -360.749)"/>
    </g>
  </g>
  <g id="Group_1855" data-name="Group 1855" transform="translate(0 0)">
    <g id="Group_1854" data-name="Group 1854" transform="translate(0 0)">
      <path id="Path_23790" data-name="Path 23790" d="M58.588,28.54a.868.868,0,0,0-.946.188l-2.6,2.6V13.655a.868.868,0,0,0-.868-.868H47.508l2.42-2.42h0l2.332-2.332a2.646,2.646,0,0,0,0-3.742l-2.7-2.7a2.647,2.647,0,0,0-3.742,0L43.489,3.928,40.67,6.748l-6.04,6.04H7.693V4.2a.868.868,0,0,0-.868-.868A6.833,6.833,0,0,0,0,10.16V47.018a.87.87,0,0,0,.021.187,6.573,6.573,0,0,0,6.553,6.074H33.092L28.1,58.273a.868.868,0,0,0,.614,1.481H58.256a.868.868,0,0,0,.868-.868V29.342A.868.868,0,0,0,58.588,28.54ZM47.05,2.822a.911.911,0,0,1,1.287,0l2.7,2.7a.911.911,0,0,1,0,1.288l-1.72,1.72L45.33,4.542ZM44.1,5.769l3.985,3.984L46.5,11.346,42.511,7.362ZM57.389,39.093h-1.6a.868.868,0,0,0,0,1.736h1.6v2.615h-1.6a.868.868,0,0,0,0,1.736h1.6v2.615h-1.6a.868.868,0,0,0,0,1.736h1.6v2.615h-1.6a.868.868,0,1,0,0,1.736h1.6v4.139H30.806l8.766-8.765a.868.868,0,0,0-1.227-1.227l-3.517,3.517H6.574A4.811,4.811,0,0,1,1.74,46.861q.007-.247.038-.49v0q.015-.115.035-.229l0-.026q.018-.1.041-.2l.013-.056q.02-.085.043-.17c.008-.03.017-.061.026-.091s.026-.088.04-.132.029-.087.044-.13.021-.06.032-.09c.021-.057.044-.113.067-.169l.02-.048c.03-.069.061-.138.093-.205l0-.009A5.109,5.109,0,0,1,5.79,42.035l.013,0c.072-.015.144-.027.217-.039l.037-.006c.066-.01.133-.018.2-.025l.056-.007c.064-.006.129-.011.194-.015l.062,0q.127-.006.257-.006a.868.868,0,0,0,.868-.868V34.769a.868.868,0,1,0-1.736,0v5.479a6.778,6.778,0,0,0-3.9,1.886c-.113.11-.22.225-.324.341V10.16A5.1,5.1,0,0,1,5.957,5.144V31.3h0a.868.868,0,1,0,1.736,0h0V14.523h25.2l-4.8,4.8a.868.868,0,1,0,1.227,1.227L35.6,14.269h0l5.68-5.68,3.984,3.985-.467.467h0L27.3,30.54l-3.984-3.984,3.449-3.449a.868.868,0,1,0-1.227-1.227l-4.063,4.063a.872.872,0,0,0-.061.068l-.018.024c-.012.016-.024.033-.035.05l-.018.03c-.01.016-.019.033-.027.049L21.3,26.2c-.008.017-.015.034-.021.052l-.008.018-1.691,4.789-1.153,3.266a.877.877,0,0,0-.034.132H15.508a.868.868,0,0,0,0,1.736H39.54a.868.868,0,0,0,0-1.736H22.3l5.292-1.868.013-.005.061-.025.024-.011c.021-.01.041-.022.061-.034l.02-.012c.021-.013.041-.028.061-.044l.015-.011a.871.871,0,0,0,.07-.063L45.772,14.523h7.535V33.063L40.895,45.476a.868.868,0,0,0,0,1.227.885.885,0,0,0,.066.06.867.867,0,0,0,1.161-.06h0L57.389,31.436ZM25.714,31.407l-2.486.878-1.656-1.656.878-2.486Z" transform="translate(0 -0.82)"/>
    </g>
  </g>
</svg>
