<svg id="technology_2_" data-name="technology (2)" xmlns="http://www.w3.org/2000/svg" width="50" height="50" viewBox="0 0 60 60">
  <g id="Page-1_17_" transform="translate(0 0)">
    <g id="_x30_19---Technology-Engineering" transform="translate(0 0)">
      <path id="Shape_65_" d="M2.486,25.754a2.8,2.8,0,0,0-2.33,2.415A25.877,25.877,0,0,0,.15,33.788a2.818,2.818,0,0,0,2.338,2.465l3.182.521A24.581,24.581,0,0,0,8.723,44.13L6.85,46.746a2.806,2.806,0,0,0,.044,3.389,26.764,26.764,0,0,0,1.9,2.089c.614.615,1.293,1.233,2.108,1.918a2.792,2.792,0,0,0,3.352.039L16.883,52.3a24.571,24.571,0,0,0,7.35,3.054l.522,3.187a2.8,2.8,0,0,0,2.415,2.331c.57.064,1.149.109,1.732.133h.085a2.034,2.034,0,0,0,1.4-.56A1.983,1.983,0,0,0,31,59V50.988a2.008,2.008,0,0,0-1.921-1.995,18.015,18.015,0,0,1,0-35.981,2.009,2.009,0,0,0,1.921-2V3a2.008,2.008,0,0,0-2.093-2c-.582.023-1.159.065-1.751.125a2.789,2.789,0,0,0-2.4,2.342l-.521,3.184a24.579,24.579,0,0,0-7.35,3.055L14.256,7.827a2.8,2.8,0,0,0-3.377.054A27.23,27.23,0,0,0,8.8,9.77a24.183,24.183,0,0,0-1.918,2.11,2.8,2.8,0,0,0-.048,3.364l1.885,2.632A24.564,24.564,0,0,0,5.67,25.232Zm4.993.558a22.652,22.652,0,0,1,3.286-7.918,1,1,0,0,0-.023-1.133L8.461,14.076a.8.8,0,0,1-.015-.946,22.036,22.036,0,0,1,1.761-1.935,25.646,25.646,0,0,1,1.91-1.744.8.8,0,0,1,.97,0l3.18,2.282a1,1,0,0,0,1.133.021,22.614,22.614,0,0,1,7.913-3.287,1,1,0,0,0,.785-.818L26.727,3.8a.793.793,0,0,1,.654-.679C27.91,3.064,28.446,3.025,29,3l-.022,8.011A20.013,20.013,0,0,0,29,50.988L28.986,59q-.806-.033-1.594-.123a.785.785,0,0,1-.664-.668l-.63-3.853a1,1,0,0,0-.785-.818A22.62,22.62,0,0,1,17.4,50.252a1,1,0,0,0-1.133.022l-3.183,2.284a.786.786,0,0,1-.931.025c-.735-.619-1.372-1.2-1.946-1.773A25.264,25.264,0,0,1,8.464,48.9a.811.811,0,0,1,0-.972l2.279-3.182a1,1,0,0,0,.022-1.133A22.642,22.642,0,0,1,7.479,35.7a1,1,0,0,0-.817-.785l-3.85-.631a.81.81,0,0,1-.673-.711A23.649,23.649,0,0,1,2.145,28.4a.786.786,0,0,1,.667-.666l3.849-.63a1,1,0,0,0,.818-.789Z" transform="translate(0 -1)"/>
      <path id="Shape_64_" d="M184.743,46.171a3,3,0,0,0-2.816,2H158.743v-3h16a3,3,0,0,0,3-3V36.987a3,3,0,1,0-2,0v5.184a1,1,0,0,1-1,1h-16v-3h11a1,1,0,0,0,0-2h-11v-2h6a3,3,0,0,0,3-3V26.987a3,3,0,1,0-2,0v6.184a1,1,0,0,1-1,1h-6.264a1.848,1.848,0,0,0-1.755-.968,16,16,0,0,0,0,31.936h.117a1.844,1.844,0,0,0,1.638-.968h6.264a1,1,0,0,1,1,1v6.184a3,3,0,1,0,2,0V65.171a3,3,0,0,0-3-3h-6v-2h11a1,1,0,0,0,0-2h-11v-3h16a1,1,0,0,1,1,1v5.184a3,3,0,1,0,2,0V56.171a3,3,0,0,0-3-3h-16v-3h23.184a2.995,2.995,0,1,0,2.816-4Zm-8-13a1,1,0,1,1-1,1A1,1,0,0,1,176.743,33.171Zm-10-10a1,1,0,1,1-1,1A1,1,0,0,1,166.743,23.171Zm0,52a1,1,0,1,1,1-1A1,1,0,0,1,166.743,75.171Zm10-10a1,1,0,1,1,1-1A1,1,0,0,1,176.743,65.171Zm-33-16a14.017,14.017,0,0,1,13-13.964V63.135A14.017,14.017,0,0,1,143.744,49.171Zm41,1a1,1,0,1,1,1-1A1,1,0,0,1,184.743,50.171Z" transform="translate(-127.744 -19.169)"/>
    </g>
  </g>
</svg>
