<svg xmlns="http://www.w3.org/2000/svg" width="144.28" height="232.242" viewBox="0 0 144.28 232.242">
  <g id="Group_441" data-name="Group 441" transform="translate(154.792 215.544) rotate(171)">
    <path id="Path_23671" data-name="Path 23671" d="M62.473,11.347a13.668,13.668,0,0,0-.983-1.721,21.182,21.182,0,0,0-3.36-3.882,20.476,20.476,0,0,0-2.807-2.161,24,24,0,0,0-3.664-1.862c-.695-.277-1.428-.527-2.2-.76A21.272,21.272,0,0,0,47.04.419C46.187.277,45.3.163,44.369.093A20.032,20.032,0,0,0,41.448.028,46.482,46.482,0,0,0,36.47.571C34.83.9,33.186,1.309,31.514,1.76c-.836.217-1.656.494-2.47.771s-1.634.554-2.465.831-1.672.532-2.481.858q-1.23.448-2.459.912c-.836.288-1.667.575-2.519.847-.836.288-1.656.608-2.508.874-.836.277-1.694.532-2.562.776q-1.3.342-2.627.706a47,47,0,0,1-5.5,1.037A41.8,41.8,0,0,1,0,9.832a9.269,9.269,0,0,0,1.927,1.3,18.6,18.6,0,0,0,5.906,1.895,31.431,31.431,0,0,0,4.506.38c.831.011,1.721-.011,2.638-.081.456-.033.928-.081,1.411-.125s1-.092,1.515-.152c1.031-.119,2.1-.3,3.214-.51.548-.125,1.124-.239,1.71-.358s1.2-.244,1.813-.391c1.238-.288,2.508-.624,3.844-1.021,1.363-.364,2.774-.782,4.251-1.254,1.232-.44,2.465-.717,3.61-1.021,1.156-.288,2.242-.543,3.279-.76,2.112-.369,3.974-.624,5.657-.787,1.71-.092,3.214-.1,4.555-.065A25.513,25.513,0,0,1,56.3,8.041a15.554,15.554,0,0,1,2.334.993,37.81,37.81,0,0,1,3.838,2.313" transform="translate(44.266 0)" fill="#ffbf3a"/>
    <path id="Path_23672" data-name="Path 23672" d="M54.189,4.354a12.672,12.672,0,0,0-1.477-1.107,19.832,19.832,0,0,0-4.289-2.117A22.2,22.2,0,0,0,41.5,0,23.379,23.379,0,0,0,37.17.461a23.772,23.772,0,0,0-2.383.586c-.793.255-1.612.57-2.454.923-.684.293-1.363.6-2.036.939a20.351,20.351,0,0,0-1.965,1.107c-1.292.776-2.557,1.639-3.811,2.53-1.243.923-2.437,1.895-3.67,2.866-1.249.95-2.427,1.976-3.654,2.969a74.467,74.467,0,0,1-7.779,5.64A41.408,41.408,0,0,1,0,22.469a8.73,8.73,0,0,0,2.057.586,15.79,15.79,0,0,0,2.432.233,21.838,21.838,0,0,0,3.279-.223,24.113,24.113,0,0,0,4.017-.923c.727-.228,1.477-.5,2.258-.82.793-.3,1.618-.657,2.465-1.053q1.27-.619,2.606-1.384c.879-.521,1.851-1.048,2.817-1.672.972-.6,1.949-1.287,2.98-2.025,1.053-.717,2.128-1.5,3.236-2.378.472-.358.917-.727,1.39-1.053s.923-.635,1.363-.945c.89-.613,1.743-1.167,2.551-1.688C35.091,8.1,36.633,7.312,38,6.618c.353-.174.684-.326,1.01-.494.337-.13.679-.277.993-.418.635-.244,1.249-.483,1.835-.679a23.265,23.265,0,0,1,3.192-.9,20.577,20.577,0,0,1,5.032-.364,31.191,31.191,0,0,1,4.126.592" transform="translate(17.79 20.945)" fill="#ffbf3a"/>
    <path id="Path_23673" data-name="Path 23673" d="M41.779.9A11.916,11.916,0,0,0,40.151.423,17.951,17.951,0,0,0,35.8.005a18.66,18.66,0,0,0-2.969.277,17.487,17.487,0,0,0-3.355.869,22.329,22.329,0,0,0-7.307,4.435A37.084,37.084,0,0,0,16.8,11.78c-.814,1.129-1.542,2.329-2.318,3.507-.4.592-.787,1.173-1.178,1.77s-.76,1.205-1.14,1.8c-.765,1.211-1.58,2.4-2.448,3.572a39.121,39.121,0,0,1-2.693,3.485c-.489.57-1.015,1.124-1.536,1.677S4.424,28.7,3.849,29.244A36.067,36.067,0,0,1,0,32.35a3.691,3.691,0,0,0,.51.027,10.943,10.943,0,0,0,1.455-.092,16.788,16.788,0,0,0,5.043-1.558,22.461,22.461,0,0,0,3.225-1.933,28.546,28.546,0,0,0,3.616-2.942,51.5,51.5,0,0,0,3.86-4.158c1.287-1.623,2.725-3.436,4.12-5.581.586-.912,1.216-1.732,1.808-2.519s1.151-1.515,1.7-2.2c.527-.689,1.113-1.3,1.639-1.884s1.048-1.118,1.542-1.623c.5-.489.966-.961,1.433-1.379.483-.423.95-.8,1.4-1.14A25.879,25.879,0,0,1,33.826,3.61,17.194,17.194,0,0,1,38.05,1.737,27.824,27.824,0,0,1,41.779.9" transform="translate(2.731 49.961)" fill="#ffbf3a"/>
    <path id="Path_23674" data-name="Path 23674" d="M26.763,0a10.29,10.29,0,0,0-1.536.1,17.732,17.732,0,0,0-3.882.95,17.489,17.489,0,0,0-5.1,2.921,21.966,21.966,0,0,0-2.622,2.541,20.9,20.9,0,0,0-2.361,3.453c-.3.543-.586,1.086-.858,1.645-.13.277-.266.554-.391.841l-.337.869c-.44,1.162-.831,2.345-1.2,3.567-.391,1.205-.673,2.448-.983,3.7s-.635,2.5-.961,3.746c-.288,1.27-.63,2.53-1.026,3.8-.2.624-.418,1.259-.641,1.884-.206.646-.434,1.27-.679,1.905a30.8,30.8,0,0,1-1.8,3.8A34.691,34.691,0,0,1,0,39.544,8.476,8.476,0,0,0,1.694,38.9a15.421,15.421,0,0,0,3.854-2.855,23.38,23.38,0,0,0,4.506-6.221,32.418,32.418,0,0,0,2.117-4.707,49.523,49.523,0,0,0,1.911-6.026c.559-1.9,1.118-3.594,1.65-5.1.559-1.5,1.162-2.807,1.71-3.963.282-.575.554-1.118.82-1.618.288-.5.575-.961.863-1.406a24.184,24.184,0,0,1,1.618-2.253,14.851,14.851,0,0,1,3.073-2.893c1-.722,1.965-1.27,2.948-1.857" transform="translate(0 83.976)" fill="#ffbf3a"/>
    <path id="Path_23675" data-name="Path 23675" d="M11.449,0a9.013,9.013,0,0,0-1.276.581A17.3,17.3,0,0,0,7.166,2.655a17.425,17.425,0,0,0-3.4,4.1,17.057,17.057,0,0,0-1.39,2.97,18.438,18.438,0,0,0-.955,3.637c-.749,4.354-.049,8.827.239,13.365q.138,1.7.141,3.442a28.223,28.223,0,0,1-.114,3.5A30.08,30.08,0,0,1,1.14,37.3,28.255,28.255,0,0,1,0,41.079,7.017,7.017,0,0,0,1.3,40.1a14.1,14.1,0,0,0,2.66-3.4,16.7,16.7,0,0,0,1.254-2.785A20.944,20.944,0,0,0,6.2,30.27a39.939,39.939,0,0,0,.4-10.168c-.1-1.759-.163-3.339-.141-4.772.043-1.444.114-2.714.212-3.86A25.153,25.153,0,0,1,7.844,5.982,14.949,14.949,0,0,1,9.511,2.53C10.135,1.6,10.781.82,11.449,0" transform="translate(9.212 121.044)" fill="#ffbf3a"/>
    <path id="Path_23676" data-name="Path 23676" d="M5.152,0a13.232,13.232,0,0,0-2.9,3.469A16.837,16.837,0,0,0,.462,7.877a15.6,15.6,0,0,0-.429,2.877,17.72,17.72,0,0,0,.1,3.317,28,28,0,0,0,1.411,5.646c.32.928.646,1.873.993,2.8s.717,1.867,1.042,2.807c.326.955.651,1.916.945,2.9a28.7,28.7,0,0,1,.695,3.035,23.8,23.8,0,0,1,.277,6.77,6.123,6.123,0,0,0,.885-1.173,12.843,12.843,0,0,0,1.493-3.561,18.66,18.66,0,0,0,.44-6.064A29.512,29.512,0,0,0,7.682,23.2a46.5,46.5,0,0,0-1.422-4.772c-2.112-5.9-2.611-9.658-2.541-12.339A14.878,14.878,0,0,1,4.207,2.7c.271-.972.608-1.824.945-2.7" transform="translate(21.666 158.155)" fill="#ffbf3a"/>
    <path id="Path_23677" data-name="Path 23677" d="M1.906,0A12,12,0,0,0,.37,3.73,14.877,14.877,0,0,0,.028,7.937,15.693,15.693,0,0,0,1.4,13.295,26.951,26.951,0,0,0,4.1,17.73c1.069,1.39,2.155,2.807,3.279,4.207.554.706,1.086,1.455,1.591,2.209a23.147,23.147,0,0,1,1.487,2.378A23.2,23.2,0,0,1,12.7,32.23a5.851,5.851,0,0,0,.391-1.259,11.234,11.234,0,0,0,.179-3.474c-.277-2.969-1.585-7.014-5.554-12.155-.874-1.086-1.542-2.15-2.171-3.083-.309-.472-.608-.923-.858-1.352s-.483-.858-.695-1.27c-.423-.8-.771-1.536-1.059-2.209A18.354,18.354,0,0,1,2.3,5.543a12.893,12.893,0,0,1-.472-2.991C1.8,1.65,1.852.841,1.906,0" transform="translate(40.785 192.29)" fill="#ffbf3a"/>
    <path id="Path_23678" data-name="Path 23678" d="M28.463,0a16.074,16.074,0,0,1-.3,1.954,31.644,31.644,0,0,1-1.352,4.864c-.347.977-.771,1.971-1.254,3.056a33.563,33.563,0,0,1-1.688,3.274c-.326.543-.673,1.1-1.042,1.629-.369.554-.755,1.129-1.167,1.683s-.847,1.091-1.314,1.639c-.467.532-.966,1.042-1.477,1.6a26.727,26.727,0,0,1-2.638,2.416c-.89.809-1.8,1.547-2.731,2.253-.461.347-.917.738-1.368,1.118s-.9.755-1.357,1.135-.912.727-1.335,1.167c-.429.413-.852.831-1.265,1.259s-.82.863-1.211,1.3-.738.95-1.1,1.455c-.347.489-.679,1-.988,1.525-.152.277-.3.543-.451.8-.136.288-.261.581-.391.869a19,19,0,0,0-1.145,3.768,20.827,20.827,0,0,0-.217,4.446,12.4,12.4,0,0,1-1.1-1.965,17.476,17.476,0,0,1-1.5-5.407,15.969,15.969,0,0,1,.065-3.757c.092-.679.223-1.384.4-2.123.1-.358.2-.738.326-1.118.125-.358.271-.727.429-1.1a22.024,22.024,0,0,1,1.129-2.318c.228-.385.451-.809.722-1.194s.559-.771.863-1.167c.608-.782,1.3-1.591,2.074-2.4.8-.765,1.677-1.525,2.655-2.3.82-.679,1.639-1.243,2.4-1.824s1.487-1.14,2.177-1.672c1.411-1,2.66-1.965,3.778-2.866,1.145-.841,2.15-1.639,3.051-2.416.879-.8,1.688-1.433,2.4-2.128.706-.679,1.319-1.346,1.867-1.987.548-.657,1.048-1.232,1.509-1.846C26.835,2.416,27.6,1.221,28.463,0" transform="translate(78.276 11.347)" fill="#ffbf3a"/>
    <path id="Path_23679" data-name="Path 23679" d="M15.631,0a17.181,17.181,0,0,1,.418,1.781,29.158,29.158,0,0,1,.461,4.642,28.724,28.724,0,0,1-.483,6.482,25.965,25.965,0,0,1-.885,3.675c-.19.624-.423,1.249-.673,1.867-.244.641-.51,1.3-.814,1.943-.244.521-.51,1.048-.787,1.536-.282.5-.575.983-.858,1.493-.57.993-1.183,1.96-1.819,2.888-.619.966-1.211,1.949-1.835,2.91a31.786,31.786,0,0,0-1.688,3,21.388,21.388,0,0,0-2.193,6.656,17.552,17.552,0,0,0,.825,7.91,11.979,11.979,0,0,1-1.471-1.466A15.338,15.338,0,0,1,2.45,43.451,13.953,13.953,0,0,1,1.109,40.84,16.913,16.913,0,0,1,.2,37.409C.105,36.774.035,36.1,0,35.384a18.261,18.261,0,0,1,.1-2.2,22.309,22.309,0,0,1,.38-2.427,19.821,19.821,0,0,1,.787-2.579A27.3,27.3,0,0,1,2.461,25.4c.494-.923,1.064-1.889,1.721-2.872,4.462-6.666,7.291-10.733,8.811-14.1a23.55,23.55,0,0,0,1.667-4.468c.369-1.373.651-2.622.972-3.963" transform="translate(56.402 25.369)" fill="#ffbf3a"/>
    <path id="Path_23680" data-name="Path 23680" d="M4.977,0a13.429,13.429,0,0,1,.885,1.422A26.653,26.653,0,0,1,7.648,5.374,27.262,27.262,0,0,1,9,18.555a46.611,46.611,0,0,1-1.515,6.292c-.3,1.031-.575,2.085-.869,3.111-.147.521-.277,1.048-.423,1.569-.13.521-.217,1.064-.315,1.585a32.548,32.548,0,0,0-.418,3.235A21.075,21.075,0,0,0,5.623,37.7a15.543,15.543,0,0,0,.3,1.688c.168.575.353,1.151.565,1.732A17.858,17.858,0,0,0,8.273,44.57a3.878,3.878,0,0,1-.467-.212A10.72,10.72,0,0,1,6.6,43.647a14.137,14.137,0,0,1-3.474-3.3,15.413,15.413,0,0,1-1.71-2.839A17.982,17.982,0,0,1,.287,33.745a18.558,18.558,0,0,1-.239-4.783,25.021,25.021,0,0,1,1.107-5.814c.244-.912.548-1.732.8-2.551.266-.809.494-1.591.711-2.323.19-.76.429-1.439.63-2.1.206-.679.38-1.3.548-1.916.152-.6.282-1.2.429-1.753s.266-1.064.38-1.553c.212-1.015.364-1.927.467-2.779a24.337,24.337,0,0,0,.2-4.4c-.06-1.3-.25-2.53-.337-3.768" transform="translate(39.679 50.971)" fill="#ffbf3a"/>
    <path id="Path_23681" data-name="Path 23681" d="M0,0A12.573,12.573,0,0,1,1.178,1.015,22.18,22.18,0,0,1,3.8,3.985a26.831,26.831,0,0,1,2.823,4.75,21.717,21.717,0,0,1,1.113,3.013,27.742,27.742,0,0,1,.787,3.447c.065.494.119.988.163,1.487l.043.738.06.749c.065.983.081,1.976.076,2.969-.027.972.027,1.976.054,2.97s.054,1.987.163,2.969a26.581,26.581,0,0,0,.527,2.97,14.673,14.673,0,0,0,.4,1.466c.179.478.38.95.6,1.444a17.161,17.161,0,0,0,1.634,2.774,16.3,16.3,0,0,0,2.492,2.579,8.785,8.785,0,0,1-1.71-.364,13.872,13.872,0,0,1-3.952-1.992,14.758,14.758,0,0,1-4.191-5.065,21.911,21.911,0,0,1-1.46-4.148,27.3,27.3,0,0,1-.559-5.418c.043-1.721.065-3.268.033-4.69,0-1.406.022-2.676-.033-3.833-.016-.575-.06-1.129-.1-1.661-.022-.51-.043-1-.087-1.471-.071-.934-.179-1.781-.315-2.551A26.8,26.8,0,0,0,1.33,3.2C.923,2.09.456,1.075,0,0" transform="translate(27.029 84.064)" fill="#ffbf3a"/>
    <path id="Path_23682" data-name="Path 23682" d="M0,0A12.35,12.35,0,0,1,1.292.543,20.617,20.617,0,0,1,4.37,2.367,21.753,21.753,0,0,1,8.143,5.684,26.63,26.63,0,0,1,9.973,8,27.675,27.675,0,0,1,11.585,10.8c1.569,3.349,2.313,7,3.692,10.521a16.552,16.552,0,0,0,7.736,9.115,8.17,8.17,0,0,1-1.6.027,11.885,11.885,0,0,1-3.92-.983A14.155,14.155,0,0,1,15.054,28.1a16.782,16.782,0,0,1-2.475-2.275,21.4,21.4,0,0,1-4.229-8.062c-.413-1.525-.847-2.9-1.232-4.137-.364-1.249-.738-2.356-1.1-3.35a35.242,35.242,0,0,0-2-4.8,19.043,19.043,0,0,0-2-3.089C1.363,1.536.684.8,0,0" transform="translate(21.031 121.044)" fill="#ffbf3a"/>
    <path id="Path_23683" data-name="Path 23683" d="M0,0A16.028,16.028,0,0,1,4.354,1.048,18.588,18.588,0,0,1,8.4,3.132a23.139,23.139,0,0,1,2.117,1.661A20.631,20.631,0,0,1,12.54,6.965a33.169,33.169,0,0,1,2.812,4.24c.418.738.847,1.471,1.276,2.22.44.727.9,1.466,1.373,2.182a17.189,17.189,0,0,0,1.574,2.068,16.012,16.012,0,0,0,1.867,1.873A14.151,14.151,0,0,0,26.6,22.263a7.026,7.026,0,0,1-1.4.32,10,10,0,0,1-3.632-.147,12.29,12.29,0,0,1-5.027-2.313,16.2,16.2,0,0,1-2.72-2.562,22.136,22.136,0,0,1-2.595-3.768C8.42,8.746,6.487,5.776,4.772,3.86A14.941,14.941,0,0,0,2.318,1.607C1.547,1,.787.521,0,0" transform="translate(27.247 158.024)" fill="#ffbf3a"/>
    <path id="Path_23684" data-name="Path 23684" d="M0,.116A13.859,13.859,0,0,1,3.958.159a16.282,16.282,0,0,1,3.936.972,16.353,16.353,0,0,1,4.343,2.448,26.143,26.143,0,0,1,3.29,3.051c1.064,1.042,2.041,2.2,3.192,3.176.575.5,1.162.983,1.781,1.433a17.025,17.025,0,0,0,2.019,1.145,11.757,11.757,0,0,0,4.946,1.1,5.725,5.725,0,0,1-1.107.592,9.23,9.23,0,0,1-3.121.749,10.728,10.728,0,0,1-4.81-.841,17.1,17.1,0,0,1-5.917-4.267c-.89-.912-1.639-1.8-2.389-2.53-.358-.38-.711-.727-1.059-1.059-.326-.337-.641-.657-.939-.95C7.5,4.589,6.927,4.079,6.384,3.65A16.729,16.729,0,0,0,4.9,2.494,13.6,13.6,0,0,0,2.318,1.039C1.536.681.771.414,0,.116" transform="translate(43.164 191.876)" fill="#ffbf3a"/>
    <path id="Path_23685" data-name="Path 23685" d="M102.289,1.037V0L99.222.092c-1,.043-2.231.043-3.686.2-.727.076-1.5.136-2.323.206q-.635.065-1.287.114c-.44.049-.89.13-1.352.2-1.851.277-3.909.516-6.107,1.026-.548.114-1.113.228-1.688.347s-1.162.228-1.743.391c-1.178.326-2.394.646-3.659.983A97.261,97.261,0,0,0,61.123,9.935,101.54,101.54,0,0,0,43.7,21.025a112.19,112.19,0,0,0-16.53,16.042,115.222,115.222,0,0,0-13.729,20.45A120.546,120.546,0,0,0,8.1,69.02c-.385.983-.738,2-1.118,2.991-.358.993-.765,1.981-1.075,3.007-.635,2.03-1.341,4.044-1.851,6.124L3.21,84.226l-.684,3.132c-.51,2.074-.814,4.18-1.189,6.27-.2,1.053-.3,2.112-.44,3.154C.773,97.836.642,98.894.512,99.948.436,101,.355,102.059.273,103.1c-.065,1.053-.179,2.1-.185,3.154a115.117,115.117,0,0,0,.19,12.486c.326,4.1.847,8.138,1.509,12.084.706,3.93,1.547,7.79,2.519,11.509,1.015,3.719,2.079,7.323,3.317,10.776A141.611,141.611,0,0,0,15.8,172.057,133.657,133.657,0,0,0,24.822,187a120.109,120.109,0,0,0,8.3,10.613c.619.695,1.227,1.341,1.791,1.954s1.086,1.189,1.607,1.7c1.026,1.015,1.878,1.916,2.611,2.589,1.477,1.363,2.258,2.09,2.258,2.09l.679-.765s-.765-.717-2.22-2.068c-.727-.668-1.574-1.558-2.589-2.573-.516-.489-1.031-1.075-1.591-1.667-.559-.619-1.167-1.249-1.775-1.949a119.065,119.065,0,0,1-8.23-10.5,134.891,134.891,0,0,1-8.941-14.831A141.59,141.59,0,0,1,8.6,152.769c-1.227-3.431-2.285-7.014-3.284-10.7-.972-3.7-1.8-7.508-2.508-11.406-.651-3.925-1.178-7.931-1.487-12a111.677,111.677,0,0,1-.2-12.372c0-1.031.119-2.074.185-3.111s.152-2.1.233-3.132c.125-1.048.25-2.09.38-3.138.136-1.031.239-2.085.44-3.121.364-2.068.668-4.158,1.173-6.216l.684-3.105.831-3.062c.5-2.047,1.211-4.044,1.835-6.064.3-1.01.711-1.992,1.069-2.986s.722-1.987,1.107-2.964A118.907,118.907,0,0,1,14.355,58a114.487,114.487,0,0,1,13.61-20.271,112.822,112.822,0,0,1,16.362-15.9A103.151,103.151,0,0,1,61.585,10.847a97.629,97.629,0,0,1,16.08-6.308c1.243-.326,2.448-.657,3.61-.95.581-.174,1.162-.277,1.726-.4l1.672-.347C86.839,2.345,88.88,2.1,90.7,1.824c.461-.06.9-.141,1.341-.185s.858-.081,1.265-.119c.82-.071,1.591-.136,2.307-.2,1.422-.163,2.655-.163,3.643-.206,1.976-.049,3.029-.081,3.029-.081" transform="translate(20.329 9.381)" fill="#ffbf3a"/>
    <path id="Path_23686" data-name="Path 23686" d="M8.474,3.706c1.808,1.672,4.891,4.826,7.823,7.372,1.482,1.221,2.845,2.41,3.9,3.165,1.037.793,1.694,1.3,1.694,1.3s-.765-.239-2.019-.6c-1.276-.353-2.959-.983-4.832-1.694A58.232,58.232,0,0,1,9.4,10.606c-.456-.244-.89-.478-1.33-.717S7.247,9.4,6.862,9.156C6.08,8.673,5.385,8.222,4.8,7.815A13.066,13.066,0,0,1,2.242,5.264,12,12,0,0,1,.793,2.712,12.6,12.6,0,0,1,.136.8,6.576,6.576,0,0,1,0,.02,7.855,7.855,0,0,1,2.568.275a10.92,10.92,0,0,1,2.682,1.1A14.875,14.875,0,0,1,8.474,3.706" transform="translate(58.972 212.026)" fill="#ffbf3a"/>
    <path id="Path_23703" data-name="Path 23703" d="M30.368,0H1.075L0,1.064H31.362Z" transform="translate(121.545 9.382)" fill="#ffbf3a"/>
  </g>
</svg>
