<svg xmlns="http://www.w3.org/2000/svg" width="144.28" height="232.242" viewBox="0 0 144.28 232.242">
  <g id="Group_5404" data-name="Group 5404" transform="translate(25.087 -9.225) rotate(9)">
    <path id="Path_23671" data-name="Path 23671" d="M62.473,2.06a13.669,13.669,0,0,1-.983,1.721,21.182,21.182,0,0,1-3.36,3.882,20.476,20.476,0,0,1-2.807,2.161,24,24,0,0,1-3.664,1.862c-.695.277-1.428.527-2.2.76a21.272,21.272,0,0,1-2.416.543c-.852.141-1.743.255-2.671.326a20.032,20.032,0,0,1-2.921.065,46.482,46.482,0,0,1-4.978-.543c-1.639-.331-3.284-.738-4.956-1.189-.836-.217-1.656-.494-2.47-.771s-1.634-.554-2.465-.831-1.672-.532-2.481-.858q-1.23-.448-2.459-.912c-.836-.288-1.667-.575-2.519-.847-.836-.288-1.656-.608-2.508-.874-.836-.277-1.694-.532-2.562-.776q-1.3-.342-2.627-.706a47,47,0,0,0-5.5-1.037A41.8,41.8,0,0,0,0,3.575a9.269,9.269,0,0,1,1.927-1.3A18.6,18.6,0,0,1,7.834.383,31.431,31.431,0,0,1,12.339,0c.831-.011,1.721.011,2.638.081.456.033.928.081,1.411.125s1,.092,1.515.152c1.031.119,2.1.3,3.214.51.548.125,1.124.239,1.71.358s1.2.244,1.813.391c1.238.288,2.508.624,3.844,1.021,1.363.364,2.774.782,4.251,1.254,1.232.44,2.465.717,3.61,1.021,1.156.288,2.242.543,3.279.76,2.112.369,3.974.624,5.657.787,1.71.092,3.214.1,4.555.065a22.532,22.532,0,0,0,3.6-.434A22.335,22.335,0,0,0,56.3,5.366a15.554,15.554,0,0,0,2.334-.993A37.81,37.81,0,0,0,62.473,2.06" transform="translate(44.266 214.165)" fill="#ffbf3a"/>
    <path id="Path_23672" data-name="Path 23672" d="M54.189,18.937a12.672,12.672,0,0,1-1.477,1.107,19.832,19.832,0,0,1-4.289,2.117A22.2,22.2,0,0,1,41.5,23.29a23.379,23.379,0,0,1-4.332-.461,23.773,23.773,0,0,1-2.383-.586c-.793-.255-1.612-.57-2.454-.923-.684-.293-1.363-.6-2.036-.939a20.351,20.351,0,0,1-1.965-1.107c-1.292-.776-2.557-1.639-3.811-2.53-1.243-.923-2.437-1.895-3.67-2.866-1.249-.95-2.427-1.976-3.654-2.969a74.467,74.467,0,0,0-7.779-5.64A41.408,41.408,0,0,0,0,.821,8.73,8.73,0,0,1,2.057.235,15.79,15.79,0,0,1,4.49,0,21.838,21.838,0,0,1,7.768.224a24.113,24.113,0,0,1,4.017.923c.727.228,1.477.5,2.258.82.793.3,1.618.657,2.465,1.053q1.27.619,2.606,1.384c.879.521,1.851,1.048,2.817,1.672.972.6,1.949,1.287,2.98,2.025,1.053.717,2.128,1.5,3.236,2.378.472.358.917.727,1.39,1.053s.923.635,1.363.945c.89.613,1.743,1.167,2.551,1.688,1.639,1.026,3.181,1.813,4.549,2.508.353.174.684.326,1.01.494.337.13.679.277.993.418.635.244,1.249.483,1.835.679a23.265,23.265,0,0,0,3.192.9,20.577,20.577,0,0,0,5.032.364,31.191,31.191,0,0,0,4.126-.592" transform="translate(17.79 183.337)" fill="#ffbf3a"/>
    <path id="Path_23673" data-name="Path 23673" d="M41.779,31.481a11.916,11.916,0,0,1-1.629.472,17.951,17.951,0,0,1-4.348.418,18.66,18.66,0,0,1-2.969-.277,17.487,17.487,0,0,1-3.355-.869,22.329,22.329,0,0,1-7.307-4.435A37.084,37.084,0,0,1,16.8,20.6c-.814-1.129-1.542-2.329-2.318-3.507-.4-.592-.787-1.173-1.178-1.77s-.76-1.205-1.14-1.8c-.765-1.211-1.58-2.4-2.448-3.572A39.121,39.121,0,0,0,7.025,6.46C6.536,5.89,6.01,5.336,5.488,4.783S4.424,3.675,3.849,3.132A36.067,36.067,0,0,0,0,.027,3.691,3.691,0,0,1,.51,0,10.943,10.943,0,0,1,1.965.092,16.788,16.788,0,0,1,7.008,1.65a22.461,22.461,0,0,1,3.225,1.933,28.546,28.546,0,0,1,3.616,2.942,51.5,51.5,0,0,1,3.86,4.158c1.287,1.623,2.725,3.436,4.12,5.581.586.912,1.216,1.732,1.808,2.519s1.151,1.515,1.7,2.2c.527.689,1.113,1.3,1.639,1.884s1.048,1.118,1.542,1.623c.5.489.966.961,1.433,1.379.483.423.95.8,1.4,1.14a25.88,25.88,0,0,0,2.475,1.759A17.194,17.194,0,0,0,38.05,30.64a27.824,27.824,0,0,0,3.73.841" transform="translate(2.731 145.234)" fill="#ffbf3a"/>
    <path id="Path_23674" data-name="Path 23674" d="M26.763,39.543a10.289,10.289,0,0,1-1.536-.1,17.732,17.732,0,0,1-3.882-.95,17.489,17.489,0,0,1-5.1-2.921,21.966,21.966,0,0,1-2.622-2.541,20.9,20.9,0,0,1-2.361-3.453c-.3-.543-.586-1.086-.858-1.645-.13-.277-.266-.554-.391-.841l-.337-.869c-.44-1.162-.831-2.345-1.2-3.567-.391-1.205-.673-2.448-.983-3.7s-.635-2.5-.961-3.746c-.288-1.27-.63-2.53-1.026-3.8-.2-.624-.418-1.259-.641-1.884-.206-.646-.434-1.27-.679-1.905a30.8,30.8,0,0,0-1.8-3.8A34.691,34.691,0,0,0,0,0,8.476,8.476,0,0,1,1.694.646,15.421,15.421,0,0,1,5.548,3.5a23.38,23.38,0,0,1,4.506,6.221,32.418,32.418,0,0,1,2.117,4.707,49.523,49.523,0,0,1,1.911,6.026c.559,1.9,1.118,3.594,1.65,5.1.559,1.5,1.162,2.807,1.71,3.963.282.575.554,1.118.82,1.618.288.5.575.961.863,1.406a24.184,24.184,0,0,0,1.618,2.253,14.851,14.851,0,0,0,3.073,2.893c1,.722,1.965,1.27,2.948,1.857" transform="translate(0 104.052)" fill="#ffbf3a"/>
    <path id="Path_23675" data-name="Path 23675" d="M11.449,41.079a9.013,9.013,0,0,1-1.276-.581,17.3,17.3,0,0,1-3.007-2.074,17.425,17.425,0,0,1-3.4-4.1,17.057,17.057,0,0,1-1.39-2.97,18.438,18.438,0,0,1-.955-3.637c-.749-4.354-.049-8.827.239-13.365q.138-1.7.141-3.442a28.223,28.223,0,0,0-.114-3.5A30.08,30.08,0,0,0,1.14,3.778,28.255,28.255,0,0,0,0,0,7.017,7.017,0,0,1,1.3.983a14.1,14.1,0,0,1,2.66,3.4A16.7,16.7,0,0,1,5.212,7.171,20.944,20.944,0,0,1,6.2,10.809a39.939,39.939,0,0,1,.4,10.168c-.1,1.759-.163,3.339-.141,4.772.043,1.444.114,2.714.212,3.86A25.153,25.153,0,0,0,7.844,35.1a14.949,14.949,0,0,0,1.667,3.453c.624.934,1.27,1.71,1.938,2.53" transform="translate(9.212 65.448)" fill="#ffbf3a"/>
    <path id="Path_23676" data-name="Path 23676" d="M5.152,38.028a13.232,13.232,0,0,1-2.9-3.469A16.837,16.837,0,0,1,.462,30.151a15.6,15.6,0,0,1-.429-2.877,17.72,17.72,0,0,1,.1-3.317,28,28,0,0,1,1.411-5.646c.32-.928.646-1.873.993-2.8s.717-1.867,1.042-2.807c.326-.955.651-1.916.945-2.9A28.7,28.7,0,0,0,5.223,6.77,23.8,23.8,0,0,0,5.5,0a6.123,6.123,0,0,1,.885,1.173A12.843,12.843,0,0,1,7.877,4.734a18.66,18.66,0,0,1,.44,6.064,29.512,29.512,0,0,1-.635,4.034A46.5,46.5,0,0,1,6.259,19.6c-2.112,5.9-2.611,9.658-2.541,12.339a14.878,14.878,0,0,0,.489,3.382c.271.972.608,1.824.945,2.7" transform="translate(21.666 31.389)" fill="#ffbf3a"/>
    <path id="Path_23677" data-name="Path 23677" d="M1.906,32.23A12,12,0,0,1,.37,28.5a14.877,14.877,0,0,1-.342-4.207A15.693,15.693,0,0,1,1.4,18.935,26.951,26.951,0,0,1,4.1,14.5c1.069-1.39,2.155-2.807,3.279-4.207.554-.706,1.086-1.455,1.591-2.209a23.147,23.147,0,0,0,1.487-2.378A23.2,23.2,0,0,0,12.7,0a5.851,5.851,0,0,1,.391,1.259,11.234,11.234,0,0,1,.179,3.474c-.277,2.969-1.585,7.014-5.554,12.155-.874,1.086-1.542,2.15-2.171,3.083-.309.472-.608.923-.858,1.352s-.483.858-.695,1.27c-.423.8-.771,1.536-1.059,2.209A18.354,18.354,0,0,0,2.3,26.687a12.893,12.893,0,0,0-.472,2.991c-.022.9.027,1.71.081,2.551" transform="translate(40.785 3.051)" fill="#ffbf3a"/>
    <path id="Path_23678" data-name="Path 23678" d="M28.463,43.207a16.074,16.074,0,0,0-.3-1.954,31.643,31.643,0,0,0-1.352-4.864c-.347-.977-.771-1.971-1.254-3.056a33.563,33.563,0,0,0-1.688-3.274c-.326-.543-.673-1.1-1.042-1.629-.369-.554-.755-1.129-1.167-1.683s-.847-1.091-1.314-1.639c-.467-.532-.966-1.042-1.477-1.6A26.727,26.727,0,0,0,16.232,21.1c-.89-.809-1.8-1.547-2.731-2.253-.461-.347-.917-.738-1.368-1.118s-.9-.755-1.357-1.135-.912-.727-1.335-1.167c-.429-.413-.852-.831-1.265-1.259s-.82-.863-1.211-1.3-.738-.95-1.1-1.455c-.347-.489-.679-1-.988-1.525-.152-.277-.3-.543-.451-.8-.136-.288-.261-.581-.391-.869A19,19,0,0,1,2.894,4.446,20.827,20.827,0,0,1,2.677,0a12.4,12.4,0,0,0-1.1,1.965,17.476,17.476,0,0,0-1.5,5.407,15.969,15.969,0,0,0,.065,3.757c.092.679.223,1.384.4,2.123.1.358.2.738.326,1.118.125.358.271.727.429,1.1A22.024,22.024,0,0,0,2.427,17.79c.228.385.451.809.722,1.194s.559.771.863,1.167c.608.782,1.3,1.591,2.074,2.4.8.765,1.677,1.525,2.655,2.3.82.679,1.639,1.243,2.4,1.824s1.487,1.14,2.177,1.672c1.411,1,2.66,1.965,3.778,2.866,1.145.841,2.15,1.639,3.051,2.416.879.8,1.688,1.433,2.4,2.128.706.679,1.319,1.346,1.867,1.987.548.657,1.048,1.232,1.509,1.846.912,1.2,1.677,2.394,2.541,3.616" transform="translate(78.276 173.018)" fill="#ffbf3a"/>
    <path id="Path_23679" data-name="Path 23679" d="M15.631,46.785A17.181,17.181,0,0,0,16.049,45a29.158,29.158,0,0,0,.461-4.642,28.724,28.724,0,0,0-.483-6.482,25.965,25.965,0,0,0-.885-3.675c-.19-.624-.423-1.249-.673-1.867-.244-.641-.51-1.3-.814-1.943-.244-.521-.51-1.048-.787-1.536-.282-.5-.575-.983-.858-1.493-.57-.993-1.183-1.96-1.819-2.888-.619-.966-1.211-1.949-1.835-2.91a31.786,31.786,0,0,1-1.688-3A21.388,21.388,0,0,1,4.475,7.91,17.552,17.552,0,0,1,5.3,0,11.979,11.979,0,0,0,3.829,1.466,15.338,15.338,0,0,0,2.45,3.333,13.953,13.953,0,0,0,1.109,5.944,16.913,16.913,0,0,0,.2,9.375C.105,10.011.035,10.684,0,11.4a18.261,18.261,0,0,0,.1,2.2,22.309,22.309,0,0,0,.38,2.427,19.821,19.821,0,0,0,.787,2.579,27.3,27.3,0,0,0,1.189,2.774c.494.923,1.064,1.889,1.721,2.872,4.462,6.666,7.291,10.733,8.811,14.1a23.55,23.55,0,0,1,1.667,4.468c.369,1.373.651,2.622.972,3.963" transform="translate(56.402 155.418)" fill="#ffbf3a"/>
    <path id="Path_23680" data-name="Path 23680" d="M4.977,44.57a13.429,13.429,0,0,0,.885-1.422A26.653,26.653,0,0,0,7.648,39.2,27.262,27.262,0,0,0,9,26.014a46.612,46.612,0,0,0-1.515-6.292c-.3-1.031-.575-2.085-.869-3.111-.147-.521-.277-1.048-.423-1.569-.13-.521-.217-1.064-.315-1.585a32.548,32.548,0,0,1-.418-3.235,21.075,21.075,0,0,1,.163-3.349,15.543,15.543,0,0,1,.3-1.688c.168-.575.353-1.151.565-1.732A17.858,17.858,0,0,1,8.272,0a3.878,3.878,0,0,0-.467.212A10.72,10.72,0,0,0,6.6.923a14.137,14.137,0,0,0-3.474,3.3,15.413,15.413,0,0,0-1.71,2.839A17.982,17.982,0,0,0,.287,10.825a18.558,18.558,0,0,0-.239,4.783,25.021,25.021,0,0,0,1.107,5.814c.244.912.548,1.732.8,2.551.266.809.494,1.591.711,2.323.19.76.429,1.439.63,2.1.206.679.38,1.3.548,1.916.152.6.282,1.2.429,1.753s.266,1.064.38,1.553c.212,1.015.364,1.927.467,2.779a24.337,24.337,0,0,1,.2,4.4c-.06,1.3-.25,2.53-.337,3.768" transform="translate(39.679 132.031)" fill="#ffbf3a"/>
    <path id="Path_23681" data-name="Path 23681" d="M0,38.31A12.573,12.573,0,0,0,1.178,37.3,22.181,22.181,0,0,0,3.8,34.326a26.831,26.831,0,0,0,2.823-4.75,21.717,21.717,0,0,0,1.113-3.013,27.743,27.743,0,0,0,.787-3.447c.065-.494.119-.988.163-1.487l.043-.738.06-.749c.065-.983.081-1.976.076-2.969-.027-.972.027-1.976.054-2.97s.054-1.987.163-2.969a26.581,26.581,0,0,1,.527-2.97,14.673,14.673,0,0,1,.4-1.466c.179-.478.38-.95.6-1.444a17.161,17.161,0,0,1,1.634-2.774A16.3,16.3,0,0,1,14.728,0a8.785,8.785,0,0,0-1.71.364A13.872,13.872,0,0,0,9.066,2.356,14.758,14.758,0,0,0,4.875,7.421a21.911,21.911,0,0,0-1.46,4.148,27.3,27.3,0,0,0-.559,5.418c.043,1.721.065,3.268.033,4.69,0,1.406.022,2.676-.033,3.833-.016.575-.06,1.129-.1,1.661-.022.51-.043,1-.087,1.471-.071.934-.179,1.781-.315,2.551A26.8,26.8,0,0,1,1.33,35.107C.923,36.22.456,37.235,0,38.31" transform="translate(27.029 105.197)" fill="#ffbf3a"/>
    <path id="Path_23682" data-name="Path 23682" d="M0,30.489a12.35,12.35,0,0,0,1.292-.543A20.617,20.617,0,0,0,4.37,28.122a21.753,21.753,0,0,0,3.773-3.317,26.63,26.63,0,0,0,1.829-2.313,27.676,27.676,0,0,0,1.612-2.807c1.569-3.349,2.313-7,3.692-10.521A16.552,16.552,0,0,1,23.012.05a8.17,8.17,0,0,0-1.6-.027,11.885,11.885,0,0,0-3.92.983,14.155,14.155,0,0,0-2.437,1.379,16.782,16.782,0,0,0-2.475,2.275,21.4,21.4,0,0,0-4.229,8.062c-.413,1.525-.847,2.9-1.232,4.137-.364,1.249-.738,2.356-1.1,3.35a35.242,35.242,0,0,1-2,4.8,19.043,19.043,0,0,1-2,3.089C1.363,28.953.684,29.691,0,30.489" transform="translate(21.031 76.038)" fill="#ffbf3a"/>
    <path id="Path_23683" data-name="Path 23683" d="M0,22.685a16.028,16.028,0,0,0,4.354-1.048A18.588,18.588,0,0,0,8.4,19.553a23.139,23.139,0,0,0,2.117-1.661A20.631,20.631,0,0,0,12.54,15.72a33.169,33.169,0,0,0,2.812-4.24c.418-.738.847-1.471,1.276-2.22.44-.727.9-1.466,1.373-2.182a17.188,17.188,0,0,1,1.574-2.068,16.012,16.012,0,0,1,1.867-1.873A14.151,14.151,0,0,1,26.6.422,7.026,7.026,0,0,0,25.2.1a10,10,0,0,0-3.632.147,12.29,12.29,0,0,0-5.027,2.313,16.2,16.2,0,0,0-2.72,2.562,22.136,22.136,0,0,0-2.595,3.768c-2.807,5.049-4.739,8.018-6.455,9.935a14.941,14.941,0,0,1-2.454,2.253c-.771.6-1.531,1.086-2.318,1.607" transform="translate(27.247 46.862)" fill="#ffbf3a"/>
    <path id="Path_23684" data-name="Path 23684" d="M0,14.734a13.859,13.859,0,0,0,3.958-.043,16.282,16.282,0,0,0,3.936-.972,16.353,16.353,0,0,0,4.343-2.448,26.142,26.142,0,0,0,3.29-3.051c1.064-1.042,2.041-2.2,3.192-3.176.575-.5,1.162-.983,1.781-1.433a17.025,17.025,0,0,1,2.019-1.145,11.757,11.757,0,0,1,4.946-1.1A5.725,5.725,0,0,0,26.356.777,9.23,9.23,0,0,0,23.235.028a10.727,10.727,0,0,0-4.81.841,17.1,17.1,0,0,0-5.917,4.267c-.89.912-1.639,1.8-2.389,2.53-.358.38-.711.727-1.059,1.059-.326.337-.641.657-.939.95-.619.586-1.194,1.1-1.737,1.525A16.729,16.729,0,0,1,4.9,12.356a13.6,13.6,0,0,1-2.584,1.455c-.782.358-1.547.624-2.318.923" transform="translate(43.163 20.846)" fill="#ffbf3a"/>
    <path id="Path_23685" data-name="Path 23685" d="M102.289,204.906v1.037l-3.067-.092c-1-.043-2.231-.043-3.686-.2-.727-.076-1.5-.136-2.323-.206q-.635-.065-1.287-.114c-.44-.049-.89-.13-1.352-.2-1.851-.277-3.909-.516-6.107-1.026-.548-.114-1.113-.228-1.688-.347s-1.162-.228-1.743-.391c-1.178-.326-2.394-.646-3.659-.983a97.261,97.261,0,0,1-16.253-6.379A101.54,101.54,0,0,1,43.7,184.918a112.19,112.19,0,0,1-16.53-16.042,115.222,115.222,0,0,1-13.729-20.45,120.547,120.547,0,0,1-5.347-11.5c-.385-.983-.738-2-1.118-2.991-.358-.993-.765-1.981-1.075-3.007-.635-2.03-1.341-4.044-1.851-6.124l-.841-3.084-.684-3.132c-.51-2.074-.814-4.18-1.189-6.27-.2-1.053-.3-2.112-.44-3.154C.773,108.107.642,107.048.512,106c-.076-1.053-.157-2.112-.239-3.154-.065-1.053-.179-2.1-.185-3.154A115.117,115.117,0,0,1,.279,87.2c.326-4.1.847-8.138,1.509-12.084.706-3.93,1.547-7.79,2.519-11.509,1.015-3.719,2.079-7.323,3.317-10.776A141.611,141.611,0,0,1,15.8,33.886a133.657,133.657,0,0,1,9.017-14.94,120.11,120.11,0,0,1,8.3-10.613c.619-.695,1.227-1.341,1.791-1.954s1.086-1.189,1.607-1.7c1.026-1.015,1.878-1.916,2.611-2.589C40.6.727,41.385,0,41.385,0l.679.765s-.765.717-2.22,2.068c-.727.668-1.574,1.558-2.589,2.573-.516.489-1.031,1.075-1.591,1.667-.559.619-1.167,1.249-1.775,1.949a119.065,119.065,0,0,0-8.23,10.5,134.891,134.891,0,0,0-8.941,14.831A141.59,141.59,0,0,0,8.6,53.174c-1.227,3.431-2.285,7.014-3.284,10.7-.972,3.7-1.8,7.508-2.508,11.406-.651,3.925-1.178,7.931-1.487,12a111.677,111.677,0,0,0-.2,12.372c0,1.031.119,2.074.185,3.111s.152,2.1.233,3.132c.125,1.048.25,2.09.38,3.138.136,1.031.239,2.085.44,3.122.364,2.068.668,4.158,1.173,6.216l.684,3.105.831,3.062c.5,2.047,1.211,4.044,1.835,6.064.3,1.01.711,1.992,1.069,2.986s.722,1.987,1.107,2.964a118.906,118.906,0,0,0,5.3,11.395,114.487,114.487,0,0,0,13.61,20.271,112.822,112.822,0,0,0,16.362,15.9A103.151,103.151,0,0,0,61.585,195.1a97.63,97.63,0,0,0,16.08,6.308c1.243.326,2.448.657,3.61.95.581.174,1.162.277,1.726.4l1.672.347c2.166.494,4.207.738,6.031,1.015.461.06.9.141,1.341.185s.858.081,1.265.119c.82.071,1.591.136,2.307.2,1.422.163,2.655.163,3.643.206,1.976.049,3.029.081,3.029.081" transform="translate(20.329 12.247)" fill="#ffbf3a"/>
    <path id="Path_23686" data-name="Path 23686" d="M8.474,11.84c1.808-1.672,4.891-4.826,7.823-7.372,1.482-1.221,2.845-2.41,3.9-3.165C21.237.51,21.894,0,21.894,0s-.765.239-2.019.6C18.6.955,16.916,1.585,15.043,2.3A58.232,58.232,0,0,0,9.4,4.94c-.456.244-.89.478-1.33.717s-.825.489-1.211.733C6.08,6.873,5.385,7.323,4.8,7.73a13.066,13.066,0,0,0-2.557,2.551A12,12,0,0,0,.793,12.833,12.6,12.6,0,0,0,.136,14.75,6.576,6.576,0,0,0,0,15.526a7.855,7.855,0,0,0,2.568-.255,10.919,10.919,0,0,0,2.682-1.1A14.875,14.875,0,0,0,8.474,11.84" transform="translate(58.972 0)" fill="#ffbf3a"/>
    <path id="Path_23703" data-name="Path 23703" d="M30.368,1.064H1.075L0,0H31.362Z" transform="translate(121.545 217.126)" fill="#ffbf3a"/>
  </g>
</svg>
