<svg xmlns="http://www.w3.org/2000/svg" width="102.003" height="164.191" viewBox="0 0 102.003 164.191">
  <g id="Group_440" data-name="Group 440" transform="translate(17.736 -6.522) rotate(9)">
    <path id="Path_23671" data-name="Path 23671" d="M44.168,1.456a9.663,9.663,0,0,1-.695,1.217A14.975,14.975,0,0,1,41.1,5.417a14.476,14.476,0,0,1-1.984,1.528,16.971,16.971,0,0,1-2.591,1.316c-.491.2-1.009.372-1.558.537a15.038,15.038,0,0,1-1.708.384c-.6.1-1.232.18-1.888.23a14.162,14.162,0,0,1-2.065.046,32.861,32.861,0,0,1-3.519-.384c-1.159-.234-2.322-.522-3.5-.841-.591-.154-1.171-.349-1.746-.545S19.378,7.3,18.791,7.1s-1.182-.376-1.754-.606q-.869-.317-1.739-.645c-.591-.2-1.178-.407-1.781-.6s-1.171-.43-1.773-.618-1.2-.376-1.812-.549-1.232-.326-1.858-.5a33.231,33.231,0,0,0-3.888-.733A29.55,29.55,0,0,0,0,2.527,6.553,6.553,0,0,1,1.362,1.61,13.149,13.149,0,0,1,5.538.271,22.222,22.222,0,0,1,8.724,0C9.311-.006,9.94.01,10.589.059c.322.023.656.058,1,.088s.71.065,1.071.107c.729.084,1.485.211,2.272.361.388.088.794.169,1.209.253s.848.173,1.282.276c.875.2,1.773.441,2.717.722.963.257,1.961.553,3.005.887.871.311,1.742.507,2.552.722s1.585.384,2.318.537c1.493.261,2.809.441,4,.557,1.209.065,2.272.073,3.22.046a15.929,15.929,0,0,0,2.548-.307A15.79,15.79,0,0,0,39.8,3.794a11,11,0,0,0,1.65-.7,26.73,26.73,0,0,0,2.713-1.635" transform="translate(31.295 151.411)" fill="#ccc"/>
    <path id="Path_23672" data-name="Path 23672" d="M38.311,13.388a8.959,8.959,0,0,1-1.044.783,14.021,14.021,0,0,1-3.032,1.5,15.693,15.693,0,0,1-4.893.8,16.528,16.528,0,0,1-3.063-.326,16.806,16.806,0,0,1-1.685-.415c-.56-.18-1.14-.4-1.735-.652-.484-.207-.963-.426-1.439-.664a14.387,14.387,0,0,1-1.389-.783c-.913-.549-1.808-1.159-2.694-1.789-.879-.652-1.723-1.339-2.594-2.026-.883-.672-1.716-1.4-2.583-2.1a52.647,52.647,0,0,0-5.5-3.988A29.275,29.275,0,0,0,0,.58,6.172,6.172,0,0,1,1.455.166,11.163,11.163,0,0,1,3.174,0,15.439,15.439,0,0,1,5.492.158a17.048,17.048,0,0,1,2.84.652c.514.161,1.044.357,1.6.58s1.144.464,1.742.745,1.213.618,1.842.979,1.309.741,1.992,1.182c.687.426,1.378.91,2.107,1.432.745.507,1.5,1.063,2.287,1.681.334.253.649.514.983.745s.652.449.963.668c.629.434,1.232.825,1.8,1.194,1.159.725,2.249,1.282,3.216,1.773.249.123.484.23.714.349.238.092.48.2.7.3.449.173.883.342,1.3.48a16.448,16.448,0,0,0,2.257.637,14.547,14.547,0,0,0,3.558.257,22.051,22.051,0,0,0,2.917-.418" transform="translate(12.577 129.616)" fill="#ccc"/>
    <path id="Path_23673" data-name="Path 23673" d="M29.537,22.257a8.424,8.424,0,0,1-1.151.334,12.691,12.691,0,0,1-3.074.3,13.192,13.192,0,0,1-2.1-.2,12.364,12.364,0,0,1-2.372-.614,15.786,15.786,0,0,1-5.166-3.136,26.218,26.218,0,0,1-3.8-4.379c-.576-.8-1.09-1.646-1.639-2.479-.28-.418-.557-.829-.833-1.251S8.87,9.979,8.6,9.557C8.06,8.7,7.484,7.856,6.87,7.031a27.658,27.658,0,0,0-1.9-2.464c-.345-.4-.718-.794-1.086-1.186S3.128,2.6,2.721,2.215A25.5,25.5,0,0,0,0,.019,2.609,2.609,0,0,1,.361,0,7.737,7.737,0,0,1,1.389.065a11.869,11.869,0,0,1,3.565,1.1,15.879,15.879,0,0,1,2.28,1.366,20.181,20.181,0,0,1,2.556,2.08,36.411,36.411,0,0,1,2.729,2.94c.91,1.148,1.927,2.429,2.913,3.945.415.645.86,1.224,1.278,1.781s.814,1.071,1.205,1.554c.372.487.787.921,1.159,1.332s.741.791,1.09,1.148.683.679,1.013.975.672.564.986.806a18.3,18.3,0,0,0,1.75,1.243A12.156,12.156,0,0,0,26.9,21.662a19.671,19.671,0,0,0,2.637.595" transform="translate(1.931 102.678)" fill="#ccc"/>
    <path id="Path_23674" data-name="Path 23674" d="M18.921,27.956a7.275,7.275,0,0,1-1.086-.073,12.536,12.536,0,0,1-2.744-.672,12.365,12.365,0,0,1-3.6-2.065,15.53,15.53,0,0,1-1.854-1.8,14.777,14.777,0,0,1-1.67-2.441c-.215-.384-.415-.768-.606-1.163-.092-.2-.188-.391-.276-.595l-.238-.614c-.311-.821-.587-1.658-.848-2.522-.276-.852-.476-1.731-.695-2.614s-.449-1.765-.679-2.648c-.2-.9-.445-1.789-.725-2.687-.142-.441-.3-.89-.453-1.332-.146-.457-.307-.9-.48-1.347A21.775,21.775,0,0,0,1.693,2.7,24.526,24.526,0,0,0,0,0,5.992,5.992,0,0,1,1.2.457,10.9,10.9,0,0,1,3.922,2.476a16.529,16.529,0,0,1,3.186,4.4A22.919,22.919,0,0,1,8.6,10.2a35.011,35.011,0,0,1,1.351,4.26c.4,1.343.791,2.541,1.167,3.6.4,1.063.821,1.984,1.209,2.8.2.407.391.791.58,1.144.2.357.407.679.61.994A17.1,17.1,0,0,0,14.665,24.6a10.5,10.5,0,0,0,2.172,2.046c.706.51,1.389.9,2.084,1.313" transform="translate(0 73.563)" fill="#ccc"/>
    <path id="Path_23675" data-name="Path 23675" d="M8.094,29.042a6.372,6.372,0,0,1-.9-.411,12.227,12.227,0,0,1-2.126-1.466,12.319,12.319,0,0,1-2.4-2.9,12.059,12.059,0,0,1-.983-2.1,13.035,13.035,0,0,1-.675-2.571c-.53-3.078-.035-6.241.169-9.449q.1-1.2.1-2.433a19.953,19.953,0,0,0-.081-2.475A21.266,21.266,0,0,0,.806,2.671,19.976,19.976,0,0,0,0,0,4.961,4.961,0,0,1,.917.695,9.97,9.97,0,0,1,2.8,3.1,11.8,11.8,0,0,1,3.684,5.07a14.807,14.807,0,0,1,.7,2.571,28.236,28.236,0,0,1,.284,7.189c-.069,1.244-.115,2.36-.1,3.374.031,1.021.081,1.919.15,2.729a17.782,17.782,0,0,0,.825,3.88,10.569,10.569,0,0,0,1.178,2.441c.441.66.9,1.209,1.37,1.789" transform="translate(6.513 46.271)" fill="#ccc"/>
    <path id="Path_23676" data-name="Path 23676" d="M3.642,26.885a9.355,9.355,0,0,1-2.053-2.452A11.9,11.9,0,0,1,.326,21.316a11.028,11.028,0,0,1-.3-2.034A12.528,12.528,0,0,1,.1,16.937a19.8,19.8,0,0,1,1-3.992c.226-.656.457-1.324.7-1.98s.507-1.32.737-1.984.461-1.355.668-2.049a20.287,20.287,0,0,0,.491-2.145A16.826,16.826,0,0,0,3.888,0a4.329,4.329,0,0,1,.626.829A9.08,9.08,0,0,1,5.569,3.347,13.192,13.192,0,0,1,5.88,7.634a20.865,20.865,0,0,1-.449,2.852,32.878,32.878,0,0,1-1.006,3.374,24.2,24.2,0,0,0-1.8,8.724,10.518,10.518,0,0,0,.345,2.391c.192.687.43,1.29.668,1.911" transform="translate(15.317 22.191)" fill="#ccc"/>
    <path id="Path_23677" data-name="Path 23677" d="M1.347,22.786A8.481,8.481,0,0,1,.261,20.149a10.518,10.518,0,0,1-.242-2.974,11.094,11.094,0,0,1,.967-3.788A19.054,19.054,0,0,1,2.9,10.251c.756-.983,1.524-1.984,2.318-2.974.391-.5.768-1.029,1.125-1.562A16.364,16.364,0,0,0,7.4,4.034,16.4,16.4,0,0,0,8.977,0a4.137,4.137,0,0,1,.276.89A7.942,7.942,0,0,1,9.38,3.347c-.2,2.1-1.121,4.959-3.926,8.593-.618.768-1.09,1.52-1.535,2.18-.219.334-.43.652-.606.956s-.342.606-.491.9c-.3.564-.545,1.086-.748,1.562a12.976,12.976,0,0,0-.449,1.332,9.115,9.115,0,0,0-.334,2.115c-.015.637.019,1.209.058,1.8" transform="translate(28.835 2.157)" fill="#ccc"/>
    <path id="Path_23678" data-name="Path 23678" d="M20.123,30.547a11.364,11.364,0,0,0-.211-1.382,22.371,22.371,0,0,0-.956-3.439c-.246-.691-.545-1.393-.887-2.161a23.73,23.73,0,0,0-1.194-2.314c-.23-.384-.476-.775-.737-1.151-.261-.391-.533-.8-.825-1.19s-.6-.771-.929-1.159-.683-.737-1.044-1.128a18.9,18.9,0,0,0-1.865-1.708c-.629-.572-1.274-1.094-1.931-1.593-.326-.246-.649-.522-.967-.791s-.637-.533-.959-.8-.645-.514-.944-.825c-.3-.292-.6-.587-.894-.89s-.58-.61-.856-.921S4.4,8.421,4.149,8.064s-.48-.706-.7-1.078c-.107-.2-.215-.384-.319-.564-.1-.2-.184-.411-.276-.614a13.431,13.431,0,0,1-.81-2.664A14.725,14.725,0,0,1,1.893,0a8.764,8.764,0,0,0-.775,1.389A12.355,12.355,0,0,0,.058,5.212,11.29,11.29,0,0,0,.1,7.868c.065.48.157.979.28,1.5.073.253.142.522.23.791.088.253.192.514.3.779a15.571,15.571,0,0,0,.8,1.639c.161.273.319.572.51.844s.4.545.61.825c.43.553.921,1.125,1.466,1.7.564.541,1.186,1.078,1.877,1.627.58.48,1.159.879,1.7,1.29s1.052.806,1.539,1.182c1,.706,1.881,1.389,2.671,2.026.81.595,1.52,1.159,2.157,1.708.622.564,1.194,1.013,1.7,1.5s.933.952,1.32,1.4.741.871,1.067,1.3c.645.848,1.186,1.693,1.8,2.556" transform="translate(55.34 122.321)" fill="#ccc"/>
    <path id="Path_23679" data-name="Path 23679" d="M11.051,33.076a12.147,12.147,0,0,0,.3-1.259,20.615,20.615,0,0,0,.326-3.281,20.307,20.307,0,0,0-.342-4.583,18.357,18.357,0,0,0-.626-2.6c-.134-.441-.3-.883-.476-1.32-.173-.453-.361-.917-.576-1.374-.173-.368-.361-.741-.557-1.086s-.407-.695-.606-1.055c-.4-.7-.837-1.386-1.286-2.042-.438-.683-.856-1.378-1.3-2.057A22.472,22.472,0,0,1,4.714,10.3,15.121,15.121,0,0,1,3.164,5.592,12.409,12.409,0,0,1,3.747,0a8.469,8.469,0,0,0-1.04,1.036,10.844,10.844,0,0,0-.975,1.32A9.864,9.864,0,0,0,.784,4.2,11.957,11.957,0,0,0,.14,6.628C.074,7.077.024,7.553,0,8.06A12.91,12.91,0,0,0,.074,9.618a15.772,15.772,0,0,0,.269,1.716A14.013,14.013,0,0,0,.9,13.157a19.3,19.3,0,0,0,.841,1.961c.349.652.752,1.336,1.217,2.03,3.155,4.713,5.154,7.588,6.229,9.967a16.649,16.649,0,0,1,1.178,3.159c.261.971.461,1.854.687,2.8" transform="translate(39.875 109.878)" fill="#ccc"/>
    <path id="Path_23680" data-name="Path 23680" d="M3.519,31.51A9.494,9.494,0,0,0,4.144,30.5,18.843,18.843,0,0,0,5.407,27.71a19.274,19.274,0,0,0,.956-9.319,32.953,32.953,0,0,0-1.071-4.448c-.215-.729-.407-1.474-.614-2.2-.1-.368-.2-.741-.3-1.109s-.154-.752-.223-1.121a23.011,23.011,0,0,1-.3-2.287,14.9,14.9,0,0,1,.115-2.368,10.989,10.989,0,0,1,.215-1.194c.119-.407.249-.814.4-1.224A12.625,12.625,0,0,1,5.849,0a2.741,2.741,0,0,0-.33.15,7.579,7.579,0,0,0-.856.5,9.995,9.995,0,0,0-2.456,2.33A10.9,10.9,0,0,0,1,4.989,12.713,12.713,0,0,0,.2,7.653a13.121,13.121,0,0,0-.169,3.381,17.689,17.689,0,0,0,.783,4.111c.173.645.388,1.224.564,1.8s.349,1.125.5,1.643c.134.537.3,1.017.445,1.485s.269.921.388,1.355.2.848.3,1.24.188.752.269,1.1c.15.718.257,1.362.33,1.965a17.206,17.206,0,0,1,.138,3.113c-.042.917-.177,1.789-.238,2.664" transform="translate(28.052 93.344)" fill="#ccc"/>
    <path id="Path_23681" data-name="Path 23681" d="M0,27.085a8.889,8.889,0,0,0,.833-.718,15.682,15.682,0,0,0,1.854-2.1,18.969,18.969,0,0,0,2-3.358,15.353,15.353,0,0,0,.787-2.13,19.613,19.613,0,0,0,.557-2.437c.046-.349.084-.7.115-1.052l.031-.522.042-.53c.046-.695.058-1.4.054-2.1-.019-.687.019-1.4.038-2.1s.038-1.4.115-2.1a18.793,18.793,0,0,1,.372-2.1,10.374,10.374,0,0,1,.28-1.036c.127-.338.269-.672.422-1.021A12.133,12.133,0,0,1,8.651,1.823,11.525,11.525,0,0,1,10.412,0,6.211,6.211,0,0,0,9.2.257,9.807,9.807,0,0,0,6.409,1.666,10.434,10.434,0,0,0,3.447,5.247,15.491,15.491,0,0,0,2.414,8.179a19.3,19.3,0,0,0-.4,3.83c.031,1.217.046,2.31.023,3.316,0,.994.015,1.892-.023,2.71-.012.407-.042.8-.069,1.174-.015.361-.031.706-.061,1.04-.05.66-.127,1.259-.223,1.8A18.944,18.944,0,0,1,.94,24.82c-.288.787-.618,1.5-.94,2.264" transform="translate(19.109 74.373)" fill="#ccc"/>
    <path id="Path_23682" data-name="Path 23682" d="M0,21.555a8.731,8.731,0,0,0,.913-.384,14.576,14.576,0,0,0,2.176-1.29,15.379,15.379,0,0,0,2.667-2.345A18.827,18.827,0,0,0,7.05,15.9a19.566,19.566,0,0,0,1.14-1.984C9.3,11.55,9.825,8.97,10.8,6.48A11.7,11.7,0,0,1,16.269.036,5.776,5.776,0,0,0,15.137.016a8.4,8.4,0,0,0-2.771.695,10.007,10.007,0,0,0-1.723.975,11.864,11.864,0,0,0-1.75,1.608,15.128,15.128,0,0,0-2.99,5.7c-.292,1.078-.6,2.049-.871,2.925-.257.883-.522,1.666-.775,2.368a24.916,24.916,0,0,1-1.416,3.4,13.463,13.463,0,0,1-1.412,2.184c-.464.6-.944,1.125-1.428,1.689" transform="translate(14.868 53.758)" fill="#ccc"/>
    <path id="Path_23683" data-name="Path 23683" d="M0,16.038A11.332,11.332,0,0,0,3.078,15.3a13.142,13.142,0,0,0,2.863-1.474,16.359,16.359,0,0,0,1.5-1.174,14.586,14.586,0,0,0,1.428-1.535,23.45,23.45,0,0,0,1.988-3c.3-.522.6-1.04.9-1.57.311-.514.633-1.036.971-1.543A12.152,12.152,0,0,1,13.84,3.541a11.32,11.32,0,0,1,1.32-1.324A10,10,0,0,1,18.8.3a4.967,4.967,0,0,0-.986-.226,7.068,7.068,0,0,0-2.568.1A8.689,8.689,0,0,0,11.694,1.81,11.455,11.455,0,0,0,9.772,3.622,15.65,15.65,0,0,0,7.937,6.285a40.161,40.161,0,0,1-4.563,7.024A10.563,10.563,0,0,1,1.639,14.9c-.545.426-1.082.768-1.639,1.136" transform="translate(19.263 33.131)" fill="#ccc"/>
    <path id="Path_23684" data-name="Path 23684" d="M0,10.417a9.8,9.8,0,0,0,2.8-.031A11.511,11.511,0,0,0,5.58,9.7a11.561,11.561,0,0,0,3.07-1.731,18.482,18.482,0,0,0,2.326-2.157c.752-.737,1.443-1.554,2.257-2.245.407-.353.821-.695,1.259-1.013a12.037,12.037,0,0,1,1.428-.81,8.312,8.312,0,0,1,3.5-.775,4.048,4.048,0,0,0-.783-.418A6.525,6.525,0,0,0,16.427.02a7.584,7.584,0,0,0-3.4.595A12.089,12.089,0,0,0,8.843,3.631C8.213,4.276,7.684,4.9,7.154,5.42c-.253.269-.5.514-.748.748-.23.238-.453.464-.664.672-.438.415-.844.775-1.228,1.078a11.827,11.827,0,0,1-1.048.817A9.615,9.615,0,0,1,1.639,9.764c-.553.253-1.094.441-1.639.652" transform="translate(30.516 14.737)" fill="#ccc"/>
    <path id="Path_23685" data-name="Path 23685" d="M72.317,144.865v.733l-2.168-.065c-.706-.031-1.577-.031-2.606-.138-.514-.054-1.059-.1-1.643-.146q-.449-.046-.91-.081c-.311-.035-.629-.092-.956-.142-1.309-.2-2.763-.365-4.318-.725l-1.194-.246c-.407-.088-.821-.161-1.232-.276-.833-.23-1.693-.457-2.587-.695a68.761,68.761,0,0,1-11.491-4.51A71.787,71.787,0,0,1,30.9,130.734,79.317,79.317,0,0,1,19.21,119.392,81.459,81.459,0,0,1,9.5,104.935,85.223,85.223,0,0,1,5.724,96.8c-.272-.695-.522-1.412-.791-2.115-.253-.7-.541-1.4-.76-2.126-.449-1.435-.948-2.859-1.309-4.329l-.595-2.18-.484-2.215C1.425,82.371,1.21,80.882.945,79.4.8,78.66.734,77.911.634,77.174s-.18-1.493-.272-2.238c-.054-.745-.111-1.493-.169-2.23s-.127-1.485-.13-2.23A81.386,81.386,0,0,1,.2,61.65c.23-2.9.6-5.753,1.067-8.543.5-2.779,1.094-5.508,1.781-8.137.718-2.629,1.47-5.177,2.345-7.618a100.116,100.116,0,0,1,5.784-13.395,94.492,94.492,0,0,1,6.375-10.562,84.918,84.918,0,0,1,5.864-7.5c.438-.491.867-.948,1.267-1.382s.768-.841,1.136-1.2c.725-.718,1.328-1.355,1.846-1.831C28.706.514,29.258,0,29.258,0l.48.541S29.2,1.048,28.168,2c-.514.472-1.113,1.1-1.831,1.819-.365.345-.729.76-1.125,1.178-.4.438-.825.883-1.255,1.378a84.176,84.176,0,0,0-5.818,7.427,95.367,95.367,0,0,0-6.321,10.485,100.1,100.1,0,0,0-5.742,13.3c-.867,2.426-1.616,4.959-2.322,7.565-.687,2.614-1.274,5.308-1.773,8.064C1.521,56,1.149,58.829.93,61.7A78.954,78.954,0,0,0,.792,70.45c0,.729.084,1.466.13,2.2s.107,1.485.165,2.215c.088.741.177,1.478.269,2.218s.169,1.474.311,2.207c.257,1.462.472,2.94.829,4.395l.484,2.2.587,2.165c.357,1.447.856,2.859,1.3,4.287.215.714.5,1.409.756,2.111s.51,1.4.783,2.1a84.065,84.065,0,0,0,3.746,8.056,80.94,80.94,0,0,0,9.622,14.331,79.763,79.763,0,0,0,11.568,11.241,72.926,72.926,0,0,0,12.2,7.764,69.022,69.022,0,0,0,11.368,4.46c.879.23,1.731.464,2.552.672.411.123.821.2,1.22.284l1.182.246c1.531.349,2.974.522,4.264.718.326.042.637.1.948.13s.606.058.894.084l1.631.138c1.006.115,1.877.115,2.575.146,1.4.035,2.142.058,2.142.058" transform="translate(14.372 8.659)" fill="#ccc"/>
    <path id="Path_23686" data-name="Path 23686" d="M5.991,8.371c1.278-1.182,3.458-3.412,5.531-5.212,1.048-.864,2.011-1.7,2.76-2.238.733-.56,1.2-.921,1.2-.921s-.541.169-1.428.426c-.9.249-2.092.695-3.416,1.2A41.169,41.169,0,0,0,6.647,3.493c-.322.173-.629.338-.94.507s-.583.345-.856.518c-.553.342-1.044.66-1.458.948a9.238,9.238,0,0,0-1.808,1.8A8.484,8.484,0,0,0,.56,9.073,8.908,8.908,0,0,0,.1,10.428a4.649,4.649,0,0,0-.1.549,5.553,5.553,0,0,0,1.815-.18,7.72,7.72,0,0,0,1.9-.775,10.516,10.516,0,0,0,2.28-1.65" transform="translate(41.692 0)" fill="#ccc"/>
    <path id="Path_23703" data-name="Path 23703" d="M21.47.752H.76L0,0H22.172Z" transform="translate(85.93 153.504)" fill="#ccc"/>
  </g>
</svg>
