<svg xmlns="http://www.w3.org/2000/svg" xmlns:xlink="http://www.w3.org/1999/xlink" width="180" height="180" viewBox="0 0 217 217">
  <defs>
    <linearGradient id="linear-gradient" x1="1.008" y1="-0.361" x2="0.234" y2="0.691" gradientUnits="objectBoundingBox">
      <stop offset="0" stop-color="#9fb6d8"/>
      <stop offset="1" stop-color="#7086b7"/>
    </linearGradient>
    <linearGradient id="linear-gradient-2" x1="0.14" y1="0.51" x2="1.119" y2="0.441" gradientUnits="objectBoundingBox">
      <stop offset="0" stop-color="#eaf7f7"/>
      <stop offset="1" stop-color="#aebfe2"/>
    </linearGradient>
    <linearGradient id="linear-gradient-3" x1="0.954" y1="0.077" x2="0.038" y2="0.938" xlink:href="#linear-gradient"/>
    <linearGradient id="linear-gradient-4" x1="1.145" y1="-0.325" x2="0.063" y2="1.022" xlink:href="#linear-gradient"/>
    <linearGradient id="linear-gradient-5" x1="1.348" y1="-0.034" x2="0.322" y2="0.759" xlink:href="#linear-gradient"/>
    <linearGradient id="linear-gradient-6" x1="0.487" y1="0.885" x2="0.556" y2="-0.007" xlink:href="#linear-gradient-2"/>
    <linearGradient id="linear-gradient-7" x1="1.14" y1="-0.148" x2="-0.34" y2="1.341" xlink:href="#linear-gradient"/>
    <linearGradient id="linear-gradient-8" x1="0.966" y1="-0.231" x2="-0.481" y2="1.619" xlink:href="#linear-gradient"/>
    <linearGradient id="linear-gradient-9" x1="0.893" y1="0.101" x2="0.059" y2="0.946" xlink:href="#linear-gradient"/>
    <linearGradient id="linear-gradient-10" x1="1.316" y1="-0.411" x2="0.185" y2="0.878" xlink:href="#linear-gradient"/>
    <linearGradient id="linear-gradient-11" x1="0.833" y1="0.182" x2="-0.252" y2="1.215" xlink:href="#linear-gradient-2"/>
    <linearGradient id="linear-gradient-12" x1="1.483" y1="-0.432" x2="0.176" y2="0.825" xlink:href="#linear-gradient-2"/>
    <linearGradient id="linear-gradient-13" x1="0.779" y1="0.229" x2="0.063" y2="0.856" xlink:href="#linear-gradient"/>
  </defs>
  <g id="Group_5429" data-name="Group 5429" transform="translate(-730 -10076)">
    <circle id="Ellipse_64" data-name="Ellipse 64" cx="108.5" cy="108.5" r="108.5" transform="translate(730 10076)" fill="#ffcc29"/>
    <g id="air-force" transform="translate(762.697 10108.697)">
      <path id="Path_24685" data-name="Path 24685" d="M92.656,80.505a22.438,22.438,0,0,1-7.589,2.922.593.593,0,0,0-.251,1.092l1.556.99-8.177,8.174,3.459.821,6.858-6.858L89.5,89.2a.593.593,0,0,0,1.092-.251,22.5,22.5,0,0,1,2.922-7.589.629.629,0,0,0-.859-.859Z" transform="translate(-41.276 -42.56)" fill="#34363a"/>
      <path id="Path_24686" data-name="Path 24686" d="M237.671,225.671a22.431,22.431,0,0,1-7.589,2.922.6.6,0,0,0-.251,1.093l1.555.988-8.174,8.177,2.216,2.063,8.1-8.1.989,1.555a.593.593,0,0,0,1.092-.251,22.5,22.5,0,0,1,2.922-7.589.629.629,0,0,0-.861-.859Z" transform="translate(-124.872 -126.241)" fill="#34363a"/>
      <path id="Path_24687" data-name="Path 24687" d="M45.645,209.29s-9.363,4.651-26.676,2.353a6.537,6.537,0,0,0-5.486,1.848l-3.392,3.392L29.311,236.1Z" transform="translate(-2.017 -116.847)" fill="url(#linear-gradient)"/>
      <path id="Path_24688" data-name="Path 24688" d="M124.693,80.469l-1.768.561a21.706,21.706,0,0,0-8.779,5.34L102.094,98.421l6.144,6.144,12.052-12.052a21.708,21.708,0,0,0,5.34-8.78l.561-1.767a1.193,1.193,0,0,0-1.5-1.5Z" transform="translate(-55.053 -42.555)" fill="#34363a"/>
      <path id="Path_24689" data-name="Path 24689" d="M103.627,104.328a36.8,36.8,0,0,1-15.818,3.423c-10.967-.091-27.619-.789-42.037-3.721l-8.546,8.545,8.525,8.525A104.685,104.685,0,0,1,66.3,141.647C79.2,131.533,91.579,118.786,103.627,104.328Z" transform="translate(-17.659 -56.17)" fill="url(#linear-gradient-2)"/>
      <path id="Path_24690" data-name="Path 24690" d="M45.2,72.723l.388-1.221a.987.987,0,0,0-1.24-1.24l-1.22.388a16.637,16.637,0,0,0-6.73,4.091L18.262,92.881a3.33,3.33,0,0,0,4.709,4.709L41.109,79.453A16.638,16.638,0,0,0,45.2,72.723Z" transform="translate(-6.165 -36.677)" fill="url(#linear-gradient-3)"/>
      <path id="Path_24691" data-name="Path 24691" d="M57.354,139.166l3.032-3.032a2.61,2.61,0,0,1,3.692,0l18.7,18.7L77.9,159.713Z" transform="translate(-29.262 -74.235)" fill="url(#linear-gradient-4)"/>
      <path id="Path_24692" data-name="Path 24692" d="M94.219,245.966s-4.651,9.363-2.353,26.676a6.537,6.537,0,0,1-1.848,5.486l-3.392,3.392L67.408,262.3Z" transform="translate(-35.058 -137.989)" fill="url(#linear-gradient-5)"/>
      <path id="Path_24693" data-name="Path 24693" d="M226.659,182.436,226.1,184.2a21.706,21.706,0,0,1-5.34,8.78l-12.051,12.051-6.144-6.144,12.052-12.052a21.707,21.707,0,0,1,8.78-5.34l1.767-.561a1.193,1.193,0,0,1,1.5,1.5Z" transform="translate(-112.968 -100.471)" fill="#34363a"/>
      <path id="Path_24694" data-name="Path 24694" d="M184.478,146a36.8,36.8,0,0,0-3.424,15.818c.091,10.967.789,27.619,3.721,42.037l-8.542,8.546-8.525-8.525a104.684,104.684,0,0,0-20.547-20.547C157.274,170.431,170.02,158.048,184.478,146Z" transform="translate(-81.032 -80.363)" fill="url(#linear-gradient-6)"/>
      <path id="Path_24695" data-name="Path 24695" d="M171.15,192.2l-11.8,18.787-6.476-7.76,15.094-13.689A2.092,2.092,0,0,1,171.15,192.2Z" transform="translate(-84.328 -105.133)" fill="url(#linear-gradient-7)"/>
      <path id="Path_24696" data-name="Path 24696" d="M104.445,154.681l15.816-9.742a2.092,2.092,0,0,1,2.641,3.192l-12.978,14.2Z" transform="translate(-56.408 -79.561)" fill="url(#linear-gradient-8)"/>
      <path id="Path_24697" data-name="Path 24697" d="M228.693,256.216l1.221-.388a.987.987,0,0,1,1.24,1.24l-.388,1.22a16.637,16.637,0,0,1-4.093,6.73l-18.137,18.137a3.33,3.33,0,0,1-4.709-4.709l18.137-18.137A16.638,16.638,0,0,1,228.693,256.216Z" transform="translate(-113.135 -143.647)" fill="url(#linear-gradient-9)"/>
      <path id="Path_24698" data-name="Path 24698" d="M167.7,248.043l3.032-3.032a2.61,2.61,0,0,0,0-3.692l-18.7-18.7-4.878,4.878Z" transform="translate(-81.029 -124.53)" fill="url(#linear-gradient-10)"/>
      <path id="Path_24699" data-name="Path 24699" d="M132.751,100.5l8.867-12.814L130.4,76.469l-12.814,8.867a36.675,36.675,0,0,1-5.421,3.1L70.554,130.043a39.342,39.342,0,0,0-3.759,4.355,129.366,129.366,0,0,0-14.634,25.5,1.506,1.506,0,0,0,.323,1.652l4.054,4.054a1.506,1.506,0,0,0,1.652.323,129.368,129.368,0,0,0,25.5-14.634,39.346,39.346,0,0,0,4.355-3.759l41.609-41.609a36.677,36.677,0,0,1,3.1-5.419Z" transform="translate(-26.199 -40.281)" fill="url(#linear-gradient-11)"/>
      <path id="Path_24700" data-name="Path 24700" d="M262.613,50.155,254.257,41.8a175.755,175.755,0,0,0-17.212,14.685L248.263,67.7A140.033,140.033,0,0,0,262.613,50.155Z" transform="translate(-132.846 -20.296)" fill="url(#linear-gradient-12)"/>
      <path id="Path_24701" data-name="Path 24701" d="M228.009,94.929l-11.22-11.22s-9.126,8.675-9.56,20.778C219.333,104.054,228.009,94.929,228.009,94.929Z" transform="translate(-115.658 -44.455)" fill="url(#linear-gradient-13)"/>
      <path id="Path_24702" data-name="Path 24702" d="M243.4,74.539c2.435-3.473,6.1-9.911,2.674-13.331s-9.858.24-13.331,2.674a26.708,26.708,0,0,0-3.548,2.987l-3.067,3.066c-5.939,5.94-.228,11.446-.228,11.446s5.506,5.711,11.446-.228l3.066-3.067a26.708,26.708,0,0,0,2.987-3.548Z" transform="translate(-124.997 -30.681)" fill="#34363a"/>
      <path id="Path_24703" data-name="Path 24703" d="M295.778,19.247A84.7,84.7,0,0,0,277.536,28.8c-1.022,2.929,5.427,9.377,8.356,8.356A83.381,83.381,0,0,0,295.778,19.247Z" transform="translate(-156.125 -7.295)" fill="#f7f7f7"/>
      <g id="Group_5411" data-name="Group 5411" transform="translate(6.592 6.592)">
        <path id="Path_24704" data-name="Path 24704" d="M26.256,235.953a1.477,1.477,0,0,1-1.048-.435L7.026,217.336a1.482,1.482,0,0,1,0-2.1l3.392-3.392a8.067,8.067,0,0,1,6.73-2.269c11.609,1.541,19.532-.127,23.223-1.255a1.482,1.482,0,1,1,.868,2.835c-3.921,1.2-12.317,2.973-24.481,1.359a5.091,5.091,0,0,0-4.243,1.427l-2.343,2.343L27.3,233.422a1.482,1.482,0,0,1-1.048,2.531Z" transform="translate(-6.592 -122.844)" fill="#34363a"/>
        <path id="Path_24705" data-name="Path 24705" d="M45.333,133.794a1.478,1.478,0,0,1-1.048-.434l-7.35-7.35a1.482,1.482,0,1,1,2.1-2.1l7.35,7.35a1.482,1.482,0,0,1-1.048,2.531Z" transform="translate(-23.833 -73.972)" fill="#34363a"/>
        <path id="Path_24706" data-name="Path 24706" d="M100.283,107.624h-.311c-10.707-.089-26.409-.748-40.413-3.378a1.482,1.482,0,1,1,.547-2.914c13.79,2.589,29.3,3.238,39.891,3.327a35.522,35.522,0,0,0,15.18-3.285,1.482,1.482,0,1,1,1.25,2.688A38.532,38.532,0,0,1,100.283,107.624Z" transform="translate(-36.428 -61.149)" fill="#34363a"/>
        <path id="Path_24707" data-name="Path 24707" d="M18.6,97.307a4.812,4.812,0,0,1-3.4-8.217L33.331,70.955A18.189,18.189,0,0,1,40.659,66.5l3.036-.964a1.482,1.482,0,0,1,1.864,1.861l-.964,3.037a18.2,18.2,0,0,1-4.458,7.33L22,95.9a4.779,4.779,0,0,1-3.4,1.41Zm23.27-28.081-.309.1a15.22,15.22,0,0,0-6.13,3.727L17.29,91.188A1.848,1.848,0,0,0,19.9,93.8L38.04,75.665a15.215,15.215,0,0,0,3.727-6.13Z" transform="translate(-10.737 -40.528)" fill="#34363a"/>
        <path id="Path_24708" data-name="Path 24708" d="M75.883,157.705a1.482,1.482,0,0,1-1.048-.435L54.289,136.725a1.482,1.482,0,0,1,0-2.1l4.879-4.878a1.482,1.482,0,0,1,2.1,0L81.81,150.3a1.482,1.482,0,0,1,0,2.1l-4.879,4.878a1.482,1.482,0,0,1-1.048.435Zm-18.45-22.029,18.45,18.45,2.781-2.781L60.215,132.9Z" transform="translate(-33.837 -77.337)" fill="#34363a"/>
        <path id="Path_24709" data-name="Path 24709" d="M85.927,284.843a1.478,1.478,0,0,1-1.048-.434L66.629,266.158a1.482,1.482,0,1,1,2.1-2.1l17.2,17.2,2.343-2.343a5.085,5.085,0,0,0,1.426-4.243c-1.617-12.182.162-20.584,1.367-24.509a1.482,1.482,0,0,1,2.833.872c-1.133,3.693-2.805,11.624-1.262,23.248a8.067,8.067,0,0,1-2.269,6.73l-3.392,3.392A1.479,1.479,0,0,1,85.927,284.843Z" transform="translate(-40.95 -146.422)" fill="#34363a"/>
        <path id="Path_24710" data-name="Path 24710" d="M201.155,289.616a1.479,1.479,0,0,1-1.048-.434l-7.505-7.506a1.482,1.482,0,1,1,2.1-2.1l7.5,7.506a1.482,1.482,0,0,1-1.048,2.53Z" transform="translate(-113.568 -163.707)" fill="#34363a"/>
        <path id="Path_24711" data-name="Path 24711" d="M228.554,201.638a1.482,1.482,0,0,1-1.455-1.207c-2.661-14.048-3.327-29.842-3.416-40.618a38.522,38.522,0,0,1,3.562-16.455,1.482,1.482,0,1,1,2.688,1.25,35.542,35.542,0,0,0-3.286,15.18c.089,10.655.745,26.26,3.364,40.091a1.486,1.486,0,0,1-1.458,1.759Z" transform="translate(-131.735 -84.937)" fill="#34363a"/>
        <path id="Path_24712" data-name="Path 24712" d="M204.162,282.875a4.812,4.812,0,0,1-3.4-8.217L218.9,256.525a18.192,18.192,0,0,1,7.327-4.458l3.037-.964a1.482,1.482,0,0,1,1.861,1.864L230.157,256a18.194,18.194,0,0,1-4.458,7.327l-18.137,18.137a4.78,4.78,0,0,1-3.4,1.407Zm22.961-27.984a15.211,15.211,0,0,0-6.13,3.727l-18.137,18.137a1.848,1.848,0,0,0,2.613,2.613l18.137-18.137a15.222,15.222,0,0,0,3.727-6.13l.1-.31Z" transform="translate(-117.707 -147.501)" fill="#34363a"/>
        <path id="Path_24713" data-name="Path 24713" d="M165.686,247.509a1.477,1.477,0,0,1-1.048-.435l-20.546-20.547a1.482,1.482,0,0,1,0-2.1l4.878-4.877a1.482,1.482,0,0,1,2.1,0L171.612,240.1a1.482,1.482,0,0,1,0,2.1l-4.878,4.878A1.477,1.477,0,0,1,165.686,247.509Zm-18.45-22.029,18.45,18.45,2.781-2.781-18.45-18.45Z" transform="translate(-85.604 -129.105)" fill="#34363a"/>
        <path id="Path_24714" data-name="Path 24714" d="M208.121,131.3a1.482,1.482,0,0,1-1.048-2.53l10.466-10.466a38.231,38.231,0,0,1,3.111-5.4l8.867-12.814a1.482,1.482,0,1,1,2.438,1.687l-8.867,12.814a35.374,35.374,0,0,0-2.973,5.2,1.482,1.482,0,0,1-.3.424l-10.65,10.65A1.475,1.475,0,0,1,208.121,131.3Z" transform="translate(-121.91 -60.123)" fill="#34363a"/>
        <path id="Path_24715" data-name="Path 24715" d="M54.861,220.019a1.482,1.482,0,0,1-1.049-.434L48.324,214.1a1.482,1.482,0,0,1-.32-1.618A130.306,130.306,0,0,1,63.209,185.73a40.986,40.986,0,0,1,3.9-4.519l13.726-13.725a1.482,1.482,0,1,1,2.1,2.1L69.209,183.308a37.906,37.906,0,0,0-3.617,4.193,127.431,127.431,0,0,0-14.466,25.2l4.078,4.078a127.45,127.45,0,0,0,25.207-14.466A37.942,37.942,0,0,0,84.6,198.7l14.126-14.126a1.482,1.482,0,1,1,2.1,2.1L86.7,200.8a41.021,41.021,0,0,1-4.519,3.9,130.325,130.325,0,0,1-26.748,15.207,1.482,1.482,0,0,1-.57.114Z" transform="translate(-30.398 -99.09)" fill="#34363a"/>
        <path id="Path_24716" data-name="Path 24716" d="M168.377,97.892a1.482,1.482,0,0,1-1.048-2.53l10-10a1.483,1.483,0,0,1,.424-.3,35.347,35.347,0,0,0,5.2-2.971l12.815-8.867a1.482,1.482,0,1,1,1.687,2.438l-12.814,8.867a38.2,38.2,0,0,1-5.4,3.111l-9.811,9.81A1.476,1.476,0,0,1,168.377,97.892Z" transform="translate(-99 -44.855)" fill="#34363a"/>
        <path id="Path_24717" data-name="Path 24717" d="M235.027,55.947a1.482,1.482,0,0,1-1.048-2.531,178.924,178.924,0,0,1,17.381-14.83,1.482,1.482,0,0,1,1.759,2.387,175.6,175.6,0,0,0-17.043,14.539A1.478,1.478,0,0,1,235.027,55.947Z" transform="translate(-137.42 -24.868)" fill="#34363a"/>
        <path id="Path_24718" data-name="Path 24718" d="M261.514,78.538a1.482,1.482,0,0,1-1.048-2.531,139.557,139.557,0,0,0,14.171-17.331,1.482,1.482,0,1,1,2.454,1.665A139.923,139.923,0,0,1,262.563,78.1,1.479,1.479,0,0,1,261.514,78.538Z" transform="translate(-152.689 -36.241)" fill="#34363a"/>
        <path id="Path_24719" data-name="Path 24719" d="M205.213,103.952a1.482,1.482,0,0,1-1.482-1.535c.451-12.564,9.63-21.429,10.021-21.8a1.482,1.482,0,1,1,2.043,2.149c-.127.122-7.87,7.656-8.983,18.105,10.479-1.116,18.027-8.9,18.106-8.984a1.482,1.482,0,1,1,2.148,2.044c-.372.391-9.237,9.572-21.8,10.021Z" transform="translate(-120.233 -49.028)" fill="#34363a"/>
        <path id="Path_24720" data-name="Path 24720" d="M283.167,36.732c-2.541,0-5.172-2.409-6.008-3.243-.967-.967-4.043-4.343-3.05-7.2a1.482,1.482,0,0,1,.532-.714,85.39,85.39,0,0,1,18.6-9.742,1.482,1.482,0,0,1,1.891,1.93,84.067,84.067,0,0,1-10.085,18.265,1.482,1.482,0,0,1-.694.5,3.587,3.587,0,0,1-1.187.2Zm-6.277-9.1a7.812,7.812,0,0,0,2.366,3.765,7.771,7.771,0,0,0,3.781,2.368,85.15,85.15,0,0,0,7.983-13.856,86.461,86.461,0,0,0-14.13,7.723Z" transform="translate(-160.692 -11.869)" fill="#34363a"/>
        <path id="Path_24721" data-name="Path 24721" d="M83.456,63.126A1.482,1.482,0,0,1,82.409,60.6l3.9-3.9a1.482,1.482,0,1,1,2.1,2.1l-3.9,3.9A1.476,1.476,0,0,1,83.456,63.126Z" transform="translate(-50.047 -35.226)" fill="#34363a"/>
        <path id="Path_24722" data-name="Path 24722" d="M269.018,248.691a1.482,1.482,0,0,1-1.048-2.53l3.9-3.9a1.482,1.482,0,1,1,2.1,2.1l-3.9,3.9A1.477,1.477,0,0,1,269.018,248.691Z" transform="translate(-157.015 -142.196)" fill="#34363a"/>
        <path id="Path_24723" data-name="Path 24723" d="M45.142,249.91a1.482,1.482,0,0,1-1.048-2.531l31.15-31.15a1.482,1.482,0,1,1,2.1,2.1l-31.15,31.15A1.477,1.477,0,0,1,45.142,249.91Z" transform="translate(-27.96 -127.188)" fill="#34363a"/>
        <path id="Path_24724" data-name="Path 24724" d="M318.736,13.434a1.482,1.482,0,0,1-1.048-2.531l3.878-3.877a1.482,1.482,0,1,1,2.1,2.1L319.784,13A1.48,1.48,0,0,1,318.736,13.434Z" transform="translate(-185.675 -6.592)" fill="#34363a"/>
      </g>
    </g>
  </g>
</svg>
