<svg xmlns="http://www.w3.org/2000/svg" width="180" height="180" viewBox="0 0 217 217">
  <g id="Group_5431" data-name="Group 5431" transform="translate(-1426 -10076)">
    <circle id="Ellipse_66" data-name="Ellipse 66" cx="108.5" cy="108.5" r="108.5" transform="translate(1426 10076)" fill="#ffcc29"/>
    <g id="higher_education_x2C__university_x2C__graduate_x2C__hat" transform="translate(1461 10128.5)">
      <path id="Path_24725" data-name="Path 24725" d="M98.222,58.361S91.183,80.084,52.361,80.084,6.5,58.361,6.5,58.361V12.5H98.222Z" transform="translate(21.051 22.966)" fill="#78909c"/>
      <path id="Path_24726" data-name="Path 24726" d="M98.222,58.361S91.183,80.084,52.361,80.084,6.5,58.361,6.5,58.361V12.5H98.222Z" transform="translate(21.051 22.966)" fill="#607d8b"/>
      <path id="Path_24727" data-name="Path 24727" d="M37.454,28.885,6.5,16.068V44.7s7.038,21.724,45.861,21.724V51.183A24.128,24.128,0,0,0,37.454,28.885Z" transform="translate(21.051 36.622)" fill="#95adb9"/>
      <path id="Path_24728" data-name="Path 24728" d="M54.275,76.757c-40.116,0-47.85-22.438-48.159-23.394A2.417,2.417,0,0,1,6,52.62V26.069a2.414,2.414,0,1,1,4.827,0V52.19c1.048,2.645,9.163,19.739,43.447,19.739,34.246,0,42.38-17.051,43.447-19.739V16.414a2.414,2.414,0,1,1,4.827,0V52.62a2.417,2.417,0,0,1-.116.743C102.124,54.319,94.391,76.757,54.275,76.757Z" transform="translate(19.137 28.707)" fill="#455a64"/>
      <path id="Path_24729" data-name="Path 24729" d="M71.5,62.516,1.5,33.551,71.5,7l70,26.551Z" transform="translate(1.914 1.915)" fill="#95adb9"/>
      <path id="Path_24730" data-name="Path 24730" d="M30.782,7l-2.192.83c8.236,5.32,13.271,12.276,13.271,19.908,0,11.885-12.131,22.134-29.723,27.063l18.644,7.714,70-28.965Z" transform="translate(42.63 1.915)" fill="#607d8b"/>
      <path id="Path_24731" data-name="Path 24731" d="M73.412,66.844a2.435,2.435,0,0,1-.922-.183L2.492,37.7a2.415,2.415,0,0,1,.068-4.49l70-26.551a2.423,2.423,0,0,1,1.709,0l70,26.551a2.415,2.415,0,0,1,.068,4.49l-70,28.965A2.435,2.435,0,0,1,73.412,66.844ZM9.96,35.567,73.412,61.819l63.452-26.252L73.412,11.5Z" transform="translate(0 0)" fill="#455a64"/>
      <g id="Group_5412" data-name="Group 5412" transform="translate(5.828 42.707)">
        <path id="Path_24732" data-name="Path 24732" d="M2.5,38.637v0Z" transform="translate(-0.086 -12.086)" fill="#78909c"/>
        <path id="Path_24733" data-name="Path 24733" d="M4.414,42.965A2.415,2.415,0,0,1,2,40.551V16.414a2.414,2.414,0,1,1,4.827,0V40.551A2.415,2.415,0,0,1,4.414,42.965Z" transform="translate(-2 -14)" fill="#455a64"/>
      </g>
      <g id="Group_5413" data-name="Group 5413" transform="translate(1 71.672)">
        <path id="Path_24734" data-name="Path 24734" d="M11.155,34.982H1.5V25.327a4.827,4.827,0,0,1,9.655,0Z" transform="translate(0.914 -18.086)" fill="#78909c"/>
        <path id="Path_24735" data-name="Path 24735" d="M13.069,39.31H3.414A2.415,2.415,0,0,1,1,36.9V27.241a7.241,7.241,0,0,1,14.482,0V36.9A2.415,2.415,0,0,1,13.069,39.31ZM5.827,34.482h4.827V27.241a2.414,2.414,0,0,0-4.827,0Z" transform="translate(-1 -20)" fill="#455a64"/>
      </g>
    </g>
  </g>
</svg>
