<svg xmlns="http://www.w3.org/2000/svg" width="180" height="180" viewBox="0 0 217 217">
  <g id="Group_5430" data-name="Group 5430" transform="translate(-1080 -10076)">
    <circle id="Ellipse_65" data-name="Ellipse 65" cx="108.5" cy="108.5" r="108.5" transform="translate(1080 10076)" fill="#ffcc29"/>
    <g id="score" transform="translate(1132.344 10124.786)">
      <g id="Group_5414" data-name="Group 5414" transform="translate(1.527 5.892)">
        <path id="Path_24736" data-name="Path 24736" d="M7,61.71H86.362v95.719H7Z" transform="translate(-7 -50.731)" fill="#006694" fill-rule="evenodd"/>
        <path id="Path_24737" data-name="Path 24737" d="M53.4,11.366h60.254l19.108,19.108v76.611H53.4Z" transform="translate(-43.284 -11.366)" fill="#eaf6ff" fill-rule="evenodd"/>
        <path id="Path_24738" data-name="Path 24738" d="M329.7,11.366V30.474H348.81Z" transform="translate(-259.328 -11.366)" fill="#d3dde6" fill-rule="evenodd"/>
        <path id="Path_24739" data-name="Path 24739" d="M100.645,62.447h20.592a.868.868,0,0,1,.866.865V73.8a.868.868,0,0,1-.866.866H100.645a.868.868,0,0,1-.865-.866V63.312a.868.868,0,0,1,.865-.865Z" transform="translate(-79.547 -51.307)" fill="#60b7ff" fill-rule="evenodd"/>
        <path id="Path_24740" data-name="Path 24740" d="M348.765,241.379a19.124,19.124,0,1,0-19.121-19.124A19.124,19.124,0,0,0,348.765,241.379Z" transform="translate(-259.284 -161.312)" fill="#e6404d" fill-rule="evenodd"/>
        <path id="Path_24741" data-name="Path 24741" d="M100.645,156.049h20.592a.863.863,0,0,1,.866.859V167.4a.867.867,0,0,1-.866.859H100.645a.867.867,0,0,1-.865-.859V156.908A.863.863,0,0,1,100.645,156.049Z" transform="translate(-79.547 -124.497)" fill="#3bb54a" fill-rule="evenodd"/>
        <path id="Path_24742" data-name="Path 24742" d="M100.645,249.622h20.592a.868.868,0,0,1,.866.866v10.484a.863.863,0,0,1-.866.859H100.645a.863.863,0,0,1-.865-.859V250.488a.868.868,0,0,1,.865-.866Z" transform="translate(-79.547 -197.664)" fill="#60b7ff" fill-rule="evenodd"/>
        <path id="Path_24743" data-name="Path 24743" d="M100.645,343.2h20.592a.868.868,0,0,1,.866.866v10.483a.868.868,0,0,1-.866.866H100.645a.868.868,0,0,1-.865-.866V344.061a.868.868,0,0,1,.865-.866Z" transform="translate(-79.547 -270.831)" fill="#3bb54a" fill-rule="evenodd"/>
        <path id="Path_24744" data-name="Path 24744" d="M57.725,107.085V11.366H53.4v95.719Z" transform="translate(-43.284 -11.366)" fill="#d3dde6" fill-rule="evenodd"/>
        <path id="Path_24745" data-name="Path 24745" d="M103.047,73.8V63.312a.868.868,0,0,1,.866-.865h-3.271a.868.868,0,0,0-.865.865V73.8a.868.868,0,0,0,.865.866h3.271a.868.868,0,0,1-.866-.866Z" transform="translate(-79.544 -51.307)" fill="#56a5e6" fill-rule="evenodd"/>
        <path id="Path_24746" data-name="Path 24746" d="M103.047,167.4V156.913a.863.863,0,0,1,.866-.859h-3.271a.863.863,0,0,0-.865.859V167.4a.867.867,0,0,0,.865.859h3.271a.867.867,0,0,1-.866-.859Z" transform="translate(-79.544 -124.501)" fill="#35a343" fill-rule="evenodd"/>
        <path id="Path_24747" data-name="Path 24747" d="M103.047,260.972V250.488a.868.868,0,0,1,.866-.866h-3.271a.868.868,0,0,0-.865.866v10.484a.863.863,0,0,0,.865.859h3.271A.863.863,0,0,1,103.047,260.972Z" transform="translate(-79.544 -197.664)" fill="#56a5e6" fill-rule="evenodd"/>
        <path id="Path_24748" data-name="Path 24748" d="M103.047,354.545V344.061a.868.868,0,0,1,.866-.866h-3.271a.868.868,0,0,0-.865.866v10.484a.868.868,0,0,0,.865.866h3.271A.868.868,0,0,1,103.047,354.545Z" transform="translate(-79.544 -270.831)" fill="#35a343" fill-rule="evenodd"/>
        <path id="Path_24749" data-name="Path 24749" d="M332.7,222.253a19.133,19.133,0,0,1,16.054-18.873c.507-.08,1.014-.142,1.533-.186-.507-.044-1.02-.062-1.533-.062a19.124,19.124,0,1,0,0,38.247c.513,0,1.026-.025,1.533-.062-.519-.044-1.026-.105-1.533-.185A19.134,19.134,0,0,1,332.7,222.253Z" transform="translate(-259.273 -161.313)" fill="#cf3a45" fill-rule="evenodd"/>
      </g>
      <path id="Path_24750" data-name="Path 24750" d="M44.082,15.5H21.76a1.527,1.527,0,0,0-1.527,1.527V29.246a1.527,1.527,0,0,0,1.527,1.527H44.082a1.527,1.527,0,0,0,1.527-1.527V17.032A1.527,1.527,0,0,0,44.082,15.5ZM42.556,27.72H23.287V18.559H42.555Zm1.527,8.2H21.76a1.527,1.527,0,0,0-1.527,1.527V49.653a1.527,1.527,0,0,0,1.527,1.527H44.082a1.527,1.527,0,0,0,1.527-1.527V37.444A1.527,1.527,0,0,0,44.082,35.917ZM42.556,48.126H23.287V38.971H42.555Zm1.527,8.2H21.76a1.527,1.527,0,0,0-1.527,1.527V70.058a1.527,1.527,0,0,0,1.527,1.527H44.082a1.527,1.527,0,0,0,1.527-1.527V57.85a1.527,1.527,0,0,0-1.527-1.527ZM42.556,68.532H23.287V59.377H42.555Zm1.527,8.2H21.76a1.527,1.527,0,0,0-1.527,1.527V90.471A1.527,1.527,0,0,0,21.76,92H44.082a1.527,1.527,0,0,0,1.527-1.527V78.256A1.527,1.527,0,0,0,44.082,76.729ZM42.556,88.944H23.287V79.784H42.555Zm22.27-71.057a1.527,1.527,0,0,1,0,2.159l-8.344,8.346a1.527,1.527,0,0,1-2.159,0l-3.674-3.672a1.527,1.527,0,1,1,2.159-2.159L55.4,25.153l7.266-7.266a1.527,1.527,0,0,1,2.16,0ZM54.321,48.8l-3.672-3.678a1.527,1.527,0,1,1,2.161-2.157l2.592,2.6,7.265-7.27a1.527,1.527,0,1,1,2.16,2.159L56.482,48.8a1.527,1.527,0,0,1-2.161,0Zm10.506,9.9a1.527,1.527,0,0,1,0,2.159L56.482,69.21a1.526,1.526,0,0,1-2.16,0l-3.674-3.678a1.527,1.527,0,1,1,2.161-2.157l2.592,2.6L62.667,58.7a1.527,1.527,0,0,1,2.16,0Zm0,20.406a1.527,1.527,0,0,1,0,2.159l-8.344,8.346a1.527,1.527,0,0,1-2.159,0l-3.672-3.672a1.527,1.527,0,1,1,2.159-2.159L55.4,86.378l7.265-7.266A1.527,1.527,0,0,1,64.826,79.111Zm46.829-12.273a20.678,20.678,0,0,0-19.12-20.6V25.006a1.527,1.527,0,0,0-.448-1.08L72.974,4.812a1.527,1.527,0,0,0-1.08-.447H11.646A1.527,1.527,0,0,0,10.12,5.892v9.452H1.527A1.527,1.527,0,0,0,0,16.87V112.59a1.527,1.527,0,0,0,1.527,1.527H80.882a1.527,1.527,0,0,0,1.527-1.527v-9.452h8.6a1.527,1.527,0,0,0,1.527-1.527V87.429a20.674,20.674,0,0,0,19.121-20.591ZM73.433,9.591,87.319,23.476l-13.886-.009Zm5.922,101.471H3.053V18.4h7.066v83.213a1.527,1.527,0,0,0,1.527,1.527h67.71ZM13.173,100.084V7.419H70.379V24.994a1.527,1.527,0,0,0,1.527,1.527l17.576.012V46.241a20.651,20.651,0,0,0,0,41.188v12.655ZM91.008,84.431A17.6,17.6,0,1,1,108.6,66.837,17.6,17.6,0,0,1,91.008,84.431Zm-1.781-27.04a1.527,1.527,0,0,0-2.867,0L79.214,76.883a1.527,1.527,0,1,0,2.867,1.051l2.155-5.879h7.119l2.157,5.88a1.527,1.527,0,0,0,2.867-1.052ZM85.355,69l2.438-6.65L90.233,69Zm17.54-9.075a1.527,1.527,0,0,1-1.527,1.527H99.23v2.139a1.527,1.527,0,1,1-3.053,0V61.454H94.038a1.527,1.527,0,1,1,0-3.053h2.139V56.268a1.527,1.527,0,0,1,3.053,0V58.4h2.139a1.527,1.527,0,0,1,1.527,1.527Z" transform="translate(0 0)"/>
    </g>
  </g>
</svg>
